<mxfile host="app.diagrams.net" modified="2021-09-09T06:01:35.872Z" agent="5.0 (X11)" etag="-WuDwkuY-IpAU3LNI21Y" version="15.1.1" type="github">
  <diagram id="d0IOnl57yeLx4D1jZ1gS" name="Page-1">
    <mxGraphModel dx="1260" dy="1608" grid="1" gridSize="10" guides="1" tooltips="1" connect="1" arrows="1" fold="1" page="1" pageScale="1" pageWidth="850" pageHeight="1100" math="0" shadow="0">
      <root>
        <mxCell id="0" />
        <mxCell id="1" parent="0" />
        <mxCell id="KzMME8AJnO-x6P3zgn9o-71" value="" style="rounded=1;whiteSpace=wrap;html=1;fontSize=14;fontColor=#000000;align=left;verticalAlign=middle;" parent="1" vertex="1">
          <mxGeometry x="710" y="-505" width="200" height="70" as="geometry" />
        </mxCell>
        <mxCell id="KzMME8AJnO-x6P3zgn9o-66" value="" style="rounded=1;whiteSpace=wrap;html=1;fontSize=14;fontColor=#000000;align=left;verticalAlign=middle;" parent="1" vertex="1">
          <mxGeometry x="1480" y="-500" width="200" height="70" as="geometry" />
        </mxCell>
        <mxCell id="KzMME8AJnO-x6P3zgn9o-31" value="" style="rounded=0;whiteSpace=wrap;html=1;verticalAlign=middle;" parent="1" vertex="1">
          <mxGeometry x="140" y="-770" width="500" height="480" as="geometry" />
        </mxCell>
        <mxCell id="Qvk1Se7cM3nBDyWbRAzN-2" style="edgeStyle=orthogonalEdgeStyle;rounded=0;orthogonalLoop=1;jettySize=auto;html=1;entryX=0;entryY=0.5;entryDx=0;entryDy=0;" edge="1" parent="1" source="KzMME8AJnO-x6P3zgn9o-23" target="KzMME8AJnO-x6P3zgn9o-36">
          <mxGeometry relative="1" as="geometry" />
        </mxCell>
        <mxCell id="KzMME8AJnO-x6P3zgn9o-23" value="" style="rounded=1;whiteSpace=wrap;html=1;verticalAlign=middle;" parent="1" vertex="1">
          <mxGeometry x="240" y="-380" width="320" height="60" as="geometry" />
        </mxCell>
        <mxCell id="KzMME8AJnO-x6P3zgn9o-27" style="edgeStyle=orthogonalEdgeStyle;rounded=0;orthogonalLoop=1;jettySize=auto;html=1;entryX=0.5;entryY=0;entryDx=0;entryDy=0;" parent="1" source="KzMME8AJnO-x6P3zgn9o-22" target="KzMME8AJnO-x6P3zgn9o-23" edge="1">
          <mxGeometry relative="1" as="geometry" />
        </mxCell>
        <mxCell id="KzMME8AJnO-x6P3zgn9o-22" value="" style="rounded=1;whiteSpace=wrap;html=1;verticalAlign=middle;" parent="1" vertex="1">
          <mxGeometry x="240" y="-510" width="320" height="70" as="geometry" />
        </mxCell>
        <mxCell id="KzMME8AJnO-x6P3zgn9o-24" style="edgeStyle=orthogonalEdgeStyle;rounded=0;orthogonalLoop=1;jettySize=auto;html=1;" parent="1" source="KzMME8AJnO-x6P3zgn9o-1" edge="1">
          <mxGeometry relative="1" as="geometry">
            <mxPoint x="400" y="-630" as="targetPoint" />
          </mxGeometry>
        </mxCell>
        <mxCell id="KzMME8AJnO-x6P3zgn9o-1" value="&quot;/&quot; endpoint" style="rounded=1;whiteSpace=wrap;html=1;verticalAlign=top;" parent="1" vertex="1">
          <mxGeometry x="240" y="-731" width="320" height="50" as="geometry" />
        </mxCell>
        <mxCell id="KzMME8AJnO-x6P3zgn9o-3" value="&lt;font color=&quot;#FF3333&quot;&gt;&lt;b&gt;File:&lt;/b&gt;&lt;/font&gt; Pages/index.vue" style="text;html=1;strokeColor=none;fillColor=none;align=center;verticalAlign=middle;whiteSpace=wrap;rounded=0;" parent="1" vertex="1">
          <mxGeometry x="310" y="-713" width="180" height="20" as="geometry" />
        </mxCell>
        <mxCell id="KzMME8AJnO-x6P3zgn9o-25" style="edgeStyle=orthogonalEdgeStyle;rounded=0;orthogonalLoop=1;jettySize=auto;html=1;entryX=0.5;entryY=0;entryDx=0;entryDy=0;" parent="1" source="KzMME8AJnO-x6P3zgn9o-5" target="KzMME8AJnO-x6P3zgn9o-22" edge="1">
          <mxGeometry relative="1" as="geometry" />
        </mxCell>
        <mxCell id="KzMME8AJnO-x6P3zgn9o-5" value="" style="rounded=1;whiteSpace=wrap;html=1;verticalAlign=top;" parent="1" vertex="1">
          <mxGeometry x="240" y="-620" width="320" height="60" as="geometry" />
        </mxCell>
        <mxCell id="KzMME8AJnO-x6P3zgn9o-6" value="Component: Landing" style="text;html=1;strokeColor=none;fillColor=none;align=center;verticalAlign=middle;whiteSpace=wrap;rounded=0;" parent="1" vertex="1">
          <mxGeometry x="310" y="-611" width="170" height="20" as="geometry" />
        </mxCell>
        <mxCell id="KzMME8AJnO-x6P3zgn9o-8" value="&lt;font color=&quot;#FF3333&quot;&gt;&lt;b&gt;File:&lt;/b&gt;&lt;/font&gt; components/landing/landaing.vue" style="text;html=1;strokeColor=none;fillColor=none;align=center;verticalAlign=middle;whiteSpace=wrap;rounded=0;" parent="1" vertex="1">
          <mxGeometry x="295" y="-591" width="230" height="20" as="geometry" />
        </mxCell>
        <mxCell id="KzMME8AJnO-x6P3zgn9o-9" value="Component: BannerCarousel" style="text;html=1;strokeColor=none;fillColor=none;align=center;verticalAlign=middle;whiteSpace=wrap;rounded=0;" parent="1" vertex="1">
          <mxGeometry x="302.5" y="-490" width="185" height="20" as="geometry" />
        </mxCell>
        <mxCell id="KzMME8AJnO-x6P3zgn9o-12" value="&lt;font color=&quot;#FF3333&quot;&gt;&lt;b&gt;File:&lt;/b&gt;&lt;/font&gt; components/bannerCarousel.vue" style="text;html=1;strokeColor=none;fillColor=none;align=center;verticalAlign=middle;whiteSpace=wrap;rounded=0;" parent="1" vertex="1">
          <mxGeometry x="265" y="-470" width="270" height="20" as="geometry" />
        </mxCell>
        <mxCell id="KzMME8AJnO-x6P3zgn9o-15" value="Component Name:&amp;nbsp; Getstarted" style="text;html=1;strokeColor=none;fillColor=none;align=center;verticalAlign=middle;whiteSpace=wrap;rounded=0;" parent="1" vertex="1">
          <mxGeometry x="295" y="-360" width="190" height="20" as="geometry" />
        </mxCell>
        <mxCell id="KzMME8AJnO-x6P3zgn9o-16" value="&lt;font color=&quot;#FF3333&quot;&gt;&lt;b&gt;File:&lt;/b&gt;&lt;/font&gt; components/getstarted/getstarted.vue" style="text;html=1;strokeColor=none;fillColor=none;align=center;verticalAlign=middle;whiteSpace=wrap;rounded=0;" parent="1" vertex="1">
          <mxGeometry x="270" y="-340" width="260" height="20" as="geometry" />
        </mxCell>
        <mxCell id="KzMME8AJnO-x6P3zgn9o-32" value="&lt;font style=&quot;font-size: 16px&quot; color=&quot;#66FF66&quot;&gt;&lt;b&gt;Homepage at index route i.e &quot;/&quot;&lt;/b&gt;&lt;/font&gt;" style="text;html=1;strokeColor=none;fillColor=none;align=center;verticalAlign=middle;whiteSpace=wrap;rounded=0;" parent="1" vertex="1">
          <mxGeometry x="250" y="-800" width="255" height="20" as="geometry" />
        </mxCell>
        <mxCell id="KzMME8AJnO-x6P3zgn9o-33" value="" style="shape=image;verticalLabelPosition=bottom;labelBackgroundColor=#ffffff;verticalAlign=top;aspect=fixed;imageAspect=0;image=data:image/png,iVBORw0KGgoAAAANSUhEUgAAAggAAAEkCAYAAABKesmzAAAgAElEQVR4nOy9d1gUSbv373nP+Z3zvCe9zzkK7q6Lus8G1F11GAQUiQOoqCAK5ohplSTmnLNrDitiwISiYM4YQcEsglkQVFBBgpJmWsJ8fn8M0zAyyODq6u72fV2fa7q7qrqra7qrvn1XdXUtExMTJCQkJCQ+Hebm5sjl8r8E33///ScvbwnDqPWpMyAhISHxV+ddAqFTp06Ehobi7e2NXC5n27ZtbNq06ZM39IYwZswYXF1d+eWXX8Rt33333ScvbwnD+MMJBHNzc3Jzcz9pHhr+49tPXg4SEhJ/Ht4lEHr06EFoaCjDhw9HLpcTGhrKli1bPnnjbwjm5uZs2bIFe3v7jyYQmjRpQtOmTXF1da1RukePalUiJuafDU5v1tqBPqOm4BJyGsWQMe+V9/r162Nqakrjxo0NKpeffvrJoP0+fvyYtLQ00tLSGDJkyHuXbZUC4dfVkypt6zlzCfVNTPi6QRsGu5Zn9Ov6Mo5Otq8y/EOQlJTE4sWLGThwIJmZmRw6dEgnvM8v+9i7dy9bloxnzNHrVe7Hd9k+pk6b/s5j7dw0SmfdZ+Y8nfVZMWnUfyvNtrBwdmxeS8vG9T/oeUtIfCy6T93Er0sXETLds9q4je37sn7ZPGx/rFyJ7Uu+zqRJk2hmYsLiwA7I2/Vj9pyF7F/Yj2/lbTkY/AtHQ+eK8aPCV7Nw5WYCOlowOOgqTqYNMTExYe2VFH785utPXi6fgj+rQJgzZ47oSfgYAuHLL7/E1dWVKVOmEBcXh62tLfXq1TMo7aNHtYiO/jdGjWooYqhAaCQzZ3lUArZns5CfyCA4RYXNqr01ynvnzp0ZOXIkzZo1o0GDBtja2rJu3boqu2BMTU3Jzs7GxMSEtm3bYmpqatBxtmzZ8t7lq1cgNGg5mrHTV2L/3deYmDRgbfgxDu3+Fb+QvURGHue7fzgzwv0n4g9OxMTkG3bP9+fGPNtK4dZdx3P42HFGeFjgv+4Ix47sf69MKhQK8vLyeP78OQMGDCAwMJC8vDw8PcsrtolHUmhYtjz18itMTEyIPX+GoKFWdBu1mKPHj+NmYcqOG4+JjDzKd+YdOBEZyc6FQxkVtJ8fv/+JI8sHYmJiwp7kFExMTLjzIIZv6n/Nof3BOucy+3I2xyJPsTTAXTz+teWdaPDtj5xYF8jQkBhOnjhMw0YWHD4eyZ7gmQxYd4lG9b/m2ImN1P+2CfOH9CMy8ji/DpLznYU7Bw4eZuu0rtj1HcnJk5FY/9QAExMTvL29ycvLIy8vjzt37nz0ikrir8PgXyL4uasrDeqb4DB0MYM62BMTt5+2wybSwdmZ8PMxYtxD5y9x4NAh3Cx+qLSf6/eO0q+r7tNb34F+bJ7UFY8JYXzf8GsGrygX9MEjnDBt3prD83owNyyK+Cvr+MaqHyv8x2Nm+tcU2L+HQLBqrWDsxIk626ZMncqUiZrG29KmDaN6OX100fAhBcL69et58uQJI0eOpPXPfgybOp0mTZoYlPbx43/m9u1/5cCB/xa5dOlfDUrbtqMHrS4X0SIyg5dCCd8dfoHisrJGeW/QoAHx8fFi/Z6Xl8f+/frbyISEBDGOiYkJ/v7+REVFVbnv+fPni/G3bt1aKdze3l4Mf/bsWZX70SsQjiaewcSkITf2jqSe43SGtNKoer+QCM2Tc32NAJh2IJ5vOizE88dmZQJBNzwhK5Pk5GTuHl3FlBPJTOmreK+LwMHBgby8PNzdNQ1yy5YtycvLo2vXrmKcicfT8OrSBUWrpqJACB9phYmJCYkZz0lOTuHS0m6EHNyDiYkJC/eexMTEBMX8i3xt0pCUx7f4tr5mX7azL2HhEEg3B3f6N/uWnTP76JyL1oMwNSxaPP6t0NF06TWMc1uniuFdpmgqRwvvJTS188alhRkn9oXwvct8FDJb7l3cy3cNTFi4/zrJycmkZ6fjNnqeKHS0eHt78+DBg9+1wpL4a/DNP0yJe3iOsRsiadeuHe1c29J22AQampjQKnC7GO942DS+NjHl4q999O7n2zajGGVVD9PvvsHExIQGDRoSHnWITmN38H3Drxm26rAY98CKETi3ktGgvgnrjhynvuN8Yk7u4MfW3bH86R+fvEw+Bb+HQJi9YjkD+3ohl8tZvWQWcrk5s8b7omilOfbkX1azOrDjH0oghIaGMnPmTOqNnk2tBwK17hTw93qGeaGgFmp1LUpKynnxwjAPgpOrO4obpSjOvMTqZAaKs5k1FggmJiY0a9ZMbKizsrKqjHflyhUdgRAQEEB0dHSV8asTCCYmJjRv3py8vDy++eabKvdTWSA0sWfLoNY0a9aMwO1XMf3egT1LfbFxbEu3X8Jxc7SnQUONAPjRth/Xbh/GxKQ5N+bZVgpfcCIeVwcbbC2a4OZqT9dZNXPBVOTZs2fk5eVx7do18vLyyMjI0AmfeCSFBmXLbwuE3SePYW9jQ/NG34oCodPU7fRr70DY1Rs4DV+Om00bVg11wMTEhG8auXA74QAmJvW5dSWKAbb/0DmX2bHPsbFzIfLENvH48RuH4NCmM1EHygWEhccYRnZ1Yv7OE3zdoDFnzt/kJ6senLlxHZNGVrS0bMXzuCV0mRnGUA8n3Nta6RUIEhIfA7/ZawkPj2D/mkB+aOnBsf0R7Fg8iLbDJhK6cxdHdiwR4w6atYnQnbvp1ELXrfm1SWO2hO7kwKG9/FjfhJ7tLXHpO5Fdu3azafYAGjZpzdF9uwldEiCmCQ5wFJd3Ru3DxMQEp1bN+cGiHVayyh6KvwK/h0BYsWwWVk4D6dnepmxbC9o6OTBrzTqcvHyZMGwwQdMGY/4HEghmZmY0bdqUBmPnUCtOSa0rr/l7PcPSQi3y8/8PCQn/IfLq1f8xKG2jZnI2hu/H/Ew2jmcysTyTQ7fFG9/rHMaMGUNubi5mZmbvjPftt9+K7Z6HhweNGjWqMu6CBQtEgfDBuxg+R+rXr8/Ro0dJTEzk0qVL71Q9EhIS74/Wg/Cp8/FX4l0CoXv37oSGhjJs2LDfJBB8Zyxl2i+/0sbanFkzRiGXt2bJglmsWT5XE6eFY409CNbW1kyfPp1OnTrpDd+yZQu+vr4fTSBULL//sHbm37/4mq+/NsyDEBX1/1Xi4MF/M/iYza1s8Bk+nDHrwvAe9P4DAU1MTGjdurVB8X74wTABff78ea5cucKVK1fo0qXLe+frDyMQJCQkJP6svEsgWFpaMnLkSKysrJDL5fTr149evXp99K6A6li8eDGhoaEiISEhOuFubm6EhoZqxEkFkSC95vjHQRIIEhISEp+YP+JEScuXL9cRCBW9Gubm5gQFBekNkwTCH4datWv/L7Vr16Z27dr8b9mvhv/VWf/fCttr68TTjfO/VYTVrl2bRj/8gFwmk5CQkJCogI2NDdbW1iKNf2lZIyzcW+mk/z0ICQlhT0SEyK5du8SwPn36sCcigk0bN9LZw0MnnZWFxScvbwnDqFXHqA5GxkYajDSYy5vRQt4MuVlT7O1tadPGhTZt25T/tm1Dm7YVl9vg7OJMixZmWLaQYWlhxhdffoGRsXEZRhgZG9PI1PSTn7CEhITE58bbAuGPgGeXLvTt21ekV8+eOuF9+vShdevWldJJAuGPQ606deqIwsDIyIg6dergYNsSJ0drnBWtUThYo7BvhZOjtWbZwRonRxucHFrjpGiNs6I1TgobXBQ2tHGyo42zHW1d7Pnii7ri/uqU7buRqSk7QkMRBOEPxeFDhz75HyUhIfHnxUZPQ/pnxcLc/JOXt4Rh1Kpdu7amEa9Aq5ZmeHq0xatzuzJcy2hP1y5leLanm2d7unl2oLtnB7p7daS7V0d6eLnRo6s7tWvX1hEdRkZGNPrhh0/e2L8vn/qPkpCQ+HPjYG+PwtHxT4uzkxOtWrb85OUsYTi13hYHderUoXbt2rR1cWCwdw+GD+2L77D++A0bgN/wAfgPH4C/jxZvAnwGEuA7EH8fb3x/7k+/3l58+49vyr0HFWhkavrJG3pJIEhISEhISFSPjkCo+LSvFQra37c9DW8PQHw7XkWBoF1+24Pw5s0bvXxqMWCIQOhi1whvl+/L+E5c7mjT+JP/qYYia96cZs2a07xZ80+el78SCgcHBg0cSDcvr0+el/ehjYsL1n+wJ0FrWVO8zMsHSTubNaGtvMknz5ehtLKyYkC/fvTt0+cP7KI3+wzyIKFlrF0Tnnk2JMOrIXvbfUcrs8rtgN4uhqp4W0C8vVxVHNGD8JZAAFC/ESgpyAVASEzQ/FbRSF++fPmzEQiHff+H1/P/hfztDpRk3uN1sAWv5/8LGwbU1ftnOCsU2NvafvKLQkuTn5rxXeNyvm/c7IPt28PdnZaWlsyaMUNne/du3T7I/j2//15nvXeX7z/Ifn8PVq5YQcnTx+R2bIRyxTwyMjIwN6tZxdm5U6dPknc7GxsiT5zAxcmJXj16cGD//hrvY+6cOeJy3z59DE4XOGLEb8r7WEsTbtv9M3KZphLc2/q/OWzzn5/sOrCxtjY4rmvbthSrBPK825Pv1w9BqcSyRQuD048bM+aD5NnczKxG+dbFHLtWPp+svCV0iWj3PRleDXV42qVhpXi1Kjbs+hr7qsSAvuXqwt/uYgAoSnuE8DAetVrNq63TKgmEgoICRo0ahSAI7Nix46MJgPDwcAoKCoiKiqqRQCjY7U6pMpfnS5zInP6vOgKhlZUV6enpyGWaRtPFyemD/slrVq9mhL8/PXv0QC4zvNIxa96c794SBI1+bMZPTWsuEgIDAujdqxeO9vbIZTKOHD7MsJ9/pnWrVhw/dkwn7uJFi3TWB/Trh62NDXKZjJ7du4v7eBctmptxrVYtLnz3H1jLmnHhm/+g+EYtWsjL4+wKC0MukzEqMBArS8vK+5DL6eTmxv59+2jXpk2l8I0bNmBhbo73gAF08fAwqBysLCxoZWVVbZySnNvkOjag9Fkqb47sBWDd2rVinMuXLxO+ezeHDh6scj++Pj5Mnjix2jxt37ZNZ33/vn2Ym5nRsUOHSnGry7tcJuPatWvIZTIGensjl8lQODri7+cnhm9Yv55dYWEcPHCgyn0kP3okLs+ZPdvg62x9cHCNr82K2Jv9REd5I7QCoZ28Ma7ycm+fhbk5UVFRHDxwgK6enjppj711HZ8+fZp9e/di2aIFM6ZNq/KYsbGxVYZ1cHU1OO/qEhWvmv2N4tvxFF+JRf1GICUlxeD0e/fsMSie94AB7wy3MDevcR1mLrPCUu6CwmYObexWY2XegRZyOzHczsaGs2fOcGD/fmysrQ26Dt8XJ4WCju3bI5dpvHg1Td/WxeWj5e1D4NGpE4MGDmTpkiXVxs3wasjLATJe/zKMlwNkFB7dTIZXQ3510n3TUG8XQ1XrVTX+7xILFcP0CYS8yJ283rsOdWkJT3t+W0kgDB8+nAMHDqBSqdixYwdXr14lKSmJtWvXcu3aNfbv348gCMyaNes3iwRfX19SU1MNFwgL/hXVpeWk+P5fcg5MJ8X/vwjq+aUYZ86sWTja29PFwwMPd3e8PD2ZM3s2Hdu3J8DPj/59+2LdsiUb1q/HwtycTRs3ErZzJ3KZjLgbNxgREMDCBQuIjoqiXZs2LF68mMmTJon7nz1rFnKZjM5ljVjH9u2xMDenhVz+zotDpkcgNG1avs3KwoLNISH06d0bC3Nz+vfrx+aQEDasX493//6kpaUxftw4hg4ZQnx8/DsFQgu5nN69enHo4EEWL1pEz+7d2bx5M3KZDOuWLUWB0MXDo9p8y2UyzM3M8XbP53nD/0veP2rxvME/898nu2FmXv4UfvnSJeQyGefOnaODqyvjx43j0sWLyGUyZkyfThtnZyZPnMjJyEjc3dyIjYlBLpNxvawBNDcz48yZM5w4fpw2Li4sXbyYfXv3Ym5mRmBAAHY2NrS0tGREQAAOdnZimVXnCbCzsaEoqRPFwiUA+rsJDO0pUFRUJMaJj4/H3MyMy5cvY9miBTtCQzkfHY1cJuPevXvMmD4dXx8fVCoVE8ePZ6C3N1YWFmzbulUs77i4OIYNHcr2bdvo5OYm5mvr1q3MnDFDFAhDBw9G4eBgcMU8a+ZM5DIZC+bPF7edOH5cXN66ZQvmZmYsWbyYVlZWLFywgA6urjx+/Jh5c+fi5elJ8qNH+Pv5cfzYMVEgpKamMmHcOLp4ePD8+XMmT5pERHi4zr7XBwdjYW7O5EmTGDJoEOZmZti2bi0KvOrKfm7LL3lg/38wLxMIUbZ/44Lt38TwnWX3nZbw3bvp26cP64KCOHbsGJ3c3cWwLZs307JMeK5csQKFgwO9e/Zk1cqVtLSy4uzZs/Tv25eLsbG0a9OGwQMH0rlTJ6ZPm4Zt69Z4dOokinpDUAspvMmcLV4z/d0ESktLxfDu3boxbOhQUlNTGTRwIFMmT8bBzg7v/v2ZNXOmKBC8BwzgyZMnrFm9GrlMxpMnT9i6ZQvdu3WjlZUV+/buxcHOjqGDBzNh/HjkMhn9+/Wji4cHy5YuxcLcnO5du4pdYwpHRwPu11a0tf+VNnZraGO3BhfbVVhbdBfDO3fqxIzp07EwN8e9Y0esLCy4dOkS48eNo3u3buzetYufhwwhLi4OhYMDfXv3ZsWyZcydM4f+ffty+9YtHOzs2Lpli3i9HD58mC6dO7Nt61a6eHjg5+uLXKYRCNpr3VCBYNmiBe3btaOrpye+Pj60b9fOoHrqUzHI21vn/tRHD6umotfg1Vxviu5eEddj3L7Viat3kGJNxcLbr0nqe3WyKoGgvH6OF2PaUfQshRSnf9IRCIWFhbi7u+Pj48OCBQvYsWMHAwcORBAE1q5diyAIHD58GJVK9ZsFwuXLl0lNTRX3W71A+DuluamoS0tI8ftP1KUlFGWmsKrzV2Kcly9fEhMTw/Fjx/Bwdyc5ORnLFi3o2L49To6O9OrZk9atWokCYfLEibh37IidjY0oFFQqFatXrWL8uHHcuHGDTRs3ivsXBUKZy1m73+rcj1qBYNa8vM/phybNaPRjuWiYPm0aO0JDWblyJdOnTePM6dNsWL8euUzGo6Qk5DIZixYuJD4+nm5du4oV9f59+3QEQoC/P3Nmz+bChQuiB2H1qlXIZboCQS6TYdu6tQEVjjkD3Eswl1ky5UcTZC3MqHWyh45A6NGtG04KBfPmzuXXNWuYOGECEydMQC7TeCq0Za31cLh16EDfPn1oX+GpbuKECTja2zNh/HisW7akT69emJuZMWrkSFEgDPv5ZzG+Ie92W7dsyaOXq+ifsBiAnFwYMVAQBYBcphEIK5Yvx9/Pj2E//8ykiROZOH487V1d6VXWqFQUCHKZDM/OnVkwfz4Tx4+npaWl+FS/7S0PwpbNm7GzsWFEQABymUys6Dt26GCQQNB2KVSsgFYsXy4ub9u6lenTptHV05NWVlYMHDAAO1tbsZxOnTwpehBycnJEgXAyMpKJ48fTzcuL58+fI5fJWL5sGf379RPLdX1wMG1dXLApe03OtW1bunp5iU+01QmEqVb1eGT/T1jKNNf4Tbt/IdL238XwiIiI8rhTpvDs2TMmjh/P0CFDOHr0qM6+LFu0YM7s2TgrFKIH4dzZsyxftgwba2t27tiBXFbuQTh08CB9+/TBq0sXfIYPRy6rmQdBKM7E/HxvtDaoq0BWVpYY3r1bNxzs7Dhy+DBymYzNISGEhIQwZfJkNqxfLwqE3bt3c/bsWVpaWjJh/HgWzJ+Pk0LB6VOnUDg4sG/vXk4cP86UyZMJKvNq9e/XD7lMRic3N1paWuLi5ISNtTXmZma0NtBjaSFXlAmE1TjZzMesuW54Kysrjh09KgqEc2fPiteTdvnq1av8smgRUydP5uCBA2JXVfC6dXj374+tjQ1dPDxwcXZmc0gIcpmM6KgoBpQJHLlMIxC0ZV8TD4KdjQ1tXVzo1rUrdhXqq49JTEyMSE3SDfL2rtbT0dKsuUYQ9GqE8kw4OTN68WrBEDK8GnLAVbe7Vu88CPq8AfoEwtvhVXVRvKuLAeDVjl/ImOJGUdojHYFw48YNsrOzEQSBQYMGERoaSmFhIX369BEb8vz8fCZNmsTw4cN/9zEIBWfnkXd+Ayl+/0ne+Q3kHJrJqs71xBtK23CHbt8udjFER0WJDbl1y5acOXOGC+fP6wgEe1tbtm/bxtatWxnQvz9WFhZcjI2ld8+ejB09WszDqpUrGTZ0KAPKbuKO7dujcHQ0qLH6oUkzmvykqSwb/9hMRzC0tLRk7a+/cuTwYX5ZtIg1q1dz6ODBygJh0SLi4+ORy2RcuniRfXv30rtnTzp36sSQQYOIiYlh+LBhrAsKIjIy8p0CwbVtW9o4Oxt0E3Ry2oNcphFBZnIZtee1qxTnxYsX4s198MABlixejFymXyDIZTJelDVMWnx9fGjdqhW2rVuze9cuUbCtWL6cMaNHY2VhUUkgtNTTnfE2V65cwe/OWv4psieNzvvzKrdY9ELIZTKxPM+dPYuVhQUXLlwQRWFsTAzrg4MZPHCgjkCQy2ScOX2a4HXrkMtknD1zhvXBwfgMG8b6devEfG0p89z8PHQocpmMXj164F5W8Rsy8G30qFEElImPlpaWnDl9Wid865Yt4rJWIMhlMs6fP8/ePXtwtLcnLi6OLVu2MGHcOAYOGIC/nx+RJ06I3TpagbBi+XL69e0rXstzZ8/GskULpk6ZIgqgbl270lZPF5E+HM1+5LFDLc7Z/o09rf+bxw618LFoqJPfSxcvsmH9esaMHs3sWbPYHBLCkEGD8Pfz0xHmm0NCOHzoEHY2NpyPjmbWjBmcPXOGzZs307pVK1EgbN++nXlz5+LesSOTJ02iT+/etJDL6de3b43G4yxdsoRNqSf4f6f7U/eMN5efp+FbJjTksnKBoJ2vZfPmzawLCmLVypWsXrmSObNn09bFhcOHDhFdJkZv3bqFnY0NkyZMIDg4GPeOHdm3dy/79u5l5YoVLFu2DLlMIxAmjh/P7FmzxC4GG2trWsjl2NnaVivMzJrLaG01AGfbOdi29MHVMRh5BYHQp1cvNmzYwMXY2EoCYfu2bSz+5ReCgoKIj49n7pw5rF61il1hYcydM4cN69dz7OhRWllZcfzYMU5GRor/j1wmY/KkSUyaMAG3Mo+ZViDIZbL36u793LsYasKtTv94awzCN2R4NaT1WwMVdQYpVuUBqMo78K54ej0IegYp6rOP2dB/SIHwev6/8CTw30nx+08RrUD4I9CsqeZiaNr0r/0WQ1dPT4P7aT8EowIDUalUnC2rCP9ozJs7t1I//R8BB7OfiLX9N27b/wv9W3z7yfNTEzq5uZGenk5ycvJvHuzs4e7OlStXDIqr9SD8Vsyayyp5DgzB388PP19fZkyfrrO94mBXiffjqafuIMVOFk0rxdHxINTR09jr8yJUF67X+1A2k+Knbug/lECQkJCQkJD4I9PSrDn28qofEGu93Zjr60Iw/vJr6n3bFJNGLajf2JL6ja0waWRJ/UaWfP2DGV82+P6d4w+0y5JAkJCQkJCQ+GOgdwyCdvnL+t/hsfYVXiEldN2s1kOp+Ou58Q3mPedX6U3QCoTbt2598sa+pjx8+PCT/1ESEhISEhK/J5U8CFpMbXviuam0xrSZdb3KsQmNTE1paWnJnNmzWTB//h+CeXPn/uFmjZOQkJCQkPitVDHVsjGd15fSeUMF1pdW3vY2ZeHmPRfpFQg/fP89zZs2lZCQkJCQkPjMqdTFYGRkhLXPLjyCSzWsLy1frgH69qud1EhCQkJCQkLi86aWvif9DivycF+nxn1dqYagaqgYr2y53ndm4tsLWrEgCYTqycnJ4cmTJxISEhKVSE9P/+R1lMRfh1pGxsYY162LUV3Nr3HdunRYWUjHtSV0/LWE/ltKuZmm5mZqKTdTS4lPUxP3tJTjt0vpHFRCx19Lcfu1hNArpXT8tQS3Mr6Rt8PY2BijMoyNjSWBYAD5+flVzg8hmWSSSfby5ctPXk9J/DUQBYJWJBjVNcZ1hZIOq0vosLqEyLulVV6oeSo1HdaUkPZKTUmpWkzTYXUJ31p6iOLAyFizX0kgVI9kkkkm2bssLS3tk9dTEn8NaumbHKndMiXtV5bQfmUJkXeqFghqNZy+VwJASaka17I0ritL+NaycwWBYCR5EAxEn128eJG0tLSPUtlIJplkn6dVdc//GQTC8+fPUalUv+9xVQJ5LwtQKas/rkqlRKVSIqiyUSkN69Z5/fp1JXJzcw1Km5ubS0ZGhsHxfy9q1da+vWBUPqiwzRIl7VaU0G5F9QLhfGK5QNCmabeihH9YeOjOr2DgGITXr1+/14nk5eXVKP7r16/x9vZmyJAh5Ofns2bNmk/+ZwiCrkB49uwZzZs3Jzc3l2vXrtGxY8cq/wtXV1ciIyOJjIzku+++o7i4uFKcoqIikpKSDKmbiI6OBmDmzJkGxZdMMsk+nF2/fp2VK1fqDfscBMLLly9p37497dq1E1m6dKnB6U+fPk1hYaHB8b28vH5bnlUC+VkF7KlzDWXhuwWCSqXi1Ia1XDodQWlJIYXpuyjMPFrtMVJSUlCpVGRnZ6NUKklLSyMlJaXadAcPHiQ0NJQTJ05w7dq1Go0zGfjgxEf9n2u9/YpjnTp1cPmlkLbLSmi7tJi910uqvIjVagg6pxEQJaVq2iwtpm0Z37TwqPRxp3cJhMLCQgIDA9/7RAoLC7l48aJBcXNzczlw4IC43rVrVwYMGPBRC9pQKlr//v0rlfnEiRP1/hfOzs7i8pdffomFhUWlOAUFBVy/fr3K/7OiLVmyBID/+q//qjbuqlWrdNZv3brFwYMHuXr1KsXFxezYsYOtW7eiVqsJDQ0lLCwMpVJJQkICBw8e5ObNmwblSTLJ/uz24MEDxo4di6enJwCdOnVi2rRpFBQUiHE+B4GgbeC1jXx8fDy//PJLtelUKhUZGRli+ocPHxp0PC8vLzZs2MDjx1LmVkcAACAASURBVI/JysoiIiLC8LYhX8mNJQ/Y/MUZroRUf7yzc6egijrGL/Jv2RY0itxbk4jb7VxtupSUFPLz81GpVOTl5ZGVlVWtQLhz5w779u3jyJEjxMbGcurUKbZs2WLQeWUU5nLz9Qvcz+9kfpRhQqGgoIDU1FQd3hVf7zwITgsLcFlcjMviYjqvKaG0VK33Ylar1bRdWkxwVAklpWoxjcuSYhrKO1aaSfFdAqFjx47cvn1bB0NONiMjQ4fo6Ohq0/Xo0eOT3VjVUdGGDRtWqczDw8P1/hcVBYK+dSgXCKNHj+bIkSO0atUKtVpN7969iYqKIj8/n4sXL9KuXTtRIPztb3/jxIkTjBo1ijNnzrB+/XpatGhBSUkJ06dP58SJE6xatYrExERKS0uJj48HIDk5mZiYGC5dusSbN2+4c+cORUVFXL16lTdv3hATE0NQUBAAK1as0HtOkkn2V7ODBw8SGxurs2327Nm8fPlSXP8cBMKZM2coKCjA19eXU6dOcf/+fYMEgiAIzJ8/n71797Jp0yaDnrAFQSMQgoODRYFg6MNk/usCoqbdZI3xIS6sTCT/dWG1XRv7XCy408uVXt98QeCMrfgujGPqzOnVHisnJ4fCwkKKi4vJyckhJSWlWm9AUlIS8fHx3Lhxg1u3bnHz5k1u3Lhh0Lm1uaMRSf1Hzybh2VNeFxRUmyYhIYHu3bvr8K74tfR9P0ExLw/nX4o1LC6mw7Jieq8rpndwCb2Di+kdXEyf4GK6ry0W43muLtZJY/KjY40EwooVK3j8+DGvXr0Sqe5kVSoVBQUFIqmpqQZdcPoEwoQJE373m0wfFW3Dhg0661FRUeTl5emtWGoiEOrUqQPAuHHjePDgAcnJyQB07dqV0NBQGjVqVMmDYG9vT8OGDQG4du0aL168YNWqVXh5ebF69epKxxIEgQ0bNogC4e7du5JAkEwyA2zt2rXi8vHjxyu92fQ5CIS0tDQePnyIUqnk8ePHCILApEmTDE6/Zs0anj17ZnD8twXC2rVrDWofYsbfZdNXx9k7OZa8VwWoVNUfa8XsmZj+97/zP/9rxLiVdxk08zJGDa2qTZeamkpRUZFIdnZ2te3Ro0ePOHDgAJcuXeLWrVvExsYa5EGIyn5CnkrJonXbEQSBXiOmGexFqAl6J0qyn5GBYmHxb6Lu19/WSCAIgsDSpUtrdNFU5MWLF+KFWh15eXmEh4eL6+vWrSM/P/+DF+778LY5OzujVCq5c+cOa9asqbJSsbOz4+nTpyJOTk56440ZM4ZTp07Ru3dvJkyYAICbmxv+/v7MmTOHoUOHYmNjw5UrV9i+fbuOQMjIyMDT0xNPT0+KiooYOnQorq6uPH78mM6dO5Odnc3Fixc5efIk4eHhXLhwgZKSErZv305oaChqtZpdu3YRGhqKSqXizp07REREcOvWrRpXopJJ9me1IUOGcODAAXr27EliYiIJCQk64Z+DQBAEgd27d7N8+XL27t3LqFGjKDDgCbZdu3Y68zrcvXuXxMTEatO9LRAM8TALgsAOu3O8SMqq8YBIlUrFq1ev+eoHe4wbWvFVva+rTZOSkkJeXh65ublkZWXx4sULgx5Yz58/z8GDBzlx4gQxMTHk5ORUm6bH/cPMeXKRKUuDCd55gDVbIxh1pPpul/z8fB4/fqzDu+JXGoNgZGTEP1r1x2F+sYZ5xTjMKypfnq9dLyrfPr+oQvwiHOYKer8M+Tm9xZCbm4uPjw8BAQGfjTgQBP1vMfz888+cOnXq96ibJJNMsk9s9+7do7CwENB46962z0UgfO7kvypEWfD+b0qoVCqePXvB9u2hBgmMig9oWt73gfdzocqPNVlPfIL93CLDmKe7Xu97S71fdPycBMLnimSSSSbZu0wSCBK/F1UKBOMvTGg1IRXb2UW6zNGzXmHb946BlYRBHQO7GCQEioqKPnX9I5lkkn3G9vz5809eT0n8NdA7BqEi37QaSOvpSmxmFr0T+dAojIy/qJS+4kRMkkConidPnnDhwgUJCQmJSty5c+eT11ESfx2q9CDoNPIVwip6BXS2v0NkSAJBQkJCQkLij0WtijMovt3Q13nHtqrSlFNZPEgCQUJCQkJC4o+B5nPPxu948jc2xshIg7FxXd0PML31tcaK317QYIxRhTSSQJCQkDAUQyfRkZCQ+DjU0n5Iydi4rigAjLXU1Wwr/y0TAxU+Da2h/IuNRnXL02rXjepKAkFCQqJmGPJ+vISExMejlpFRnbe8AVrPQUUvQLkXQW9XhHa+AyM9YxXqGBn0muOTJ0/EiRtq+uGlqsjLK5+4I+fpRZ69qv5d1mtHNtX4OBG//vr++VSpEJT5qFRKinIPUZI3BUEw7CMm2vkbKn70pKZfA3vX5Cbvmh+iyrnQVSpUrzMRXiUgvIpHyE1GKSjfq2wMmXilpmRlZVXa9uLFi9+835pes0pVIY+zE5l8dCB+oQN4/DIZpUp/OSUmJtbowzYfE30j6D/U/arvvPVtV6kEdm0tRqmsfh/p6ekole93/VXF8ePHxeXk5OR3Xg+XLl2qdn8qlUrvdfkhyM9Xkl/wYc+/pmRkZHzS40tUJjs7G0Govu6rZWRsxBdffIGtnS2Ojg7lKBx01x0dcHR0xMHBvkbY29vRpEmTdwqE1NRU0tLSyMrKIisrC4VCoQlT5eMxfud7FoKKgWPLp6x8dnMziS+rFwgnN82q8bGWj5/w/n+WSkXpZnOyIyO4O2UzJQ+cKE711Ynj6+tLUFBQpRtt/PjxCILArl27xG3VzcKlnT9d+/XKbdu2VRlXu399VDkX+oPbKLuZoo79F0rO/TPqqP/A7+JcMTwoKIhbt24hCAJTp059Z14XLVr0zvDRo0dX2rZnzx4GDhzIjh079Daq+iYuSUpKeq//LiUlhaCgIMLCwgyaGrwis46OY/SZrkw8NICROwfhu6Ufsw+Wl8eOHTvo0aMHO3bs4MyZM1UKhMLCQvF/unfvHikpKUyePBl/f3+dhjE2NtagfEVHR7NixQoWLlyoN1xfoz1mzBhx+fbt22zcuJGwsLD3KtPqjiUIAkqlQDc7uJvwptp9JCcn69wfH4Jly5aJy5cvXxaXw8PD2bt3L4Ig0KtXLwRB0PkoXFVoJuT58BPqLFl5hxZ2kbSwi+RMtK6w8/f3JywsDH9//w9+3LcxdIZbLZGRkcydO5cxY8ZU60WaPXs2q1evJjQ09KOfx5+J1atX8/r1a27duqUzq/Db1DIyNqZR40Y4ODpqcHDAwdGhbN1Bs+7gWIaDGMfe3l4v+sPsqhQI9+/fFz/OpFAoePXqFba2tprwMoFwJXwxdx/ep7vnMG5fi2Ra5Evmjgjk7q1rdB++nGfX9rIp8hq/jh9MljITz5kHSErNoN+IX0l7oVHmz26GsC/qBssm+6MSlIyauZbLx7cS+TCTheMCuXM3jkEzwji5aRaX9yzmxpNsTq0Zx/2H9+gzfCY3ovZw4sFz0pIfcP3EWq4+fs0I71E8uPOQ5eMnsHvZBF68LsRn1C8k3Ys3+I8qCt8EqxqSu19GWPdnpO0eiDrWFaFAMxmKj4+Pzixe48aN4/bt25w+fZqxY8eSlpbGrl27SEtLQ6lUEhsbS/v27blx4wabNm0iPDyc2NhYBg8ejCBonmzGjx8vKse1a9eSlZXFgwcP2L17N5mZmXTv3p179+4xZswY0tLSCAkJ4datW3h4eBAREUFsbCx9+/bVez4Twovote4NgkpJ5v2lmM63w2p/+QdBZs+ejY+PDwUFBaxcuRJB0IiNhIQEoqOjmTp1Kvfv32fJkiUsWrSItLQ0VCoVSqWykkdj9OjRXLhwgYSEBDIzM8XtM2bMQBAEVq1axcOHD3n16hX3799n9uzZrF27loKCAtavX8/69esRBIGAgAB27drFgwcPGD58OCkpKezcuZOlS5eSkZHBwYMHefToEYKgaZC1+UhJSWHTpk3s37/foCfFiozd6c/ISC8mHhrAqLBB9A/qRrfV3XTiaCvvqKgobt68Se/evcnIyGDPnj1MmDBBvC5+/vlnBEGgX79+YhnPmzdPr0B4+PChWO4XL15k27ZtFBYWkpiYSNeuXTl16hQRERGoVCqio6M5deoUycnJBAYG8vDhQ/r27UtSUhJxcXHMmzeP3NxcAgICxI/S3L59m9DQUA4fPkxOTg7Hjx9n5MiRCIJA//79uXPnDqdOnTKojPQ1DiqVwJMH+XSzA293td659adOnUpMTAyPHj1ixIgR4v2hDX/48CHBwcHk5uYyZswY9u/fz5EjR/D19RWvm61bt5Kdnc3KlSvZtm0b6enpDBo0iFu3blUpEKZMmcLAgQMRBM33XtLS0kSBkJiYSHBwMPn5+YSGhnL37l169+7Nw4cPUalUrFu3jszMTO7du0dkZCRDhw4lISGBoKCg92oArD3uYe1xj1but7HscpGWA+9w9MprMTwwMJD8/HyxDjl//jzp6enMmDGD8PBwnj59iqenJ3fu3GHLli307dtXnOHxwYMHLFiwgKFDh3Lnzh369evH8ePHefDgAU5OTly9epW5c+eyZs0aXr9+zYwZM5g0aRJ3797F09OTpKQkdu3axcyZM8v+U5X4FURBEBgyZIiYT19fX4KDg3Xqo2PHjjFlyhQEQeDo0aPivZKbm0tERIROXSBRNUuWLOHFixdcv36dY8eO6Y1Ty7huXRo3aYyDo6PGQ+DoUEEoVFzXLDs6KsrFQpkYqLhcUSRotzs4Ohj0FoNWGFQWCEsoFARGDBiLoMqi+8obzA2cgCAIzOjWmdObZqIUBPKvb+L8i0x6rYmnKg/CndMhFKgyCY95hKrgGWNC7zFqsuYmHNbDj5ObZtC3QwfyVAKn1kwiXyUwdspyVFlP2Hg1mUGDxnHr6mGi7mYw1lfTEC0fNwLPbv6oBIGsJzdp5+JJoYF/Ut6v+1F3tqRPm4P4d77F9VGD4WBrhByN4h8xYgQqlYqXL19y+fJlJkyYQGJiIunp6eIHpio+IcXGxuLm5oYgaCpKrTdGW/lpOXDgAC9evBA9CN7e3ly+fJmkpCSxodE+mfr5+ZGYmEhiYqL41F+VB2F6RBFDgjXLO+8f5rsFjrTc30MMHz16NE+ePKF79+6kpqaSnp7OuHHjSExM5Pnz5/j6+pKYmMijR490PAjZ2dk6lbEgCGLDM3fuXM6fPy9urygQBEFg+vTpxMXF0bdvX1EgaBv9zMxMUSAIgsDQoUM5e/YseXl5bN26FUHQfNpWW5klJiZy7do1BEEjELSfq62pQJh+eASuKxRMONifkTsH0X1VZ4Zs9NaJU1EgFBYWsnTpUk6ePMmDBw9ITEwUBYBSqSQqKorQ0FDy8vK4fPky169f1/mU64ULFygoKGD8+PFs3675wMu0adMYOHAgp0+f5ty5c3Ts2FGM37lzZ7EcBUEQK2StQMjLyyM7O5u4uLhKHgTtcXNycsQP0OTm5opP179VILSr9YL+Xmq8WkHclcpehKtXr/Ls2TNRIOzevVsnfOzYsRw7dkxsEAVB87nijRs3olQqOX78OImJiRQUFBAaGkpOTg537txh4sSJCIJ+D0JcXBy2trbY2tpy7do1evfuLd5nSqWS0aNHExERQW5uLqdPn2bUqFEIgsbToBUIY8aM4c6dO+zatUu8XydPnlyj60qLtcc9rAOfYLc6B7vVOdguzaT1mPLrwd/fn3v37iEImg8vpaSkcO/ePfGaCgsLE8WJViAIgsDMmTOJi4tj9OjRDB06FEEoF6ZnzpzBxcUFQdB8fE/7uWOtQBAEAWdnZ1GYr169GkHQeDUvX74sdo/2799fzGdAQADBwcGoVComTpxIdHQ08fHx4rWhFQje3t7k5uZWqiMkqqZ///4UFhZy7NixKru4ahl/8QVNfvwRR4WiTCBoRUFFT4J+D8Ls6c7Ex7pirxUHb/1q4zlWIxDS0tKIjo7m9u3b3L9/v7yiepdA8B9IgJ8PGyNvU/gqjcAAf8bMCkKl0goEgV8n/kzgpHUIgkDGgwMMG+7L9CUa0bB23iT8A8eRkVdI3Imt+Pn5ceTGE05umoVKmY/PmGV6BcLyKSMIGOHH5cSscoEwfgIFOU8IXH6UCSMDCAicQIHqFQFzdyOonrLm8A2e3z9KTPLLSueuUgkITbtS4uBAVjsF6h6WKP19KoSrGDNmDD4+Pty9e5d9+/bh6+tLSkoKhw4dIiAggOfPn+Pj40NmZmYlgZCWloa/vz99+vRBEDQu9oCAAAICAigoKGDw4MFs2LCBcePGERgYyNOnT8UbPiIigpEjR/L06VOGDx/OypUrSU9Px8fHp0oPQr81T2gw6jQWEV1psdsT2/29mR8XLIZrhcXjx4/Jycnh8uXLHDx4EB8fH3Jzc7l06RI+Pj5cunSJa9eu4efnV8l9//DhQ4YNG0ZYWBiXLl0iMDCQq1eviuFvC4RTp04REBDA2LFjDRIIubm5+Pv7079/fzIzM/H39yc4OLjSueoTCMOHD0cQBDw8PMQKTl85bYheh90CW8Ye6MfInQPpubYLwWd1j6FPIAiCRhi93b2ibZBUKhUjRoxgxIgRFBQUiOsBAQFiQ6X1OGg/t/v06VP8/f0ZMGAAYWFh+Pn5MXv2bLKzs/Hx8WHDhg2VBMKUKVPE/3Ls2LHMmTMHQdAIhMGDBzNs2DBSUlJ0BMKcOXOYMGECp0+fZs6cORQUFODv749KpcLHx6dSGb0tEFQqgUWTi3H7Ip/b11V0s4ZhXSt7ESZPnsyYMWNITk5mxIgR5OTk4OPjI3p+Ro8ejb+/P5mZmXoFwvTp0xk5ciRKpVJHIOzfvx9fX19ROApCuUAYNmyYuE3rlQgMDBTv2XHjxjFs2DDy8vIICAhgxYoVzJs3T3wAWLduHREREfj7+3Po0CG9AmHJkiUIgkaw3rx58539x3Mi80RxoGVFVLkHrqLA1woEQdA8FIwYMQKlUsny5csZO3Ys27dvF+/36Oho/P39mTt37nsLhPz8fHx9fausQx49eoS/vz9+fn5kZmbqCISCggICAwOZNm2aeN2PGjWKhIQEUSAolUp27twpCtgTJ06Ife4SgnjPFhQUsH37drHLVx+16n75JT82/QmFszOOCoWu16DSb3k3xMQxCnjVAV51wG+YQiMGtJ6EGgqE90HrQfgzkPfkJc9cFvDKYhzpw7ZqBi5+oH1fvHiRkJAQsXH52CiVKvIKlOQV5pNXmE+hshDlBzyf34P09HQ2b96s82T84ctJyctXLxkcMpDFx6eTnZv1wQfTfSy0HoSaplu7di0zZ840eLyGPg9CWFgxoVuKEQSB8B3F7Chbrsj69evFxuRjl8Wf+Yk1KCiIRYsWfXCX/cuXLwkJCdHpSpD4PKlV96uv+LHpTzi5OKNwdtYVAjreBMfybggHB0qfOkOWK2S3pzS9bXl3QkWhUNbl8DEEgoSExJ8b6TVHCYlPS626X33FT82aonB2RuHijKPCUdPdoFCwelhTDkxrgoOjI7+OsRUFg88AW3hgA2lOkN4GXrSh+LETLi5l3QtvYegYBAkJCQkJCYnPA7GLQetBcFQocHRyYrxXS1hsRMrSeiRPskEZ3BoHBwfaOLTjwkpXhHMKuN0SHjvCE0d4rODlNScSY9rrDFK0t7cXBcLq1auJi4uTkJCQkJCQ+Iy4ceNGJWrV/fILmlQQCApnJ5xcXCga+w+Y9RUsqw0htSkNa8h6+yMctU7jpPVzjlmncVhxE9WlNnCvNSQ6QqILydFtmTleofNGg4OjA3WM6nDkyJFP/aVUySSTTDLJJJPsLSstLa1ErbpffEHzn5qwwU1Gjzb2KJydCexoB/6mMLEhzPlSIxI2aUTCuT5nOeSYxTG7l1z2O8L9VdMpvdoa4uzhlgvcdUWd4qwzJsHR0QEjY2NJIEgmmWSSSSbZZ2ilpaUUFBSQkJDA3bt3NQLByMgIf7OvyPBqyI3OP6BwciK9qwUM+gkWmkDE13DkWzjbGCI06yWXrQhrl8cux5dcnbIG7llDtD3EusB1V9QP25SNZSgb2KhwxLhuXUkgSCaZZJJJJtlnaKWlpeTl5ZGQkEBCQoJGINQxqkPzJqaEu/1EL6fWODg6onRvCT3lMPgnWNoQ9jeEyB+IDx7FnmknWdWjmKDOAhvaZhFseQ+uyeGSBRxuC9FtUce1o1sXp7LBjhqBYFRX8iBIJplkkkkm2edoegWCdqrlHk6tcXTUDCgsdLaHTmUiYWBTWPkPxtifJtDjIaP7pDOpXy7zvPJY2iadpebxCEfkcNIMQtrDZWtKT3egl6czjk4KFE4KFE6SB0EyySSTTDLJPlerUiAMltUnw6shp9xNcXBwIK1hH3C2A7dW0K0FjGrMAIuD9HM9z4DuCfzcM5HRHo+Ybn+P2T/GwI4mqLdYUrrRGc5aUbLbnY6uWg+CEwonBcZfSAJBMskkk0wyyT5H0ysQ6n5Rl3bNviXDqyHL25vh6OjIokbdwdoZnOyhvTV0seT+VAd6Wu+nh/MJerWPYqjjeUbJz3KgwzSYa456SUsIbYE6rDXFQV1QOJUJBCcFTi7O1P3yS0kgSCaZZJJJJtlnaPoFwpd1adKkMY5lsyRqUJBt0gd1Sxewd4Q2ttDRmjQfewJsN9Gz1V78WoZy1DkQvC1gnBzmmsMyS97M6Mj+4e5l3QtOKJyccHJ2ou4XX9RYIOSejCDJzZQkN1OEhwlVxsvcuECMV/T8yW8tJ8kkk0wyyST7S5legWD8RV2a/NikfEBhmUjY3qAvBY29KLVop/Em2DuCiy20bw3uLcHDCjwtoGsLGGAB/lYUj3BE5d0TZ2cnURwonJxQvKdA0Db6SW6mpPRtbVC8Z9MH/9ZykkwyySSTTLK/lOkXCMbGNGrSWJxeWVGGg6Mjd/8+jKyGPSmRu6G2aAetXMBWAY4OmjEKbWyhrQ242vCmnTN51v0Y5dRB062gFQnOzu/tQUgb20Ns+NOXjK0y3uMhzmK8V3s3/tZykkwyySSTTLK/lFXxmqMRjRo1Kv8Yk8IRhdab4ODI7f8ZzqO/DyC/iRdFsk6UmndAbdEOtVUb1K1cKLFqQ8bXvXhZ+2d8LDqWf9yp7NPQCicnnFyc3nsMwutjYRReP19tvFf7QxCS7rxPuUgmmWSSSSbZX9r0CoRGjb+hZSs5Xbq406WLO926dqarZye6ennQubM79o4K5ph24+l/+ZL8/waTUrs/j+v040md/jz5+2BS/8uP+P/xxb1VG+zFLz9WFAkO0kRJkkkmmWSSSfYZm/4uhrpf0OTHH1EoyscMODk5lXkRNJ4EewdHbO0c8JZ3ZH3Dvmw36c92kwFMb9QNe1sn7Bze/kS0Lo4KaaplySSTTDKt3b/78FNn4Xez+Pt/joHjpTmPeD62A0mdm/FswQy9cYS7FyjKU5ZvUL8ha4k3SZ1+InWyP8VFakoyk8m/cqX6A6rVqOJOUlzyjjgv9pPkbl2zE6nC3t3F4KB98nd861cf+kSAo84gRy3OLi60adfmvboY3muQ4rRBv7WcJJNMso9oJ3dvF5fVBS848Ej5jtj6rJQ5G6PKdqBk7IwFqMtCFi/ZVkWaElYfrPpNKEPs0fXDvClRVx9Rj2XfOs7CzeX137oVG2qUft+mte913DXbj/AkNY0nqWmUAlDKuJlLxfCiVynMCorgQdIDFi1Z+V7HqGjpMVu5l5ZOaupj5sxdjBqYt/bAb97v2xaycafBcdVFBRy9+fw3H/Np10Y8maUpo9zw9XpilJLkZkphWra4RRnmS1LfzqjVUHh4PgBZo514Om+pnvRv5btExSM3U1RF74j0sQWCkbERjRprBIK9g0MFofCWIHB4WyC8JRQUFcTCWyicFdT98nd6i0ESCJJJ9lmbPoGgzExiy4FI9uwO5XlBCeuWr0UNxJ8NI1EA1EqCI++L6a7uXYeqFJ7fj0H5OoGH2W8oLnjJiUevef7wCkejY9m1O5xiMYVGIJRmX2X7sSiuXInh5N10Lp8IKxMXb/h1/3XuRB/k1IVYQsMPUQps2xlB5KlI4tNesGfXBk6fj0VVU42gLmXdjkie3jpHQbGmmf510TIOnzrHth07KAISr55i/8mzbNi8nSI1rFkbCsCtqP28EbJZvWwJ5y7G1bisg/fojt+6GLqcwsJnHLijacRCN5cLKvWbbBadTCPv6U32njrH3r27edfDqz5Lj9lGTgmoS4sIW7uCYnWZQFCrCAnbx7ETh7n2JIei/JcEhR3i6LGjLFpteGOvNR2BoC5h+7YdHD99ktBTCUApIdt2cPLsGVasWoe6OJeQSy+5H3uIQydjiI0+xrW0whoe8Y3mNfpSeBUyi4xlE1AJpaQNMufpVB+S3JvzevcsktxMeTquL0Wav5nia6tJcjPlsa8nmeF7Kc1J5HH3ZjzqrSArNo3H3X4kZXAHTbolG8n0a8Ijr+akDPAiZ/5AktxMSZ3qS8mt1SR1dSBtmCUvzyWRs9STJA8zUro3+/gC4ZtvvtHjIahKLOjzJDjoCoMKngQHR0esW7f67QKhT9WFIAkEyST749jJ3VvJzM4mMzubl0/vc+CRkkM7t5aFqtlw/AavHp3lRUEx2yLOMHXdOZ5dP0ZOafk+3hRmcD31NXt2hQOwPTKOh7H7UJaoCV61jI2hO9m4LZSkXG1rrhEI6rybXH9RBOoSfgk9R2nBC3Y/KOTp1aO8Ln3DjKVBbAzdyYZtOygoVhO8bQ+PUp9TXKp+bw+CKvs2918qQS2wMELTyK9dtg41oFY+Y2t8Acu2nyzLZirXn+TqCIRS3t+DsHZnZFlZ56Aues3y008BOLh1E6VqWBcSUR5ZrWLithvkJF7iyMV40nPya3y89JitPHqZzcvMDLauXYVQJhBSL4TyshRAzer1e0g4tZOiUk1Zzv+NAkGZ9ZQbOZoG/9LuFeQ/jibhleZiCd+ymwEJ8gAAIABJREFUURQISZePlgnGUjYcuVnDI5aQ5GaKsrAU5fXTPO5kSl5ugaZt6mdDSj8bCtNUlTwIAGplJjlbp/Ookynpp5+JHgS1KpMkt8aogSy/FhqBEPAjj1ce1qSr4EHI9G5Ckpc5Kf1seDxqEandG/HyugDpH9uDYGSEsbExX371JfXq1aNeva/4ql496tWrx1f1vuKrr77S/FZcrrhNG68MTTpN+npff029r+thXLfue021XLHhT+7RwqB4kkCQTLLP2/R5EC4e2aF5WlXnsedyMuoSFaHHjxKfU0Ly8TUE7TikuxN1KSu37uNgfCYA5/aFsWbTEdRA+JaQskillDfn5QIhLr2kTCCcBdRsXLiYTXvOgFrN3OWahqe0tFjTgANFQgE7Y5JIjjuCqrjmAmHpgmXce5jIvYeJRO1eTU4JrFywnGI15KclEJNdSlDwDgDepJ4jMaeIdas3owZO7VlPKXBg01rep3Ojogch/uxuMR/x12O5kaXk+qlwMstc2Gl3orhXUEpJaSlqdSnPY7aRXVrFjqswrQcBIPtyKC+K1MxbewBVylkSsotRq0tYvjOKlJvHySsqBbXArFW/TSCUFGay+1YWAKGrllNS8JCjZR6SoOUrKwiEY2UekfcRCPByoiNJXla8WDiCR26m5BUU89jLlLQ5U3gxyZ1StZpkd1OSB3WkqKwMhCMTSRnUjvQFw0hyNyXnvpK8VR4kdZHz8mQij9xMebZwCo86NRIFwpO1kQCo1UUkdzIlZVg33hzsR1JXe7I2zSDzyjNeTrYleVBv0ie0+bgCwbiusaYBNzbG2NgYrWAw0q4bG2FkZKT5NTbCqCxMXDeqEP52PKPyZZMGJhw9erRGGX7kJdNp/EuFyn2VRc+f6MRJXxj4QQpLMskk+zj26Ha8uKx+k8/9nCKglBtXLxFz84HYEF67clGzrFZy9/mrSvtJu3eDN2WRS/NfkJiteT5UlwjExl4gNv5BhUa1lMv301ELL3iRXwrqUmISUjTxC56Q+kqlWS7KJ+r8eeIepqIGEuKucur8JZTFpZQWqzgTFY1Qg5Za/SaXWy8rdiKXcO/ZK65dusaNqxe5cqcsD0UFRF+4QHxyBgCFr55xKjqW5KR7qNE0gqcvXDf8wGV27W75AMErNx9UzBlRVzTryfcTiDyxl4grGu/Cm/wszkWf5+rdpzU+Xv7Tm0SejSLyXDS3n2ga7eirmq6hR3dvcib2WpkXppT465e5eCuZZWt21fg4V89HaY5z9v9n783DmyrXvf/8ztGz33Odc37vdGjmqUOSDrSUGYTtsAd1awuOOG51o+CMiIjKDBsFB1AURWSWeZBJQJBBEERlhiZpm85T0ibpmDlrre/7x0pWk2alTaGYpj7PdX2ulmZlZSWr+nx63/dzPyfQSAP2mhIc/fEMGgM3p6a0AEd/OoddG78GQ3twsdoBe40pUIfB4HyxuduvCTBwntkN+5bP0frjcVYgnWY07fgCzUcPg2EAusmExi1fgAs00W60HdsK++bP4TCWBn5IoWX3CjjKW+Ev/wWN33wN58Ev0fzTBTgPLEPz2RLuFf1lZ9C4bQ0AwHV6Jxq3rYK32Q34W9G0czlcxWdg39S9epZog1cQUlKVSElRICkwwQdFoSNBKRCKhEgSCiESi9nvk5IgFAkhFImQJAyIhVDICUaSMPi1+xEE28qFYZN//Udvhj3OUBTKxg0OO8Z15ece+bDIIIMMMn5P45fvd/9mr0U7GnDo50u4+OsxbL9g7fHzb95/AoVFeizb9VOPn7uvDv69GITCsAhCqBAkJfVrjyIE4Cb84OQfQCQSol9SP4jEYoglEggDkiASidCvX9I1dVKknW1hk39JnhZl4waj6tUxqHrpXpTclxXxOBlkkEEGGWSQ0b0RtUiRL8XAikC/wETfnkrgUhLCoEC0i0O/pH4REYfg16Rr7IPQemxXhATwkp8OX8P1L2UhgwwyyCCDjN/b6EQQQlIBSeFpBiEnD/04YWBTCkJOCsIiDKFRiJB6hutplOQpL0TJ2MyoclD2yJAe/qjIIIMMMsgg4/czoghCaKpAGCYGQUIFISmQkhAK2WP+4/Yn8P8vOAX5qx8jSRQ4PkrK4no6KTIMA5f+PKwr34N50WswL3oNjVs+h6fi99ORjAwyyCCDDDJuxIi6m2PHOoOOkYCI6EJAAv7jL+MhmP49/jDnR2j2tkGztw2KiYuQJBJzEYT2VQ6k1TIZZJBBBhlk9MYRdS8GoUgEoUgMoVjMfhWJIRKztBcqhgpCEv7w8GwI3vkegncO4w+zTiJtTxtHysbqkBRDP+4rEQQyyCCDDDLI6H2DVxDSM1KQkZmG/v21yOqvQVaWFrr0VGh1KdBokyFXyLiIQTC6cPPfP4LgrUMcf5hxAmm72jhSv2nlIg6hSyeJIJBBBhlkkEFG7xu8giCSSiGWyiCSSiGWySCWsvzh+WUQLCnA/829DSKJBCKJGCKJFP86cRUEb34XwkH8x4vrkLqzjSNlR2ugFqG9BwIRBDLIIIMMMsjonYNXEKQKBTQqOX65R4l70uUQy2QQSSQQfFTA8e9Pvw+hRIp/eWkjBFMPhnAA/6v/KIiH34nUHa0cKdtbuFREv5CVEEQQyCCDDDLIIKP3Df5GSWIxXhggRf2DKpy4SwmxRAqRVIL/+tOTEHxwtZ33LkDwyl4IXv8Wgin78S/Pr8d/SxRIEokgHvZXpGxrbWdrCxc9aO+RQASBDDLIIIMMMnrjiLJZUxKSkoR4PVcCuUiIpKR2/mf6UAgWXQnn5b246ZEPEHxev6QkiIb8BSlbWjmSt7RwvQ9CV0gQQSCDDDLIIIOM3jd4BSE1VQmNVo0Jw1IwKEeH7P4aZGWmIiMjBSkDh0Dw0i4IFl6GYOEVlvcu478em4+BAzOQk6NF/6w0pN6eh+TNre1sakH/LC0yM1ORna1BVlYqsjJSMOufC7BhxzdYt3Ub1m0hEAgEQm9n/dbt2Lbzm7iwecfOuL//HmXrtrh9ltt2fhPlmrZjw85vUFZVxZ9imJjDphiO3aWESCqFSCLB/879EwST9kDwym4IXtgFwYJLECy4zPGvU/YgSaaEUCyGZNhdSN7YwqHe2Ny+bDJk6eSHny/H8fOXcOzcRQKBQCAkACfOX8IlgzEu/HKlIO7vvyc5fu5i3D7LSwZj1Ov64fxlmG2NPIIgEiNNJkL9gyo8lCGBSCKBUCRmxSDAzQ/+E0liMQSzf4Hgn5famX8R/52SCfHQO5G8oYVDvSEgCCIRRGIJu9OjSIRl6zbgUmUtLhIIBAIhIbhSVQdzY1NcKKu3xv399zRme3w+S3NjU9RrulRZC1urI3oNQr+kYItktq7gpgffheClb/BfA+7kagn+WyjGv7zxHQTzLrYz9yL+c/xKqNe3cKjWN3N1DP2S2s+5fOMWFJitBAKBQEgQCuttsDtdcaGmqSXu778n0Zutcfss7U5Xp9dmd7giBSEtTYWMjFQMGJCO/tkaZGamQqNVIzlFAXWyAlpdCtI0aqSmKZGZkYr09FTcNGkvBHMusMy+gD/MvgLV2pYQmpGRqUFWlgZZ/TXIyExF/2wtvty8FXqLjUAgEAgJQmGDHY0ud1yoaW6N+/vvaRqd8fksG13uLq6LRxD6BRoZCUWiQMdEUWAFgjAkCtD+735ClpufWQHBrAsQzDqPf5t5Gao1zRzKFZZAakHMfg20bV6+cUvcbw6BQCAQYocIQs/SmwXB6XTiypUrKCoqYgXhvwMbKbWLQIDAz9uXKwaEISARSUIh/sf98yCYfg7/NuMSVKuboVrdDOkr6yGUyrnCxNC9HYggEAgEQmJBBKFn6c2CQNN0GILQfgYdCd/NUYikJFH7vgxC9jn/455p+PeZFyF9Yxf+O6m9nqFfSP0BSxIRBAKBQEgwiCD0LNcjCOamZpSbLTBV18JUXYOyOjNq7U03ThCC4X92R8d2kkQiiCUSyBVy6NLV6J+VitzcdAzMTceQwf0xcGAWcgdkIDcnHZmZadDo1NClpyA9MxUabQoyMzUYPLg/hgzNwcCBmRg6NBsrSA0CgUAgJBREEHqWaxGEz1atwXOvTMLj4yfgiecm4skJz+PJCc/jiecm4vHxE/DMiy9j0dLPel4QuBSDMLiKoR9PJEEY8lUYtkIhLNLAE4XoF5KaIBEEAoFASCyIIPQssQqC3enCVxs24vFnJ+CpiS9i/MuTMPG1KXhhypt48Y1pePGNaXhhypuY+NoUPPvKa3j6+Zfw+LMTsfCTpbA0t/SMIPQLCoFQiKRgoSJvukHIA58Q8KUp2OOJIBAIBEJiQQShZ4lVEB4f/xyefuElTHhtCl6e9jZee2cmXp85B1NmzcUbAabMmovXZ87B5Omz8PK0tzFx8ht45sWX8fizE3pIEIRJSBIJoVDIkJKiRGqqGkKhEB3rELgoQxRRSBKKWMngIhFCiMRiJCerkZGhwYCcDJJiIBAIhASDCELP0pUgNLS24R8vvYLxr0zCS2++jckzZrNSMHseps6Zz8sbs+fhjVlzMXnGbLw87R089+pkPDXxBRgrKnsixRCZVghusMT/WMhKh36BHRv5ns89nkQiCAQCgZCAEEHoWToThIZWB559ZRKem/Q6Xn1rOqbMmoupc6KLQSTzMGXWXEx6ZyYmTp6CJye8gGpr+/3r/Lp4VzH06yAFfJLQ8WdJnBhwOzYKo8lFv7BOivG+OQQCgUCIHSIIPUtngjDr3YWYMGkyJr0zE2/M7q4chEYU5uK16bMwcfIbeOXNt65dEII9DVgCE7yQJVrhYVLIV5FYDLFECpFYzC197MctjUwK651ABIFAIBASCyIIPUs0QTCUVWD8y5Pw6lvTA3IQPunPXPQhjpy/FHG+S1V1WLtrL68kTHpnJp6bNBmnzl24xghC1NUHoRGF8EhCUhjt3RbDhaJfyM9IkSKBQCAkIkQQepZogjB74ft4aepbmDJzTsRkv2jZcugtNhy9cAVvzv1n2GMfrViNyzUWnC2tjHjelFlz8cq0d/DMiy/fCEEIl4WOx/HJQWcrIIggEAgEQmJBBKFniSYIz706GZOnz4ooRlzwyWfQW2z4aMWqTtMKpwzFOKUviqhJmDxjNiZOfgP60rIuros3xRC+8oBNE/B3VuyXlITRaf8H9a8JsGnMzeErGYQdOye2/1wilUImV2D5JiIIBAKBkEgQQehZ+AShqLIKL06dFihKDJ/4z5VVYf2e/Zg6Zz7W7d6HLzdvjyoJeosNC5ctD081zJqLl6e9je3fHujiuqK0Wg5riyyMEkEQssetuOtmtLwhQPUkAe+Sx46NlbhlkKRIkUAgEBIOIgg9C58gfL5mHSa9PSMiejD7/cUoMFvDBEBvsUUVhGXrN0U8/sbseZg8fRbmvv9RF9fFm2IQhvcvEArZAsWOohAQhIv/HI7mmf8HloXJGJiTHaUvQmQUQSSREEEgEAiEBIMIQs/CJwjT5s7H5OmzIib8TQcO4eiFKxGC8Oa8BbyCMHPRh9BbIgXi9Zlz8Mq0d7q4Lr4Ug0jE7s4Yst1zuyQEv7I/S9Vq8dPZC7ikL8TPFy7jnTn/DEQeonRaFLZHEMgyRwKBQEg8iCD0LHyCwHZJnB0xsR+9cBl7Tpzm/v392Yu4VG3utBZBb4kUhCmz5uLFKW92cV08gpCaooJOmwyZXAqxmN2aOSgLwtCvIiEmvPQKzl66gosFhTh7uQBrN2/nJCIYYeiYXggKRD8hEQQCgUBINIgg9Cx8gjBn0Ye8qxe2f38MR85f4v49bd4CXKmtx8mCQi5isHLbN9zjMxZ+AL0lUhDemDUXU2fN7eK6eAQhXaNCukYFXZoS2jQFUlPkSEmWQ6GUQCwRISVZBXWyEnKFDCtXLMf5ywW4bCjCuSt67D54GGnJqrD0REf6BfsrEEEgEAiEhIMIQs/CJwhb9uzjFYR3ly7DlRpL2M+mzVuAM0WlKDBbcaW2HnqLDRcqajB1znx8vGot9BZ+QVjy5VddXBePIAzsn4ZhAzMwfHAWhg/JwpCB6Rg6KBNDBmVAqZQiXafCkEGZGD4wC+efFsD2lgAtb/4rHPMEKJ8owNOZ/xmyRXSoHCRxX4OPE0EgEAiExIIIQs/CJwj1La28KYapc+bjSm09Pli+MuLnH325Er+YyvFLSXlYemHpmvW8KYYjp890cV08giCXS6HTKJGpC6KCTqOEJlWBtFQ50lLlSE1V4B7N/4JhggC2NwVomSKAY64AdZME2Hq7AOpAlEGpUkCpVEChlEMqk0ImlwXkQEwEgUAgEBIQIgg9S7Q+CK/xFClOnTMfv5ZU4IuNWzqtO5g6Zz4OnjmLc2VVvI+9PnMOqhqsXVwXjyCIxWKIxCJIpWLIFTLI5FKkJMuRkiJHWqoCKSkypCTLsfkOAYqfF8D2ugDNUwRomy1AwxsCHLlHgP66FOi0KcjO0qF/VjoyMzRQq5XIzNAiJzsTw4fmIjtLR3ZzJBAIhASDCELPEk0Q1mzZxrtjo97CNknadfwkNn57MKKT4oKly3CurArny6sxjWd1wxuz52HanPlodF1DJ0WJVAKpVAKpTAqpTAaJVAKJVAKxhEUiEUGhkOHrtStR9KYU9VP+HU1Tb0bLnD+gftb/xN7Zj+Mvd/0NEpkcYpkMIqm0HbGEix6IRGISQSAQCIQEI56CYG51xP399ySGelun77fj7o2Lv1oNvcWGS9VmHL9cgPPl1RHnvFrXgG9PnYkaWZgyay53/s6ujVcQFAo5cjJzMTDrNuSkj8aAzBHIzhyMoYOGYEB2NtLSUjBq9B+xY/c+nDh9Bj+dPY+zl67i14tX8MPpX7B5xy68+vpUSGQyThLE0nYkUhmUKhXS00kEgUAgEBKNwnoiCD2FwdK5IHz3w8mwKMK8xZ9g+nvvh/c6WPgB3v/8S3y0YhXmL1kaEVEIZx4+XbUGjS437M5rEASdJg0PPfQQxj08LsAjeOC+cci78wG8cu9oVE8UYPkbT2DP/oP44dQZ/Pjzrzhz7iLOnLuIYz/+hO279uL9JUux/zYBjo75V4glEogkEoilUoilMigUSmToMpCRnk4iCAQCgZBgGOMoCJY+JgixfJYffv4lrnWb545yMHPh+9x5GxzOTq+NVxBuGz0K48Y90i4I4x7mvi9+479Q8rQAO//6b9j77bc4ceo0Tpz+GWfOnseZsxdw/MfT2P7NbmwbPwzrhgpw9UEBBuUOQv/MLGi1WqjUyZDJFZDI5JBI5UQQCAQCIcGIpyA0tHU+qSUasX6W8xd/ct2CMG3eAtgczusThCEDsnDLoDtwx4j7cNetD+Lev4zD2L+Nw/35j6BxhgCF/xDg+78JcPUJAcpfvhllU1NRMTcX1fMzUT/jf6N8ggDH7hZg5WABDI8K8O4TQ3HP3WPxl9vuwehhf8GQAaMxqP9IDM0dhRWbt8X9BhEIBAIhduIpCFaHK+7vvyfpTrpm9ZZt1xxJ+GDZ8ojz1bd1Ho3hFYTBgwZAp0lDhk6D7MwM5GblYGD/gZhwZyZaFwjQPEuA8w8IoH9CgMqJAlQ/I4BlogC2VwSwviZA9QQBzt4nQN1kAVrfE8Dw/v/Fww8/jIcfDkYiHsbDgYjEyq074n6DCAQCgRA7XRXW3UhsXeTNEw2TtbFb7/9qSSnmvP9RzGIw/d2FOHX+Iu+5uqrn4BUEkUQCsYStF5DI5ZApFFAoVdg/9T/h+UwAz6cCuOYJ4J4rQNvrAtifF8A6QYCmVwVwzhTA974A7gUCeL9g8W8Q4O7R43DPnx/Bffc8gofuHxeQhUeIIBAIBEKCEU9BaHT1LUEotzdf02dQ1WDF8q83RhWDj5avQHF1TafnqGlp6/TaeAVBKBJDLJVCIpNDKg+gkMO77f8DvVUAZpsA9EYB/IsF8C8RwP8xC/WxAP5PAqwSgNklALNHAOaAACMHaZGamg1NWi6GDh6Fe+++B2Py8rFy6/a43yACgUAgxE5Xlfc3lD4WQahpbo3aB+FGU9XUeU8J/j4IMhmkCgVkCgWkCjkXRVj/55uxJ/8mfDv2Jhy47yYcvP9mfPfATTj84M04/NDNOPTQTTj00E04/NBNOPzwzTj88E049OBNOHD/TchNVUCpToEqORW5uQORf+/dePD+MUQQCAQCIQGxO11xk4TCenvc339PUd/mjNvnWNHY0um18acYxGIo1Cook9WQq5SQKdtRqFWQq1RQqFRITkmBUq2GRqdBWloqZAoV5Eo1ZAoVi5JFrlRDrlRDoUqGUp2C7Oxs/On2PyLv3ruwcgsRBAKBQEg04iYITjdKbU1xf/89RbyiB40uN0rtzV1cG28EQYqUtFSoktVQqlnkSiUUKlYaVGo1lGpWEFRqNdLTtUhNS4U8IAZSuZL7npMElZoThcyMTIwaMQJ3/vl2fEUEgUAgEBIOWxwjCHXNnefOE4l4fYaNTjeKrY2dXxufICjVamRkpEOr1SA1LRUpqamsDCS3i4FSpUJySjLUyWpodRoolawYBAmVg2AUQaZQQaFKRrouHcOHDMXtt47GV2SZI4FAICQcVkf8QuNdrd9PFOLZkbLR6UZhQ+epGv5ljlm3YcigQeifmQ6dTgOtNg1pmlSkpKYgNS0V6pRkJKckI02TiuTUZGSka6FUKSGRK9olQcFKglShZCVB0S4KGm06hg0egltHjSKCQCAQCAlIQxwFwe7sG70QKhpb4icILjeMXVwfryA8Mu4RjB45CoMGZCMrIx1ZGTpotWlITUuFVquBRpMGdUoyUtNSkJqWgswMLRRKVhCCkiDhREEFmUINmVINmUINuSoZaRodhg4aglEjR5JGSQQCgZCAmFsc8Z3c+kChoqU1vp9hV9fHKwjjHnwMwwcPw+DcHORkZSA3OxNZGenQaNKg02mh1aYhJSUZ6elapKdr0L9/OhQqVUAMFKwcKFg54JArIQvUIGi1GRgycDBGjSCCQCAQCIlIdXNrXCe3rirwE4F4rgS5ZkEYPnAoBmZnIzc7KyAIWUjX6aDRpCFdp0VqWgpSUpORrtNCnayGRpvGLokMiRxI5OGCIAtEEuRKNoIwKHcgbhk+nAgCgUAgJCCltqa4Tm5d7UTY24lnu+pGV2wdKXkFYeSQXGTodMjOykBmug5Z6enQaTVI06RBp9ME6hGSkZmZwW3dLA9JMUi41EJADrilj2rIlMlISdUgN2cARg4b9vsRhNIyFJit138esxVFZ8/A8Gs7xovneubcBAKBECNxbZYUwNALPodrpT7O6YXaGFaC8ArCqGEDkZamQVpaGlLT0qDRBL5PTcHw4cPxww8/oKCgAEajEQaDIQyj0Rj4uRHnz5/HjJmzwiIIMmUy1MmpGPB7EoSqWjQ8Ngj62vrrP5fZCuv96SjJ03JUjr+DCAKBQPjNibcgdNUJsDcT7/RCUUPnSxz1liiC8KdbhyMlJRXJKalITk5Bcgq71FGlVsNut8NiscBisaC+vj6MhoYGDqvVyvHSSy+HFCsmQ52chgE5ORg+ZGjfFwSzFUVrP4FpTAYMF872yPmIIBAIhN6APY5NfhpdibuaId7pmUZXbOkZXkG4L/+vUKuToVQlQ6VmUaqTMXDw4KhC0FEKrFYrbDYbbDYbtm/fHpJqUEOVnIrs/v0xbNDg34UglORpUJKnRemk+6G/3omcCAKBQOglWNriGyZvdCVmV8V4f2axihWvINx+ywAMG5yFwbnpGNBfC4VKDaVKjeEjRqC+vh5lZWUwmUxRKSkp4bDZbDh06DC35FGqULGCkNUfQwcN6tuCYLbCuG0VSvLZibxijA56k+n6JnMiCARCn8PS6kCTywNrmxOG+vhfT6xUNcV3JUOjyw1bgkURekP0oKEttkZTUQQhB3eMGoDbR2bjT6NzoQgsTxw+YgQaGhpQU1MTleqaWry2rBWzVtajtrYWdrsdR44cgSSwzFGqULH7MWT1x+Dc3D4uCA2oemQQF0EoydPCNHvi9UURiCAQCH2G+jYnGIZB6GAAmFsdcb+2WDBZG+M+2TW63CjvYk+B3kQ8W1QHqYmxVTWvINw6Mge33zIAd4wagDtG5XCbLw0bMSJqGiHICx+3YvjEKuQ8VYoHp5xGY2Mjjhw5ComsfXWDUp2MzPRMDBrQdwWhoK4BhqMHUJKvC5vMS8ekQ19jufZzE0EgEBKeyqZWMAyDDm7QLgkMg7IEmfTiPdkFSYQVDbXNbXH/nBpdbpissaVl+FcxDM/GbbcMxB1/HIQ7RudCJldCplBygtBRCux2O+x2O6Z92YrRL9ci56lSpN13AkvWF6CxsRFHjx6FWCqDRMb2SlCokpGentGnBUFvsaHy0cFhE3lJnhamPC2Kvnj32qMIRBAIhISl3N4MH0XxW0GYIAAePxX3642FeE92QWINm8eL4l4SbWl0xd4/glcQ1Go1kpOTcW//FPzllgGBroisIHSUArvdDqvNjueXtGHUSzXIeaoUqWOO4uOv9WhqakJTUxOOHj0KoUQKkUQKiVwBpToZ6boM5Gbn9FlBMB75NiJ6wE3o+Vroa68xikAEgUBIOIqtjfD6uxaDjlGEeF93LMR7P4FQemtqpjf0jAhi7cZGV7yCMHrULfjg/ltR/6AKp8ekQKZQQqpQYNiIEbDb7RErF178uAVDn6tk5SD/e6zdXcRFGpqbm3Hs2DGIpVKIZTJI5ArIlSqkp2dgQF8VBLMVFRPv4pWDkjwtTPk6GLevubZJnQgCgZAwGCw2ePz+iDqD2AQBcb/+WN9jY5yXO4bSG3sjxLvnQSjdaVHNKwiDBg3CfX8chsKxKsz4cyYkMhnEUhmGDBsGu92OmpoaVFVVobKyCq9+2ojRgchB2tgfsGT9VVRXV3M0Nzfj+PHjEEokXARBrlJDp01HTnZ23xMEsxX6QiNKo8hBkLKHcq/5/EQQCITej93pRmdawNYghJOIgqAHZh8QAAAgAElEQVS3xHfrZz5qmnuHJBjr7b1KDhpd3dvkir/V8i3DMXr0CNw2eihGjxgIqUwGsUSCIcOGorGxEaWlpSgqKsK2vSaMfKEaOU+VIiXvMD5YdQ5FRUVhtLS0sIIgZgVBKldCrlRBp8tATv9srNi8Ne43sScpqGuA6clRMHUQguK/jw77WWmeFoYfj3V/YieCQCD0aupa2rpMHTAMA4amQbfY4T71LagmKxiaDpOERBKE3pRmCGKJc7qhsCG+ey3w0d0lobyCkJWThQG5ORgyeABGjciFTCaDSCLGkGFD0dTUhPLyclSVFcJffhIHvj2LtLHHsHTd2bD+B6WlpSgtLUVrayuO//ADRFIpRFIpJHIl5CoVdLp0ZGf1PUHQ6wtQOqbDBP7kCOhLSlHW4ee1/7gV+rqG7p2fCAKB0CupbGwBRdNRVyZwckBToP1+uLZ8AspaB++VM3B+OQv+yiLQNJ2QgqC39J4ce8cJsdjadUvhnqa2pS3uXSb5KO/mDpi8gvDHUUNw6x+HIXdgDkaPzIVULoNQIsGQoawgWCwW+KrPgqk8CX/5Cew/dB51dXUwm80RtLa24sSJExg6bDBUajUbQVCpodHokJWRhS/7kCAUmK0omfJwRPTAsGcTCuoaUP7MrTDdqwmLIugvX+ze63RTEArMVjbtwUeH80Z93GxFQV0D+7O6BujrGqILidna/prdeE/dfg6B0EsosTXB66diSifQNA33d5vgu3oGVH01nFs/46IHzm2fJmwEQW9hJ8V4T4DRsLQ5UNgQe2j9Wim3N/e6lALHNex+yb/MceRAjB41CAMHZmDokP7Izk5H//7puOOO29Dc3IympiYc3Pw5XA2laGlpQUtLC1pbW8Noa2vj+PHHkxg0eCAUKlUggqCGVpeOzD4mCPpaCyrHhBQj3quBeWw6N/EZ920Jl4d7NSh+Kb97r9EdQTBboT96AMYtKyIo3L0h/FijEcbNIcdsXgF9YREKzFYY925GeZ4GdWN1qB2rQ3m+FsUfTuO/vhozCndtgP7ShdjfU1k5Cretgr6khEgCIaHwdLEyITSd4K+rgOub5QAA59r34DdXgqFpgGHAMDQcWxNbEIz1vTOKEDpB2p1umG5ARKG39DfojFibI4XCKwi3jByAUbfkYtiQLIweOQAKhQLJyWqMGDkCLS0tKDLqYxIDh8MBh8OBw4cPQyiWQCiWQCJXQqFSQ6tNR7ouA19u6iOCYLbCNP0ZlIRECErytCjcvrp90jNbUTk2I7xYMV8LfVl5t14nJkEwW1G04XN2qWVHHh8GfXVd2LHGw/vCj8nTQX/6OCpeuod/JUaeFnXP/Sl8h0qjARVjMmDKY89RMXdilykU46HdKBuTDlOeDmVj0lG4ZUX87yWB0AkGiw0tbk+nKxNCCw+ptmY4N34EurURnmM74TnzHRiaCitM7AuCoLfYUN/au4oVo2F3sn0Tqptau52CMNbbUW5vRl1LG2yOXhot4OFaGknxL3McOQC3jhqAkcP7Y/TIHIjEEgjFYqiTU7qUglAxCLJy5UoIRWIIxRKIpXIoVGqkpmmg1aX3HUGoMUfUGJSOyYiYiAu/XhY54c57AQWxbgUdiyCYrTCtWcLbh6H8uT/zpheMh/eFC8C9WpSOzYxIl4SlTo4fbH9dsxXF7zwTdnz5mPRO+z0UmK0ofSA7/LwP5sT/XhIIUbC0OTpNJSC0ANHjgmvbZ/BXl8BfUQjXho/AUH4wDM2zgqFvCILe0sujCDHKg9XhQkObEw1tTtgDkYd4X9f1UNdybQWb/IJwSzZu/+NAThDY/gVyCCUS/PTTT2hra4tJDJxOJ5xOJ9I06ZDIlYFWy2oo1ClITdNCq+0jgmC2onjx22GToylfB+PityP/sq+qjYgiVIzNiD203oUgFJitMK38AKV8cjDhTujreESERxC6ovyJ4WHXXGC2omjeS9zGVKwgpfO/XshzSh4cEB5R+fuo+N9PAqED1U2toLvoZRA64bsPb4bv0o9s9GD9ItAtdm6VAofXg9Ylr4OhqD4lCIkQbv89Yb+G2oMgUQQhB38cmYNhg9NZQZCyfRBYSZAiJS0NAwcNxrDhwzFsxAgMGz6C/TpiBIaNGIlhI0Zi4OChyM4dCKFUDqlCDZkyGVKlmhOElDQtNFpd3xCE6jpU5neYQPO1bGFfx2PNVhS99XTEX+aFn86JTRI6EYQCsxUly+by/tVf9uaj0cP9nQiCKU+L0keHouTDN1G0ZAZKn/0zysboYDj5feT11jWg4u+3oHyMDuVjdCjasqLz92S2Qm80ovy+TFSM0aE0XwfDTyfifz8JhACltib4KLrzqEGIHPhMl+Hatwa01wP30e3w6X/pIAY0aL8PnlP74T17FN5LP/Y5QdBbEj+K0JeobOreyoWw+8gnCLeNHoBbb8nByOH9MWpENicIokC7ZJGE7YooUyoDqALtmFWQKtQhJEMS+NqOGqrkVKRpdUjVaBNfEMxWFK79JDx6kKdFyaIpnU6OZR2Eovb+TBSEpiM6eT0+QdCbrSj+YGoUOXi8y4maTxBMeVqUvjqGW73ACc+Vy52eS19r5l8p0dlzyiu79xwC4QZirLezHRBjjBjQbifals8E7fPAd+U03AfWR6YRaBo+0xW49qwCHVzR8MPuPikIJmv8tzQmuGF3XN9W2PyCMIoVhBFDMzFqRH9WCkIFQSqFWMoKQnCfBmlgp0aZko0WyJTJUSRBDaW6bwlCx74HFfk66IuKoj6noK4B5ZPuC5+Q83Uw7tsS0+tFCMKzf4Lp3UmRcpCvhWn+S133SOCrQcjTovyhAbwpgq7Od60tpON+LwkEiw1tHh87QXcpBmxkwLl8Bqi6clA2M5xfLwLj84TVGdCUH1RDDRzLZ4D2usFQFOhmO5zrFoLx+/pcDUKQ+jZH3CfI3zvXu7STvw/CyP4YNTwLI4ZmYdSI/mz0oGMUQSoNEwSZQt0uBwERYCWhXRCCj6lT0pCm0SEt0QXBbIVx26qIYkDTs3/ucpI0nDoeMaGXPZgT02TeURA6rpzgroOvBiLa++gYQcjXoWjGs91r5KQvgOHSeRguBjnX9cQfdjxL3O8r4XeJ1eHqcs8ErgCRpuE5tR+eM4dAN1nh2rEMlLkiEA1o73lAtzXDuf0z+KtMoCkKVIsd7h1fgKprP5Y9b98TBL2ld+1B8Huj6jpSC0F4BWHEEB1GDNFhcK4mIAhSiAJ7KbB7KgTaJiuUkMgVAUFgowfB9EJQDoJRA04QlMlQqlOQqtEhJU2T8IJQ+dCAiIm5aPbzKHrvtc5ZOBllHSf0fB0MRw92PqnzCQJPaqD4iwXhSxC7eB98glC4uYsaghCu1jWgeNIDkasYaszRn1fXgIr7+0dcf9zvK+F3RU1za8w1BgxNw1daAOeWT8BQFNx7V8Kn/zW8zoCmQdMU3Ac3wnv+OPszioJr/zr4jGd592Doq4JQ1NB7tjj+PdFTW19HEQQthg/WYnCuFrcMy+IiB+1yIIFY2i4IkpD0Qsc6BIlcDYmiHak8sIpBo0NKagILQl0DjCcOd7kpU2eTeMTP79Wg/Nk/XbcglOTrYDxxOPZQf5QaBMPRAzGfoyAgCGERESIIhF5Mhb0F/pDWxl2lE2iXA87ty9j2yBdOwP39FtCUP0IOvJdOw31wA2i/DzRNw3fxJNwndgeWODKcMFANNXAseytuNQiWVie8FAU/TcPj99+wXRDL7c1xnzB/b/TUveMVhOGDtRgxRIdBA9Jwy7DMQAQhEEUQB5BIIVMoIZHJIZHJIQ0RBU4OFKoQOUjmhEGZnIaUNC2SE1kQzFaU80xu10v5mHToi4s7bWXcpSDkaVGer4O+qDjmlRG8gnDqWMwRBCIIhETBZG2Ej6I63TMhLJ1A+eH+di18xnPw11XAuXUpGJ83Qgyohlo41ywA7WwDTVHwmyvh3P4Z6NBjaRq0oxXOXV/CX1cBz8XffhVDRWMLaIaJiJowDNDi9tyQ16xtaetVW0L3VexOFwq7sVtjV0QVhGGDNBiYk4ZbhmWxGy0FBSEYQZBIIZHJIQ7IgVQeiCYolCFyoIJUqYY4KAlyFrkqGcmpGiiTUxJWEAzHDva4HAQjC6Ynbok+MUcRBFPHOoh7Nah8ODe2NENPCILZyiMIOiIIhF6F29f5yoTQqAHNMPCcOQTPiT1gaBpty2eAamyIWJnAMAwcK2aDstZx/277ZCoouyV8pQPDwLVrBXyGX8HQ7L8dq+YHnnPjBaGw3g6qi4gJAJTbm2/IZ9/QlhhdFhOZnt6YilcQhg3SYOTQdOTmsBEErjBRLIFEJodIHCIIUhkrBjI5JDIFl3KQyJUQBwj+WyRXQiRTQq5OgSolLWEFoaCuARUT74yY2MquEVOHIsPyfB30JhP/6/MIQmmeFsZNy3mbI1U8f3fXhYY9JQhTHokUhOraTj/Hyvuzwl93TEbc7y+h79HodLOTbgxiwNA0/NUmuPauBu1ywH10B7y/HGYn8g7NjjxHd8B77lh7pOHwFnjPn+Am/eBx3is/wX3ga9B+H5uGuHAC7oMbQo65cYJgrLejzePt8v0Hh8Pru2H3wZpArYkTjRshdryCMHSgJpBi0GDk0IywtEIwkiCWylgpkMqRntUfg4YMRU7uIChUaoilcohlCojlCohlygDs9yIZKwuqlFQo1MmJJwhmKwqKiyNqD6rvy2TbCne2e2IUSmeOj4wmfDyDf2LnEYSKZ9lGScY1n/BGJIoWv8PftCnknD0hCEWzJ4at6CjN10JfUhr9eZU1qBjTQWqeGBn/e0zoM9S2tHW5MgGhf+W7nXBu+wyUvR7+KhMcmxaDDtk3Ibhds7+2FM6NH3E/81cUwrnl44joAt3SCOfKeaAdLexyx8YGNg3h94MOyAZ7CT0vCAaLDbaAGHVn0AxzQ+9Jg4NEEhJBDvSWaBGEgRqMGKzFoAEajBiSEZZaEAZFQSrFrt274XQ6w3+5aBplZeUYfssoiKTydlmQKbjvpQoVlMkpkKsSTxAKautR/o/bIxojFX4659rW/1tsMFw8h5L88Em/PF/HPzlHa5RksUFf14CS2RN4Uhc6GPdv77SuoScEwfj1ZxGfS/GsCVHPYTh2MGKJaMXbf4/7PSYkPpWNLaDorv9eDu1n4D64AT7DeVAtdjhWzwfV0hgWBWBomp3gt34K2tHKRhqsZri2fAy6rSW8PwJNwbVlKfy15aApihWPDR+EpSHCZYBPEK59oja3OLoWo04+k2vZ2Kc7kEhC75cDvSXaKoZAkWJmupoVBHH7EkehWIK/3nU3/H5/l79o27Zvh0SqiJAEqVIFhToFMqUKyxNMEAxXL4fl+0157F4K1yoHektgT4KHciP+8i/86gPeXRo73Yuhth7VjwwKn+zv1aB8bAb0BVf5r6EHBEFvsUFfUR3eIfJeDcrytTD8fIqLlhQEIydl5Sh/oH9YDwdTvg7Gbavifo8JiYvB0vUWzO1iEFh1cPkUPEd3gPZ64Ny6FP7KoogliLSzFa59a+GvLWMjA24nnNs+BWWuDK8zoCi4j++C99xxMDQF2udlxePqz2HHRV5Pz0QQyu3NXa7M6PKzAXpkDX1XmFtJI6XrpewGyoHeEq1IcZAGA7LUSNcpMWJwelgEYeiw4WG/xMesXvzp52ZQDIMPDAdx/8nwX/ITJ09CJJFDJJFBLGW/SuQKyBRse+blm2LoHthLKKhrQOkbj4YvUczXwfTupO41FOp4XrMV+gu/Rv41/XAu9OYO541xN8eOO0uW5AU6PPLtrthDglBgtqJ8/B0R5ynN16J4+tMwnD4O/ZmTKF7+XkSr6ZJ7NajK15KOioTrwkfFuGyRpsF4XHB8Ph20zwvv+RPwHN4S2Z+ApuE7exSeE7u59sie49/Ac2o/zyqGOjjXvMd1T/RXFMK5dSm7YiCKGLRfF48gIHZBMFhs7MqMa9aC8OHxU7/J/aohGztdEz29WiEa/IIwUIMBWSnQaVQYPjg9sN0zC0WF23n+2RYMPd2Mnxt9yD4wE9kHZqLO1RR2zOTX32CjCEFBkCWgIAT+6q0cw5MKKC27/vPXNaCyw1/+pXlaGA/tDpePWATBYoPhx6MRdRKmPC3KnvtLTNs9X1MEwWKD/uoVVPIUS3ZJvg6FuzbG/z4TEpYSW1P0pYuhkz5FwbFmAfxVxfDXlMK19VPQHneEHPirTHBu+5QtLGQY+EsK4N79FfdvDq8HzpXzQDU1gKEZUE1WOFYvAN3W3GnUIPzyIgUBQJc78RnqbXB4fd2a/PkaNXUcN7oOIZRSWzNZAtktOXDD+BvIgd4SRRCG5KYhJ1uD7KxUDB+cyfU/WPLxxxG/SPUeGp+Wu1DhoqIKgtPphESm5CIJEpkCMqUKErk8YQShwGyFacb4iAnX9PZT1xU9CKVwzZKIHH5Fx/bLMQqC3mxF4defRUQlSvJ0ML3zVPjE34OCUGC2ouDMKVR0XJ3QCaX5OhQtnU2iB4TrIlrenYsYUBQ8J/bAe+Yg6GYbXBsXB4oHqfBIQJMVzg0fgmppZNsj19fAuWkxaLcTTLBgkabBuF1w71kJX7mB/Z+n2wnn7hXwV5tikoKwa6RpOLYsjXgOA6CykT/cb3O4Yj5/WCGm3wfPiT1w7V0N156VYXUWoZ/Z9fbx7w6FDXbYSFvmLrG0OX7T/6Z4BSEnOw1Z/XXITE/BkEEZXHFiS0sLAOBQgxdDTzeH4aaYMEHIOTALQ7+bx/3CaXTpXJpBLJVDqmCXRiaKIOhrzCgfmxHxF77eaOy51zBbYbkvPTwvn6eF8YdDYcfEJAgWdrIunfDXiK6NpnwdCreubJ+QezKCEDhfQY0ZZQ8PjCi+DLuOMRmoytfC8POPna+yIBBigE8QuGWLZUa4Ni0GALi2LgVVVxm2bwJD06AZBs51C+GvLOYec6ycB6rZ1i4GDAOaAdzHtsPz6xFuJYL78BZ4r5zhuiV2ZwSjGs7dX/ELDgAfRaGisQUlNnaXxO4OLipiOAvXvjVs1GPFHFANtXBv/wxUYwM6hl+iicmNhPRKiM6NLEaMBq8gZPdPQ0Z/Hd7/oxp/HprBRRCC43WDI0IQyp0Ucg/OQvaBmbB7HMg+MBMDDszifuFnz5kbkAMZxDJZoIeCFMs3JoYgFC+I3C2xYuJfeyx6oLewNQ5F70+NLDB8/q72CbQbghA8Z9njIyIm5/IxOujPnOSKB3tUECw2rhjRcPEcTF++h5IX70XJ2ExWGJ7+I0o+fBOGk0fYRk4kckDoAfgEgaZpeH7YDaq+Bt5zx+E5fSBkB0WG61fgOb0fnh/3ce2RPUd3wvPz9yHHBOoRLp2C+9Bm0G72f5zeSz/Cc3graLer21GD4MRN0zR8JVdBNdtAX2eBId/5GZqGv6oY7j0rQTc2wH1oM3yG4J4Q7HvznNof9trMDeyq2BVBCSKwWB3O3yyl0JGogvDmqDTUP6jCz/nqQB8EcdgvXkldC4rMrSh2+FFrcwAAfJQPTY460N5mFNoKQdHt9Qpbt22DUCQKIORIFEEgEAi9G94IgscN74WT8FUUgmqyhqUTuELCTYvZ1sl+H/xleji3fxYhBnRTAxzr3wflaGV7GNjr4Vy3CLSrLWxXxm5N3IGeCr5SPTzHd3H9Fq53hEVFXA64vv4A/toy+K7+DPehzWHvLXi865sVvGmGeN/PeE/O8cTujE/UIJQoKQYNsjO1+OUeJe7ur4RIJIJIJOJ+cWzvrEaF4jHU3vMOzPfNRoXiMfgbmmA7MAK2vdntfDuEe87ixYtDBEEEoVAIoZAIAoFA6Bn4BIGqKwfd1gLn1k+4dECQtncnsvsm0BRonwdtiyezEz5Ng0HIcZ+/A6q6hIs8OFcF0g5UeAOlbk3gwRbNS14H7XK0T9jXKQih1+M5tBm+Kz+B9rjhWPseGK+bt96Apml4fz0aKQjADe+H0BXGejtsv8OeCbXNbXH/70lviSIIQqEQIlFHRHC72dxX43ubUaF4DM0rD6B68IuoUDwG57FLsH93a7gg7BvM/cINGjSQk4J2koggEAiEHiGqILgccO9ZyU3C7oNfw2c4y/4Pz+OGa+9q+EoLOqQdGHh/OcwtZ6QpCp4fdsP765GIFQC+oovdEgSapuErvgzvz4euSTD4Rui1+43n2LbOzTa4Nn8csScE33Op1mZ4TVcjUhzxqEPgw2RthPV30IHR3NoGY338P+8gvIIQFIJwhNi8eVPEL1eoIFAuM2iPPeIYiqIgkYh5pINEEAgEQs8QTRAYtxPuvava/7I+thMMQ7P7I3y3IXzCp2lQ5io4Vi8A4/OyaYiaUjjXLeLqBYKpAcpmgXPjR2zL5RhrB4IFia5NS7h0x/WMsHRCSyOcm5aAbm2E5/g38J49EpZK6Hh8qDAwNAXn3pUR1xOvOoRoFNXb20WhjyyNtDtdqGvpHRGDjnQiCB0lQQh1siriFzRUEIKRA9pjCztm9apVEItFIQi574kgEAiEniBWQXCuWwjn9s9Be1zhE6zPy/7F3VDDLm90NMP59Yeg7fXtYkBRoL1uuDYtBlVbBpqi4NqyJGZBoGkavoJfQPu9PSMHgety7VkFX2kBfJdPw3NsJ+jAagpeOWAYeH76jusYCYB9H7tWREQQfBQd9/vKh7Hejprm1rhP7tcnBje+E+L1EiXFkMT7175IJMQLLzwf9ktnm7EaFZqnQTs9aP7x77B/dysYyss9XltbC7FYBIlEDIlEBIk4BAkRBAKB0DPEKgh0a1OHqAEFz/db4Sv4NZB2cMG9bzV8xZfCJmGaouA+sgPeCyfYrooUBfeBr9kUQwyCEDyXa9tnYRs1RT2Wh7DHKAqec0fh+XEfKHMlnFuWgvZ6oosBTYOqMsG1fRkYnxfOrz8AE2h8R9M0vIazEQWXTA9vOX0jMFkbYW51wJ4AfRSsDheqm1p7VRqhMzoVBLFY1P5VLIRILIRYIsK77y7o8j8GAHC73ZBKxAE5IIJAIBBuHLEIAoKTZ3AFgf4sPEe2cwLgOfUtPKf3gwmbiP3wVxbBteEjMACbdii5Cs/xnQhdKhicUaPl+mmaBmWtA9VQG1UOgufjrr+hlt3vgQpp0ERRoNua0fbpm2AAtL77HKjWpoh0Anc+mgYDoO3Dl0H7vNz1Onev5F6LrUNoAt1YH3GOEltT3O9trBjq7ahtaYM9mH7oBWkIq8OFMlvvjhREI7ogiMPFQCQWcrIgEYtwyy0jUVVVxftLTtM0Zs2cGYgcsMeLQ6Qg9GsiCYLhu89R9MWncb+OCM6sQ8mDI+J/HQRCHIk1gsDQNPx1FXDvXc12UqRp+EquwP3tOrZbYjDSQNOg7PVw7VgGqrGB/Qu8rgKuvWtAOUJ3b2wXD4amA42VOuT4A+dzbl3KO5GHioX3l8NwH9sBf+lVdoWDzwN/ZRE8J/fCc2wnnFs/BVVbBvfBr+G9cDL8tUKjDAGZcO9aCZ/+17BmTwzDwF9bxp6fq0Og4dy0BAzlD70sNLl6Vx1CrBgsNhQ3NKKisRnmVgdsHWWhJ+Qh5Bx2pxs2hws1zW0otTX9Jnsl3Gii1yB0kIJQuAleIoJYJMS4hx/G3DlzMGnSq8jI0EEsFnKPs4gjxCBIIgmC8avxME14Mj6vv/VplLwym/+x6xAEw4r7YZo6vf1n+sMoydNCb47/500gdIdYBcG18wv4LVXsNswtdjg3fxKxDTPjdcN9ZCt8hnPs5O5shWvfanY3RyZ8uSQnFB4X3Ac3wnf1Z1Yqasq4VAJNsztC+iuLI/L83PNdDjjWvgvKWgdf4QW2aVOLHXSzjV1iGZjgneveg3PtQvZ6oxQh0jQFf7kBrh3LwtIkHSMLvitnuOthaAptn0/nTZfE+972NEUNjSi1NaGqqQV1LW2ob3Ogvs2JBocTVocTVocrjAYH+1h9mwPmVgdqmtu4zpZ9QQSiwR9BEAVqEKIIgrjjRB/4XhoUAUn495xMiIXc8eIETDEQQSAQei+xCoL7+63sRLtpCfw1ZRH9DLynD8Jzah+3ysC9by18F09GqQVo70ToPfVtSHMlCnRbK5vnDxzj2vIJ70RN0zQocyU8x3aB9rPFhW0fvAz3wQ2gna3wHNsJ1+aP4dzwEXdux5ezeOoFGDB+P/w2C5yrF7B9D6KslOAiGps/DosgeC/+CJqK3C473veWEB+iRBDaixS5FQei8K/hEz9PKkEcIgWBY9i0hTDs2IQVhNqLKMnLRvHzt6D45ftheiAdpqceYh8zfYuS+25rf67xe5Tk94e+1gp9bRWKnx0C0zN3o/iVu1AyJhcGfQ173PmdMOXrUPz64zA9PhCmv4+BvtYK44qpKJ40CiWP3Imi96ZHXtuZdSgZmw3TQzkonnQ/SvK0KH4nRCYMJ2C6T4fiSY+g+KkhMD05Fvo6G4yfTkbxC8NgevwvKFo4DYbvv0DR7CdRkqdF0buTYKhgWyAbV7wC09gBKH7zUZjytSha823gdbejJC8dpvt0KLl/OJEKQlyJVRBaP36d3bCJDt+LwW+6CtfeVaA9btAM+9e1++AGbtKOgKbhK74C9741geLAyMgCTVHw/HwI7v1ruXB+sMCQC/WXXoX34gm2YZPbCdeuL0F7PfCVXIXjy9nwVRbBuXYh/DWlcKxfyP6P2uuG9/wPIcsuA5tFrVsEv6UqIsURTRDc33fc4pqGv9wYLh5Ar6+2J9wY+AVBmMSKQEj0QNTh32JRuCRI+KIMwe8lLGFSkYA1CJGCoIOhoJz9d10dTPlaGMvYSbX4fh0Mpez+CcaVz8P0wlz2+8/GwTTlI+6chlVPwTRpEvQWG4om34rixZu4x4qeHoXCn4vYf3cVQRiTA31VcF+IBpjGaGE0WNhreTIDhcdKuOOLx+lQtO0w+/pdRRCqfkbJ2OHtj5f+hJK8TOirrQFB0LHf94L7Q/h9E3MNgt8fNoHSjhY4v/6Q2w8XamwAACAASURBVAuBbrHDuXZheOFfx4nf0Qrn+kVh9QbgmYw7CgVNUfBXFcP1zQq4tn0K5/pF8F46zS6rtNbBvWcVfIazoGpLQTdaQNnq4DNdhnPtu3B8NQeub76Ea/dXYPx+OJbP5NIJ7u+3wnv+eESUo7MR3KOhY1TEfXhrRBrE5nTF/f4Sfns6FQSJKGTCDwpCgLA6hChSEFHoyKUtkiAUJiEpKbE6KfJFELjJ0VwP0wNaGC/XQ2+xoXDxEyievhR6iw3FD+tgDMhC8X1amJ77G4pfvIdl4q0oGfsX6C02GHa8A9N9uSj6fCn0Febw1+9miqFo0kgULz8IvcXCRhSCr/fiPTA9mgnTrMXsa3YhCIbP7obpgaFhzy/J08JwqTIgCJlxvy8Egt7SDUEIwbV3FXwlV9l0Ak3Dseqf7KTZoY9A6HPcOz6Hr0wfVvQXdRLmIgZ+OFYvYEP4zlYwlB80RcG5fhEbOWhrhufUt+FbT4eKBU2z7aCXvQXG62blxFrLysauFexeEjGKQei10S4H/KX69joEhoFrx+dsmiHkXF4/Fff7S/jtiSGCIAxLE4TWHgSbHnGTfwBhQACEwiQkCfu1kxRJXxUEfdH3MD04Cvqaiyh54A7uHKZ8LQq/3Q3D0QPtHDva/jqlehR+NQ/FE/8I07jboK9iowDdFoTXR6P4k13QW6rZSEfo6x09AMOvl6G3dC0IxgUjYJr8WsTz9RUWIgiEXkXsgkDDZzzHpg9oGjRDw3vxJNthkWf1AZdOKPgF7iPbYv4rPRjG9+rPwnvmUHjUgmZ3mQxKhmvf6k43a2ovhHSDMleBbrbDdWA9/LXl/KsiuiEJzk1LwgTBe/5ExPtjmPhu3ESID1FXMXSsJQiNGEjEIohFSRAGJvl+3ITfLgYs7H4LbE1De11DaDqizwqCxQbTWC0K596F4g+Wcz8rej4Lpg/3hpzXCn1tA/TmBhTNehpGQ/vzi57LQPGWC+y/uxKEB4aFbJtsRfFDOhQeq2SvI18LoyEkIlFn4Y41rLgfpjc6STGcmIWS+/8aXl9QWRt4XSIIhN5DzJ0Uvw60Tfb74bdUwbn+/UBNAM0rBlSTFc6174YVJcYy8TIMDe9PB0C3NUfsnkj7ffD+egQ0TbENjmKY5IPX5DNdBu1sA1VtgnNzZOFjdwbD0Gyr6EA/BJqmQbU0wVduiFjNUNTQGPd7TPht4RWEjlEDaUjtgFQigkQsDKQIWDEIlYKgCERd+RCy7FEqEfdpQTDsmoySPC2MhZb28+iPwZSnRdG7s2Dcsx7FL4xG8YLF0FusKPzoUZge/ROMOzaicOUsmPJ0MBiq2Of99DFKxg6HcdPKyGs7sw4leTqYXnwMxs0rUDzpDpQ8/Lf269gyHaYx2Shc9QWMmz+G6YF0GI8GxOPYbJQ8OArGLStZCai8iJI8LQpXfgZDmRV6ixXFz+TCNGEcjLu3oHDRszCNHQx9nZUIAqFXEfMqhiPbQPs8cO1cDr+5MsoSQIrdyGn7MviqTeDbBbGzQdM0/NUl8FWXREz+DE3DfZxdsUC3NcFXWhCR8+efzFnpoCzVoFubQFlrWSxV1y4INA1/aQHolsYwKXIf2gy6wzmtDlKH8HsjiiCE1BZIRFyaIbTGIFwCQh6P6H8gDhMCqUQMqTRAgi1zNOxbjKIl77P/ritE0cwXoK8JCkIDiuY9C0NhQ/tzKopQNOvlyHPVVaHws7dRNPcVGI+cCX+Nn3ahaP7zKPpoDgymuvbHzA0wfjUTRQtnRp7v8ncoWvAm9Fd/QNE/X0TRZ0ugr+twjOEUCt97GUUL34ahqC7sMePKWShaOL09SnB0FYrmvhwQhMAxO5aiaPYEFK4OEZTLx1E0c2Lc7wuBoLfELghtSybDey6yoC84AdN+P7w/fgvPNe62GJxkXTu/iLKskYJjzT/ZVQRHtnNphq7Py0oH7WiFv+giGK8HNEXBsXJOTILBe06aBhgGvsKLIWkGGm6efRk8fn/c7zHhtyV6BCFktYG4Y5pBHF6cKAndayHYE0EalIGQ6ENADGQyCfd9IgkCgUDovXSnBiFs4g6RAF9pAZwbPwTN0N2OGgQHzTCgWhpBWSrZSTbk+TRNg7JZQDtbWUHYuxoMHXtUwrVvDRiGhmvLx9yGTO79a7k9Fbo7GIYBzTDwnD4Q0jCJZmsmAvs6hL6veN9jwm9LJykG/l4H7X0MhBH7KoTuuxAUAFYMeARBQgSBQCD0HDHtxdBhcmQYtlcBZa+Ha/unEfUC1zJomob30ilu46Sw1wxOvgzNSkRDTcw1DTRFwbl7BZsC2L+uPWVyaBMYv7/Lc3R2bvfOL8KiJbSjFVRteVgUgWEAYx/uGkiIpFNBCKYPJIGvCoUCWVlZyMnJ7oScENh/azRpkEiEYdIgCaQbiCAQCISeoDuC0L4qwAXX/vXwGc9eU7Qg2oTrObY9IocPAAxFBaIADHz6szHJSHDVg7+mDHRrE1vcGFjWSDM0HCvn8XY/jHWwQnM6vOcDRbF1EiHnZRigpqk17veZ8NvBv4pBHFlkqNFo8MADDyA/Px95eXndYsyYMXjyySe5KEJ7dIIIAoFA6Bm62wfB89NBLrTeE3IQem7nxo949zRgKD9cWz4JNDfaFtOqCFYQGHajJ8oP96FN8P5ylBMH93cbr+vag/0QvPpfuYgBTdNwH/w6XKoA+Cg67veZ8NvR6SqG9qJEIe68807k5eXhgQcewEMPPdRtScjLy+PSD6KQds1EEAgEQk/AJwh+cwVoRwvce1ZxtQe+4ktsN8KQrY+vdwRrG/xFl+D4Ygbc+1aHF/kFIxZ+P1w7P2d3Tty5PDY5oCg4v/kSjN8H16bFYBiGK3L0VxTGtESyq0HTNJy7VnDnoWkanhN7eM8b7/tM+O3gFwRRUlhBolgs5Cb5e+65B8uWLUNxcfE1CUJwBYRIJIJQJCSCQCAQegQ+QWAYhm1RvPVT0M5WtC2ezNUGXNek2iEaQbudaJn2QGD7aAauH/dzvQW41RHOVvgKfoFr02J20g/k/flPHziv14PW954H7WiBY8WcQPEkA+dWNgrh3Pwx133xegZDU3AdWB/WMImyWwK7V4afu5j0Q/jdEEUQwhslicUiLrXw2GOPwWAwYP78+d0WBJFIlNCdFAkEQu8lmiAwDA2q2gSqobbLTYxinlCZYAtkCm2fz4Dn7LGQnRxpeC+cAOP3AQBohobnzHdwbvoIzq8XgbJUwbV/HRwrZvPWIATP4TOeh/fij/D+fAj+0oKwDZ7chzcBADzHv7nmJY4dX9NfVgDa62mXH5qG+/tt4YWKAGqb2+J+rwm/DZ0KQihBQbjnnnvwt7/97ZpSDKwgsB0Wg10ViSAQCISegE8Qenpwf9nTNLy/HoVjzQJ234aQiZ6m2Mmd8bi5Y13fruX2e/BePg3Pib3wFvwCf8nVyEZKDANf8WX4S67Ae/Fk+IZQgcc9J/eC9vlANTX02HumHa2BpkvtdQiuHcsizu/y+VHd1IrKxhYUW0k0oS8TtdWyVCzCqbsVGKJiUwJ8xYlLly7liKV4UamQQqWUIEUtgyZFgbQUBb7cRASBQCBcPzdSEEK7DFLWOrS+Mw60x8UbkWBoGr7KIjCOFtDBaEBQBPw+MABonxeek/vgvXwKtM8TIQiuvWw9gPf8Cd5mS96fD7OrIHrw/TI0Bceq+dzKBYZh4D17FEzg+86Gn6LJltB9kKiC8NIACeofVOHk3QoIhf2uafVCR5JVcmhTFUhNliM1RY4UtSxhBKGgzoKFq/e3/8xsxvtfbYw81mzBe0uXoaAXXHM8WLr0C96fnzeex8LPVvxuPxfCjedGCQKXTvC44Fj6BvwlVzpNVTAMA39dWVj7Yr/pMnxXfoJ713I4Vi+Ac/MS+OvK4a8pg2PV/LDIhL+yCLTHBZ/hLCsUPCkI9w+7uYLFnho0TcPx5SzQdEAQaBqUzcw1ZIplUDSNarIUss/AKwhJSf0gTOqH5aOkyJSxeyz0hCColFIkqyRIVkk5EkYQausw7smn8Gsd23742MG1eOKV6ZHHmuvw6FPP3LCJsMBsvSHn7alre/GpZ3kfe+3pp3GkqDYh3xchMbA7XOhJPwiNGri/2whf8SV4ju/iegVEfR5Nw19mAO1ycOkD94k9cKyYCZrys70XNnwI96HNcH+zHIzXA5/xHHes59Q+9jnfruFdZcEwDJz71sKxfEbPRhAYGr7KYjBeT/AHoCk/3Ac38C7Z7Gy4fX4YesHvBOH64BUEmVQMpVKCFLUcmhSWnokgsKkFbaoC2lQ5tKnyxBKEp5/B9DUnoLfY8PZrEwOCUI/xz43HUxMn4qnnxuN0HSsIVyv1eGz8yzhX04Cprz6PV6dNwYyvj3PnWzDzZRypsUFfa8Szc5bj3Pk9eOyZ8Xj0mWexu7AOKxbPxLorDdDXnseEd9fixK5FeHXqJDz91vvcOSY9PR7jX3gB455+FvPfehmPPPU0vjxRCn3lJTz+zD/w2DP/wLITxdj/zQpMWrAITzzzDF59fx30FhteeWkiXpryGhbsu4IP572KwzU26OsK8Y/pn7DnN1vwyPNv4arZhkVzXsW6q/XQV5zBa0u24OR3X+DRZ57Do/+YgJNV9Vj7+Xy8Nn0ynnz9c7z41LMoqKvDM888i5+r2H0p9u5chYee/DsmTnkXP/38HR59+h947JnxWHm6DAdXTcPzr0/Bc1NnsZ9zdSHGjX8VBRYbtq2ag30VVkx7/QU8/twEPPXaAugtDRj3jxdw1WLDmo+nYn9t/H83CL0Dr59CT0yXoasTfIUX2PqBJhucK2bBsWpul5My10kxkDqgKQqu/8fed4ZHdV7r5t7nPvecnNzEJ4kKYGPcEnKSnJQTxwYkASZucYLtFAcMpoONjY0rNrYx1RiDKQbTQaIJRFVDDQk1RFOvI9S7NKNeZnbf3/feH9/MnhnNqIFAFt7redYDU/a3v9kaab17rXe9KzwAXNBWlnkgrKNBuhoD0t4EubYUQuQR7Q8wF7Kf6SVEHHLbwkgpBXd0IyzWCZODZRo5sjDDod1RRdfqWTdFhCSU6iBhmLtbgMAC+P34+cP3DypAePjB0Rj7yBg7QHh4eAGEl9/fiddfX4b8ukIsPxCMV976FGmxe7HqSDwMpmYse2ehFSDMwWuvLUZyVRMKDJGY/+Fa7Ag4gjnzX9fWS7sejjc2nsORrcsRmFGDN+fMRXJVM3KLMvGvRZtdAEJKxFZsisl22tN7c+ciraYJh/esxd4ME/Kun8SH34Rj89K5CMtvQEFtGV6e/RZiwv3x7qE0GExNmPbaxyjIPYXFqzdjR8AhvDxnCdIzYrBo7Ukc37kKh1KrtfW/WbsEKdUmLPxgBRauOICATR/iTH4DZsyeh/SGFqRlJmHG6nM4unc9tiTUwmBqwRtz5uGt1+YhoqDaaa+vz12ItLpmfLF8ITKNLTDUF+OV9z9H3NFPsfV8utN7N32wANE36jH3tWUw1KdhyfZQGEwtWP32YoQWNuoAQXcXL25qG9QgqTbXgz+7G2p7M4TzhyCX5LC2wuB9/dIuEOJOOokOyYXpUCoLQSxdWimB818L4UIQLAfXQsq/xsCDIkPOvwa1o5WVGtwEZkIIuFM7wAVuHvSSCqUUQkygnYdACMSr0U7ZlIGcUyW6sNJw9h4Bws8fYSRC9u/oWwYHNoDws4dH4xeP3I+fPXQvHn5g5DADCLsQEfwNPvlwIS6U1eKVtz5FdsoRLN8TjgJjE5a+MU/LIGxa+x6+CM9BQXkylnx5BAZjM7KqHKcoNmPO/Fcxa8FSGEwt+HjhXMQWm5CZexnT3tkP/+2rse96PbLzz2sAYWdygdOe3ps7D+m1zTiybx0OFzQhL+00lu0Iw4FPF+JkWiXyKgyYNu9jxIT7Y/mpfBhMzZj+6scoKInGsv1RMBibkVHVwPYybwHmLHrLaf1raXF4/YsvsS++AEsXvYbZC5fAYGrBnNnzcLmmCSmXIzFnSyyO7l2P3alszPUbcxbiyOYPsDIw3mktG0DYuvoNJFc3Iq8yHfOWf4W4o59i14Vcp/fmVqTijU8+wYpDyTA0GLBg/TEYjM34YMkiRJc1Ytq815DT0IzNKxcjsr4F6aWVOrfhO+yFphao/Rx41FtgpJSCSiK4099AMVZBykqCmBTiFBx56wyE3owF8O1aWt52LHdwjVVFkQ2CklJjwZ/bDSHqKJTaMlBJhHnPJyxDcGILIzi6yR4QnoNUcA180LZbkljuae982EEnjgWlFEpjLZS6cojXYwYMSvQhT8PX3QKERx66Hw8/OBoPPXgfHn5wNB4ccy+eeebpWwYIY+4fiYfGjMQDo0fi3pFeGDHCa9i0OdoyCAU1JZi+YDUKjHXWEkMTvtqwAvPe/QzvvPOaBhAKjCYsf3MBgjIqEHhsF2bMX4R1h6Kd1ow4shIbollwzKssxtK338CC91cjtbYJOSXZmL9oITYEnR0wQDA01OLjj97B7DeXIaGkwQUgGEwtOLBvM2YseBUbT16CwdSCuBOr8XlomvPnNjZgxpw5SG9oRnz0bnx04joMphZkFWVh8euvYfEnm5BV3+wCEAqMzVi/4l1sO5+lrWUDCDkVxXjn7SWY+/anuFRudAsQDMYmLF7IzmswteD4sV2YMf9VbD3H9hoS9A1mvroUmzZ+hMj6FiyaPQf534LviO533k1dt0ZMdAyC/PkASIUZUCpvgA89oN3ta66q4EIP9no+Stl8B/FyhL1ubz1eNbdDzEiEEH4QhFIIEYchXo2BnJUMpa4CYko4iMAz6WTrrAWXYEsIC9KEQIg5cdNTHHvcOyGQDWkubZVSWjy4iCOQUmM1fYfuxzq602sAWjl+yL8rug/c3QKEhx68Dw89ONoOEh4ajUceeQgvvvjiTQGDF154Ac899xw8PDzg6enp5MMFIAy2x12KwSsLlyKzfujJeQmXY/HK/CVIrxv6vRiMRhw4uAUf7IkY+r3o/q31kuY2yOqtcQ60gFiYDiHyKIi5A/zZ3VAaKkEJdSEjUlUFf2pHrwCBEAK5NM+19ZGyscryjUzIpbkQU+MgJjGRI/FyJKSsS5AL0qDWlUOpKnIfaG2EyahjoIrMxJgGQSRJ27skgg89CGJuh9xtLgN/djf4yCOQM5NcJkfauQvpUBuqeuQrFOmTIIed95hBeOQh1oZo6zZ4YMwojBrphTH334cHHxiDhx58AA9qPkbzBx4YgzFjxuD+MWMwevRo3HvfffDw8MBPfvoTeHoxUODh6fGdBwh59Y1Dvodv414MphY9G6B7r97OizcfBR3vdAF0rpoNqsgQQvZDLsvX1ApdAqDVLYc39A4QVAVcqHuegtbG2FAFy8E1TF8AAO+/DnzIflCRh5iTorUZOh1rPV4uzAARBVDeDKWubFA5CHJ5AYjAgQvcAiHsoFMGQYw7DT7mBOSsZLcAgXBmKDWlsGx9q8c9WSRpyL87ug/M3QKEB+4fhQfHjMKDD9yLhx+8Dw8/eB8DDA/ciwcfGIUH7h+JB8aMxH33emPECC94eXvB08sTHp5W9/Cw/2t1T+trnl6eGlD4LgME3XXXfWBe1cbmHNyUOfAIiCyBO74VSk0JpNQ41rrYTQ3RFvhsLuVegRAdCOHi6R4DoF2e+JTbIO+0JlEhl+RCiDuJzuX/gJSVhK5Vs0CI6n4fhIB0tML8+QJIGQkQoo8PSJ+gP0YIgWXnR1DqymHet8opg6C2N4ML3OwCEBjoUcGf2wu1xdQraKE6F2HYuVuA8OAD9+LBMQwIPDhmJB68fyTGjB6Je0cx3oBjgHd0G0Dw9PTs8T2eXl56iUF33XXvt99obAUnuda9+2ssKLO5CeLlCEjXYqA0VII/s4sNbuoBGBBCoBir2UAkzgwicNb0v/sUOiEEak0JCNfVN0/BKkIkRB2FUl8JIeoY+DM7IVw4ATEjwQmcEOuIZ6U011qSiIBSVz74HQyEgLSYoDbVoeurJdrnsF0/87b3XAGCtS1S7WhhWZA+QIuutji83H0GYcxIjBppywx49R7wB+Re8NIBgu66695Pr+8wDwoJUakqhnDhBIjCsgekrcm9TLJDK5/l2FdQTTWs64AQkLYmkI7WHmvshBCYt7/fJy+AUgpi6YKUdxVKTSmbmGg9h5R9CXzofvDn/aFU3GDp/asxEKKPgaoq1BYT+HD/QRnx7PZaEQL+7B4QSyfkglSn6Y58mD/knBSNpEgpmzbJhx+ElJEAYunsETwB1nKKrAz5d0r3/rtbgOACCNyAAw9PT5dg75wpcH/McCcpngpYi6X+V9ljownzF8wbUM08LSsZcz7Zaz3eiHnz5t30Xgpqq/D6G69ibWBC3+83NuPkmaAhv34D9cD183EqrUJ7vPytgV3v/nrOjSxMf99/yD+v7syLm9ogKjfH0HdsSyTmDnAnt0NtNUGIOwU5/5pbtr09a6BCTA6DlBpnBQpEu+MXL0eAyq7Sx1qwFDgodeW9igpRSkEFDkLEIRCeg3gthpUVHEoPRODAndgGIeIIxEvnIUQeQdf6heja8Cqb3niL46ptGQF3axBCoLaaIJflM+Km7RqoKsRL4RBTwjUAxQZWxYFSAtGq++C+RGM/l97yOLzcLUBw6TZwAAL2IM+yCxrvoB8ZBEdyou0cwwogGBvxymvLMGfePOQYW5wAwqXsXGTU1CMxvwQpufnIKK9AcnEdDKZmxGcXamukZSXjpbnzsSMqywkg5NfWIiE7D9fK61BQV4WUkloYTM1Iys5DgakF+XU1uFzmKFXcjMi485ix6hiuVxqRX1ePxOw8XC2tgcHUguTsPKQXF+FqlQkGUwvSDdmYO3eutperBQYk5t5AvrEZWWWluFZlRGJ2HrLqGpGck4fUSqbZkFNRjoSsPKRXN8JgakZCfgku5+Ujs7wCKUVVSMzORYGxCSl5BUjKL0aBqRnxWXkoMLYgp6oSqTVN1mtQgAIj23uBsRkpeQW4UlKF+Kw85NdUI/lGNS7l5uNqGRNcyq6oQEKOAcfcAITM8jLr3lusn6UQSQUlKDAakZBfCoOpBXkVZbhSWoe86iokZNk/T2KWARnFxUjMK2LaCcYmJOXk40p2mg4QviXeZOZuIfBZywmqAj5kL5SyfMjVxeCscwt6AgaUEihNdU5zEbq/jzv2VY+6A5QQiInBbkmOjmsQooI/uxuUEFh2fQylupjpIZzajq6Nr8NybCPk7BSolk6QVhNIZ7sd7Ig8Oj5+SZvPcNMAQVXBBayHxX8tGzjlsJYt8PPn9sC84wOoxiqYNyyGmBwG1VQNpbkBckk2LIfXQy7OgnDxDCvVWNdxvqYUqqkGXavnQG01ac8N9fdL9/57rwDBFvi9vLxcuAOe2nPOz2sExX6ABg8Pj2EFEJKjDmDlsStIPL0eey8WaAAhPv40Zn24E/kNFfjXnEWIzMhDfEwglu5LhsHUjOkLl2trpGUlY9aWOLzzxqu4UmcFCMYGvDJ3PiLTc/HmqwuQXtuAl5d+BUN9FWbMno2wwkac2fkezufVOOynGRcSozFz3UmkVxkxf8EChKbm4KO3X0VKQwveXjwHm0OvaAAhsygfc+fORXJBCVJCN+GjPWcRGn4M89eeQnSYP+a8sx5RkQfx8qJ3kZCdjekLPkZ+5Q1Mn70EcZnpmDHvDWTWN+Ffs+cjPCMfGdeDMX3xMsRn58F/5xqsO5WM4wc+x8pDsVjzxlzEFZsQsPU9vLImGAWVmVjw0W5t77FB67B8XwjOhRzGS7PmIz83FtMXvY0LmVmYMfctFNQb8crc1xCTmY1Zc2Z3AwhzseZkMk4c3IBl34Tgyvmt+OJELEJCDmDvtXK8alWr/GLF24guLcO0WfMQk5mNefNeRUZtM16bMxd74tKx+qO3cCi1DhveWYjtoZfgv2cNpukAYUi9tLkN6k227TmWBqS0eIhJIVBbjExwSOB6BgdW2WPu6EaQrvYeU/dEEiBlJLhNoWvkxAtBfWcPVBVycTaoKDAyo8AzUKEqDnfaxJ7uP7dH2xM7XgF3bJP2+k1dK0Jg2bMCRJEh5V8HH3vS6fqw0oEA7sRWjXshJAbDsm8lLPs+g3gtmgULVYGYegGKsdpZWIkQqJYOWPw/h9rVDrXJCLkoy/o5MOTfM9377z0CBMcsAgMIrmTEPgFAD6BgWJYYjM14762F+Ob0OfifOY2X3/7SChDmYPqsRcg1tsBgrMDMd9ehwNSClLjeAUJOcTpeeeNDzJo7DwUlqXh58RYYTC0ICfwC/vl1WLFsMWKuhOFAchw+3h+BWQuWsHM47Ckt9xpmbYqEoaEQM15n54gM34e1F014+/VuqXijEQus2Yp1C+cgqqgJhoYqzJi1CDHh/vjoZD4M9fmYv4LNYlgw5zVcuX4Bi/ZegcHUgu2fzENCcR2mLVkNg6kFeZmhWPrlKRhMLfho6Vx2LmMVXvloK7JywrDy5CUseHct5s+fjxNHtuBorknby+qFcxBX0gSDsRLTZ81Hfl4cFn7MgvM78+cht6oI8748DYOpBce/6KHEYKzCjPc2YN3COVi2fgtWfbUFG4MzcerIZuy8XIJZb25AZnYSpn/K1gnc/i7OF9VisXWYVNihddgSVYDps2Yj09iCnKJsPYMwRF5oakGnIN2UpoFjUFJK8yBEHYXaagIfeRRKeb5LKt0pCAochKhjkHKvuAUQjueQi7N7bIEkRIWUmdQnQc82qVHtaoNceYMF6KxkiAlnISQGQ6644USaJJQy7gF1Fi0iqsJ4AjfJQ7BdL+lqFMRrMaCqAiH2JPuMNvJkYggIbwEfdYwJJ3UDEHzwXpbJsBIzZSuBksgShOhAyHlXoTY3QIg5zlQiHY4d6u+b7v33ngFCH8G9e6DXWhoHSFocLgAht7IAc9YFao83r3sXsTUsg5CSEoaXX/0E+Q0VmPkeAwhZqecx78Ov4goWFAAAIABJREFUkZJyBi+5AQgGUwsSLuzHS7PmwWCsx/Q5C3G5rBbvLZ6H1NpGJEYexEuzFyGzvhmvz5uNN76Jh6E+Dyu+OWpfywYQTM2YOXcBkoprsOqDV5HQ0OIGIDRh8atzEVdYicQTq7DmWBySLoVj5vLDdqXFbgAhv7wA0+a8jfSKcsyY8yrS65swbckaGEwMILy9kQXfPVs+xdbYAkSe3Irle8+joMGEObNnY92ZLFwMXImXZr/hdC3D9y3DupOJiI8/xzIIeXFY+HEADCYGEArqGzBz7lvIrK7FvNmuGYSN0fmIOLkN7207jcSgVVh59ALSiwsRXlwLQ90NvDRrNg5dK4KhrhQvzZqP6xU1WDh3AdJrmrB4ziIYTDaAYMDaN+bh+NVinA/eiWnv+yMqMgibIwxD/n37rnhla8ct1dIJUUEVGdzhDSBcF8SkEIjJob3zDFQVsiENQtRRp8xDj+dQFXCnd/Y4OIlSCiEppM+BRpRSCJciQCQRwoUTDpkCVbtrF5NDwB3/CvyJzeCOb4Fl13IQSXA6L6EUSlMt1K72W+chqCrLJrQYoTbWQe1qA3d2F6gsgTu1w54ZIARUUUAEDmpXGywB651eU8oLoDbVw3JwFRs0FbIfckmOW4A21N853fvvfWYQegr47lQRB5JJGG4ZhLTsq0hx4ABkFxsQmVWGsIQkFJhaEJ+SjMSiSoSkpFvnAjTjwuXLiM4sRnDCNe243MoKhKSXscfGJoQlsOmQeVXlCIlPRoKh0vpaPUIupaLA1IKktKu4Xt8Mg7EKy1Z/bV+rqgohaazmnl9TjdCEJFzMY2tHJiW5zCfILCpAcDKTU7547SpCL6Ui39iMjBv5iC6og8FYh7CrbCBUWDyTNc64UYDg+Eu4XG6EwdSMc9bjCyqLEZl2Q/sc0SmXEXYl0+GzpyCjoYWted1ZIrrA2IzolMuIzbmB4IvJKKguQ9iVfLbvhCR23iIDQpKu4mpaMq5VGLVjY5KTkFqQY907ey7++nWEJF1Ddn0TDEYjps1bjGyrTHNOWRGC45ORXMy4Defj2fVOzU1HQlEdDMZGnE+6hMSCEpxLyce1vCxEOZVydL9d3ilItxDcrIE5eB+k4izIRZngzx8GkSVthoE7cKBUFTMZZVFw28XQ07nEK5EuAMBWrxdC92vEwb72LcQEgigKuKDtoA5aCd3v0LWpjyIPudzgVE6glIIostbNcLPmVBIw1UCIDgR3fAsrbWgzI6iVf7EZ8o0MqK0mJkFNumU1CBuJLcSdhHA50n2HCABR0bsYhpP3zkFwkyX46U9/6iSA1P1xb94dLAw3DsK3wS+XmYZ8D99eb8b8Ra/j0NWKId6H7n15bYd5YCUFx9IAYfMC+PAAkFYTuH0rGUmO9FJOsHSCO7wBalcbe72fJD8GDqLdMvQJISACp3VG9Gct4UIQKxGcdAYIPRlRVfDnA1yAACEElv2rbjqD0H1flFJQSYScfxVKuQHE3GHtaDBCvBLpCmDclVq62qG2NvYKvIydliH/7unef+9fF4OnJ3784x8jJ+d7t+D/S5/FoPtt9wLjt2CehO59+kAVEbU73WYjLMc2aWUFtbFOq/3bAr9T0KMUfNhBJlHs8L7+BnRKVPCRR0Hccg8I+ND9/eYCUEohJJwFVWTwp3f2GyB0rpzlGpAJAX8+YFAAgm1vSnkBiCJDCDugBXk+PKDfmRaiqqzTo5esRuG34Lune/+93wDhRz/6EcrLv3dL3p38qAME3XX/bnp/A5utVk7MHRCij0OpKISUdhFicphWu3cpJdi6GfKvQ4g5DnKTbYGMVFgC1ezKk6CUgMoi5LxrAwIcQlIIqCxBcJMVcHsMIeBC9ru9Y1cqbwweQCAEQhLjbvCRR5l6Y8JZ7Rr3aw1KwQVu7LG7QlLUIf/e6T4w73eJ4Z577hlUgDAsdRB01133QfHud+Q9BRxCCMSrUZDS4qDUlYMP3gei9DI3gRCoplrWtihwvRIQ+xXwjm9mGQKXfangAr8aUCcBpRTClShQWQQffazPrgfbMUpjnXv+A6VQO1sH+rHcn4eoECIPawCBEgI+JnBA107LkLgBCBRAVZsuszzcvN8ZBBtAyM7+P9ixwwvl5d/Djh1e/XJHgKCXGHTXXfcuse+2RkIIxCtRIIIFlgOrnQK+26yBlZGvtpq0lsRbYvnLEuTibFYO6X4+VYV4PbZH4aSe1tQAQtRRK8u/b4BACQGV+O4vgFIKueD64PAQCAEfd5qRDcNZdkOwPu73GpSCP7fbLUDQswfD0wdcYrhy5d8wa9bPUV7+Pcya9fN+uQ4QdNddd0evaO3oV9ASogMhxJxwWyZw5BOICcEQr1/oV728P0YIgVyYrp23+2uKqRbEPLA2Q1ZiCAVVJPDh/uCObQbpRXnR8TjS3uz2eTH+TL+yMf3Zm1yQCqqqICLTh1AqDAMCCGwa5HK32Y6ixtYh/87pPnC/4yUGHSDorrvuBlNLnwFH7WyDfCMTwkXnO1nHcoJSXQzLgdUaV2GwavKEkB7FiCghTJJ5ANkD277FiMOgqgo+aBsbcNSPGj+lFGqLye3z5o1LQJVbH/tMKYXa1Q6lvpJdR2ub5UDKJ0QSNVEkx+crWvTSwnD1XnUQHDkDg0VS7N7qqAME3XX/brraRycDJQRCTCDrQHAMOoSA8BZYjm8BMXcMWtbAMahRSsFHHHa7LiEqGwF9E50YXNBWRjw8yjoxpMyk3u/SrecnXe0uLxFCGOlxkD47ISrMW98ZMG/D1sEgJIU4kRopgNqOriH/nul+8z6gEkNZ2fdx9eqPsHjxwygr+z4WL364X15W9n2UlX1fzyDorrvumncKYp+Bhw8PABf0tVPAIoRAiDwKSvrfsjgQs60nJoWCqIrL64QzQy7JHfB5GUDYxu78969kQCH0QK8BmVImCU3ctERSSkFkCV0bXhuU8c+2rIyUHj+g1k1KKUhnK6SiTO0YQikqW/XMwXD3fgOE//mf/wTwPTQ3/x/s2zcKwPewb9+ofjnwPQB6iUF33XW3e017F3qLQYSokNLiwB/f4py2JhTmTUtA6c2Ng+5P0AMAKTPRLeFOqSwE7SZ/3B8jlEIIZ4CAO76ZdVy0NULt6Lntk1IKMeV8j68TQtC1ciYI1zVIWQQCpaYUUllev/kRlKgQkoLZtaIUok5IvGu837MYliz5IWyB/mZd10HQXXfdbV7U2NprJwMlFGqLEXJ5gZOoECEEQvy5AXUQDMQ0gJB/zQUgEEIgWTsHBpqGp7IEKf8aCNcFubpY+4PLBXzeYxaBEoKutfN7BgiUQulsBR96oF/CS/3ZJyEEcmkupIzEHssftrKC2tYI8Vq0tn+VkCH/Xuk+eN7vDEJg4H9gMADCdyGDUNrchvpOM8yifNPja3XT7btuLKjKkLIvWUctO2j/CxxrZxzk8oJtfQCQ8q+6AASqqhCuxgwYIBBCoTbWMHCQlQxCiTYzgnBdrGPCnZyzqoAL3tdrhoFSio4PX7wlzYfuaxJKIcYG9V76UFWYv1oyKOWN4WqKStAlSKht70JxU9uQx547DhBs/y8v/78AvofS0n/HpEm/BfA9TJr02365DSB4e3vf1QChnRcGpeVIN910Y0ZUFZbjW8Cf3QWqyABsAZxCykm5pWFFPZkGEK7HuNyVU0IgJIcPCCDY7sq5E18zvYGzu52IlYQQCLGnNA6A03G8xaqY2PPnJIRASDgH6XpcjyqGAzVK2WCpXoEJIdociu8qQOhuhFA0mbkhj0V3FCB4eHjAbP5fAL4HjvvfyMhg5YaMjB/2y20A4b//e8RdCRAazdzQfit10+0uNZuyHx9xxCkQEVm2dhLcPoDABiu5AwhhAwqKhBBWKilMh9pUxzQUurdtqiq4E1ud7sYppZANaaButBi675dwZiYm1Q/eQH+MUoqudfNBeLN71UprsDBvelMHCG6MUoq6u6CDo986CIJwa+UF4Ht49lmvuwogFJpa9BKCbrrdRqOUgli6IOekOAUiSin4M7sGLa3u7rx86EEXbQWqEoipcf0OiixDoII/9Q0oUWFeN9ftaGhKKagiwxKw3i4KRQi4E1v6lcKnhEBICHbRIbhZo5Sg89Np4Pw/h1KSA2pTsSQEVBKgtphgCViPjnef0wFCL8bLw3u8db8BgizfOkBYuNALnp53B0mxqKlV/6XQTbfbbLZAKSYGQy7L11LtlLI5BHSQ7pi7G1FVCHGnXIIfIQTyjYx+ARPb3i27P2XBf/9KEK4LSn2F28yH7f18uD+ES2FQSnMZz6IfNyGUUvCJIayboB8zHvpeTwUfvBfmLW+DC9wM4eJpCInnIMSfgRB3EpZjX4E7sAbmXR/rAKEPUwkZtlMsexVKcgzkAQH3ICXlh7fkL710nxUg2AWThitA0LkGuul2+00j6p3YCsu+lS6pedEqFHQ7zqtUFYFwZpf0utpQCdLR+w0CpRREkcAFfsWUE09uByGqFSBUuv37YQu0Wgq/q61fwZedS4FcbmAA48Q2e9bhJq8NIQTi9VjImcmQrkaDP7Ud3Imt4I5vBn9iC4TYIKjGKpi3vQM579ptKfXcTTZcuzv61cXg4eGBn/70p3j44YfxyCOP3LT//Oc/vytKDDo40E23O2eEEIhxpyFEBzrV2Cml4AK3gAzCHbM7o4RAykpmwc8pi6BCunah1xZAW6CmlIILWKul51VTDct8DNJ+bSRH8VKYdh0opbDsWcFUDQdagnEEKZSga+1cmLe/BzHuJNTGWpBWE6S0OFh2fQLzlndABA584GY9g9APs0jykMeu2wIQbCDBy8sLo0aNcvGRI0e6fd6dD/cSg7HLMtTfM910+04ZpRSqqQZKTQlIZ6tWZiCEQEwOu31lBkrBnfzatf2QEJh3Lu8x9U8IgdpYx/Zclg/CW7TWQSn7EojA3fSdfXezgREh5rjWNkkpU1jkwg6Cyq5Drvpcz6G7QqkuhpgYDPFyBMTYIIgXgiAmh0FIPAc5j+lECOf2MTKnDhL6tIphpi7Z7wyCu9bHm/PhDRB00023O2+UqBBTzrP6vw0gUAqlsRbE0nn7ygy1pSCWTqesISEEfOxJtx0DWvYgeK81w/GVBjAopRCijg5qOp5S65Cl6mIQB36GLQMgRByG0lAJQvsevuS4dyE8AFLeVYjJYVBKcsCf3QUhZB+EkH3gTn4NKTNZI3CqjbVQ25v1LEI/jFA65DFsUAGCOz7CzQIEd+sMJ4DQauH7/gbopptug26UUlj81zK9AGIPhESWIKbH96oTcCvnJKoC7uR217ZEkYdSU+LCTyAqk4cmigw+PICl/R32yx3fMmhaBbY1hcjDLmUWR5BAFBmWXcshG1I1EODEd3DiPbRDbWtk2gpxpyDfSAelFOady8GHHYQQdQxdm9501nFQZMjVJTpA6KcNpxkV/RZK6k/AvxkfTgBBb2nUTbehMUIpxIunwEcftwdYaxrc4r/utpHkqLVrgXS1dwumKrgjX9oDrrXez5/eCbWuHNyZXVBbG11aMzlra+ZgGSEE3KEveudD2AK5pQtyzmUIkYfBn9oO4XIE5NwrkDISIKbGQkg5D8uRL0FVla0buFnLfpi/+QD86R0wf/0OuMgj4I5vATG3M1AhiYx4SQZ3qubdarI6fGZV9JuDoIGCAYKEvl4fLgCh0KSXF3TTbaiMUgrS1gwx5TyIwGlBiFBqnQVwe3gItlo8H7wXROC1O2dbMOROboeUGgs+ZB/M29+HEHEIwoUgp8BsM0II+LADg6p2SFUVYnJo/1ouHcBNj1kENw4wiWmqqtZjVVBVgZSVDCn/GriAzyGmxkGpKGQ/Gx0o9GlDHc8GFSB010VwAQlunusJUDiVLoYRQKhu7xrq75Ruun1nzZbKllLjIBVc1zgBhBCoTQ0grY2Demfe/dyUUEhZyeBO74SYEQ+1s80eCIkKpSQHxNIFMSmkR2EjSlRIyWGDMlQJsH729maNBHknzQaShAsnrNeBgPAWyCU54E5sdQuQdLNbWUv7kMe0QQUIvYGAvsCAp6cnPL2GdwahS5CG+julm27fWbMHpCDwoQc0CWRbil+8Hntbe/HttXvCdA2ijmoghVKrJLKqQi7Odh8UKZvmKJfkDBpfglIKKfeKXeFwCECCXGFw4TFQQiClJ0BIDgdRFHRXo9QNMHVZhjym3RJA6AsM9NaZ0F/wMJxIiirRv+C66TaURiiFEHcK4qVwlzQ4H+Z/x4IQJYTV6h0BQvYlEK4LalO9++wBpaC8BWpb06BlOgghEEL2wRKwFkp9BSi5c3ftNsAmFaS6nNPp5xJ5lIEivezgZO28OOQx7ZYAgvug7h4IjPL2wriHH8Jvxtw/YBAxXACCbrrpNrRGKYVckgsxPcEp2BBVhZgUekeDo3nbO/buBKJCSo0F6WhhxD03eyCEQG1tAjF3DNoeGTA6CKKoUJvqwJ/dBTnvilsOwWCaY4cEf24PiBv+h1NnhKUTfMh+KA1VOlCwWqcgDXlMu2WA4I5oaAMNvx1zP8KemYjSp8ej9MnHnbzw+SmY9ZtfdgMGrgDBy8vrOwAQKMTCa+hKCIH5agLk1o7+H0kU0F4yF1ThwGVcRFd8KCzZaSByt8lzMo/B+DUkknxTx1W/MBZli9YNwg50080edIT4s+yO2eEOXq0pBRH5OwYQLAdWalwCqqrgE0NAZRFKeYFrhsB6ty0XZoDI4qDuQ0w4p6XwbeRBPuwg+JgTUBtr2YhsJ8BA7O/XHrsjJxI372WkSNLZCrk8H9yRDX0GfK2DwqoiaTm2qUciY39Jk477Gq52VwGE7r79SV8XUODOi/8yCSO9vKzAwrqmlxdGjByJ+0bfi4ceeuCuBgi0qwJlz49F2VRnL1+yus9jldTtKJs6FrLZPfeB1Me5rFs2dSya4/IBAM2r/4yyaU/hVn6HaGcRyqaORWtK4U0drwME3QbVtHLCQVjO7nYSL6KEQDKk3TaioqMRQsBfOAGqKtZzqxBiWPtlxyIfjQvRPbBxhzcMukiSfCPTfZC1cjTEzERY9n8Gy+6PIcSfgVyaB9VYDbXZCLWuAnJRFqSMRIiXwsFHHwN/eju4/Sth3vUhzJvfgvmLReja/BYsOz+E5eBqCFciQQFQkYdl/0pYDq5lWRGHz9zTXtm+FMjFWeAjDjvwOhwIp21NaJvzB7T+2QstT/wQrU/8qJv/EG3Tfwm58ka/plx+W+2uBQjb/B5F3qTfo/hPj/ULJBQ964tR3t7wHuGNUfeOwgMPjMHo0ffBywoc7lqAQAVUvDAWZdNfhMLZg7zSkA9zTd8dEX0BhLoFv0H53L/bMwyUgE85DFlgj3WAoNtdZ9QqRHT9gsvgJkIILPtW3pE7S0II5II0EMUKEFQVQkQAqKJALi8AH7wXakeLdqerdrTCvPnNQU+tU0qhtjX2+JpjAHYM0ELcKUhpF9lYaa3lkYAIHLjjW6GYqu136sQhi2DVPODO7oFqqtHWVBrrwJ/+pl+fT1tHVSAkh0JyGJ1NCUGz37+hZdIP0Dq5Z2+Z/AO0TPw+xF7mYXzbbdgDBHekQr8Jv8Xl8b9Elt9vYHjiD/0CCKVPPo5rz/rh/vtHM1DgZe9o8PK6ewGCkrobZVPHgqtv6/lNlKLr0GsOGYDfQGjhwB98xjkzMHeey6E1L/8CFYvnui1BlHfLKhiPhgNURePyJ7Xnar74CmVTx6IupAgAQdnUsag/EsJAzdSxkG8c65ad+B+oKgVpynN6vv5gsPZZOnbO1J6veG0RqnSAoNsgG6UUSnk+5OoSZz0EQiBEHb0jbH5bUCQCxx4rCoRze0AEDqqxms1cMKRBCA+AEHEIcnG2RqwcTCOEgopCn3u1BV+l8gb4s3tAFVmbX2FL/4tXY3rmcViPF1PjICSecwYfsgTxchSkjMRugKQ/ss4qiLkD/Nk9UBuqQAhBs9/30TLpP3oFCK2Tf4CWSf+Blqd+ckcyRrfDhjdAcMMX8PD0hLf/Kzj8+C+QOuFXyJ34exT96Y8offJx3DhyAC0V5ajPvo7CLT4o3fzfqNz+G9Tt+g1Me3+L1oDfY/zvxtjBgdXvZoDQdeRNlE39FRTe+ges6wqqFkzRnFBAqYlG2dSxMFeyATTtW15C+YIZoESFfG0bC9SdgttfAjH+SxaM//47VL3+d3Rey9Reo6pqzyCoKiihkLM2oWzqWLRlloNIArqOvukAEKgW2LsKq+x3P+2FLIOQXGD9gwJUv/RfqFi6mt0FNOeibOpYWGo4qMZrDIyciAaRREhpO9maOkDQbRCNUgoiClBqSqDWldkBAiVQW4wgbU13BCBQUYDaWMf2o6pMSKmrDWpnq5OioC0AC3GnBn0KLCFUAyk97tMaqC37VmkzKxxdriwCH3KAZRO6ERsdjyeyCC5wk9NzclkBhHB/TU6aEgLu4CrwZ75h4lXd1nO/P+ZqayMsB9dCTApBy6Tv9wkQWif/AM1+/w65LH9YlhnuKoDg4eGBe3/9CO7xn46Hd7yE6Md+gUzf3yDvWR9U1zTizUNmTFlvwV82mRGR3on661+Di3oUSvzjUBMeh5o0HlzSEy4A4W4uMZiPv42yqb+EzFlrc0IZWg5vRuPn/0TZ1LEgFOja7Ieyqf+Fpl0rmX/xMsqm/g5EpX2WGNiaregM3Y2GT1+yBvhfw1zWDMC1xNC85Jcoe/4Jh4MtDgAB7PilzsHcpcRAalE2dSxqv1qp7bnshbFoDE+BcHae9rlsVvm8DhB0G3yjhMCy9zM2/pk46CHIEpSqojsDECSRTWokVjZ/6EGorSYQ3uxyfkpUCNGBg74vSinU+krndR0BACGse8AaRJ0CclsT40RY90sp7UZmZDwG/uwulgXJZd0RwsWzEBODwQdtB+HMWiZAuHAcUlq8NlGSKDK441ugVBf1WXpwPKeUlYzWFx9Ey8R/R8vE3rMJLZN/APFK5LAsMwxvgOCGg/DAF//EPf7TcY//dKx94Y9IHP9LNJpM+MsmBg4cPau0E0LKX0Cu+IBe9QW97geaNhGenh4OZEXmdytAUPOPsDvyMqPT80LKBi2Qtq97FGVT/+j2+P4ABCejEqpe+gUqP3gfgCtAaJz/Xyh74XmH98suAKH8sz3OS3YHCCp7bLa4/rLzJ2eibOovnDgPOgdBt9thhBBwZ3eBC9zsTNAjKrjgvXeGqKgqENPiNIlnPvwglMY6UNF1oBtVFPARh24LQGClCwdSJGFzIeTMJAeVQ4eWQ1kCf2o7azl0N+CJENY2eu0CxJTzdn4CpeAOrdeGQtmOJYTAvO0999kHRQGxdIIL83fhQvT0ebTMRmwM5EOH0TL5//WaRRBTBr90cyds2AME3we8Ufm3Mfjof0bCw9MTP9kzTQMIP/Z/GefH/QoNTZ0u4GDKegue3WhGV9kRIGMS88zJQOZk/OoXo53Awd0MEEAVVP1tLMr+9jiEFnsa0BEgyLn7WMCtaNde5zPTAQDEcJi91uC+LbJp3cvgyu3gg3K1KH9hLGrWbwUAtH35D5S98EcQhf3yCGELGCeiibVZicmb+wYIQpW1bBBlewYVz49Fxdsr7O9pywWhgFodi7KpY9Ge28CeN+fpJQbdbotRSqG2N0O8FuPEZCeUggv6+s4ABEUGH+avjXwWzh+CVJILKrsCeirL4MMHX8iJUgr+/CF70KZsPLUQdUSTX3Z0ITkUUt5VDdS4ZDoohVyYAfFCkJ3fYQvYuVchJAU7HavxF1IinASTNKBBKYSLp6FUlzjJUvcFEgghUAuLoQRHoe0vo3sFCNLVaB0gDAVAmPXLEWj85wMImXIfPL28cM9uewbhHv/pmLF2GjJK3AOEKest6KoK1YCBzX89dpRdD+FuBwgAqNCMusUTXNsR/+XL7rSpisYVzzm9VrFojvU1EVXTftkjSbFx7b9c1q2Y9wIUyfrHsuaiE0mRqjxq5vyP/b2L5/QJEAAK41Lb/hlJUco53e28v4C5rBWgBI0fP8We+9tvUPZPP52kqNttMVtAkMsLoDTYU+yUUqh1FSA8d9uDBlVkcMc3a8GOizwCOSdFa310NKLIEMIODj5AIATc2d0gqgLS2Qo+7CCU+ko4aRcQAqWykIEZSXQicToF83am8GjxXwe11aQ9r7YYwZ3aAbW9mb2P6wIfcQR86AHIeVc17oHS3AA+9ADjL6kqlPIC8MH7QEQeRFWhlOUzEJV7BUL0MRBzZ49AgRICUlgCNTQarc+MQPsLP0fn/D+5LTfoAGGIAIKnlye8vUdg5KhReOjhB/HjbX93Agj3+E9HS5t7gLD/Yhc4wyoXgMB4Bx5aB8N3QyhJN910G2wjigw+9ACEc3tddAf6M93wls9PVHD+a+x359HHIV6PcTuIiRKiTXgcTKOUQkg8ByF4P+QbGS7lBArAsutjbQ/uygmUqDBvWQq1oQqWbe+yYF9RCO7EVsYhqC8HrFkSMSUcUnoiO05VQClgCVgHYumylzbK8sEHbWOdEoSAKgq6vnwNRJa0+RmEEEipsRCvX+gxk0HqjFCDo9D63H0Qv/kackAAWnz/r2uJ4VKYzkG40wBhxIgRGD1mNO4fMxre3t4ssP/p1y4AYVrMRkRkdDmBg4X7zGgyVrmAAzV9sl1R8btQYtBNN91umxFCwB3dBP70Ti3NTykFURVYDq3XgtHtMkop+JB92nn5qECIVyLdljcopRDjzw0KQHCq05fkgD8f4PT5tYxG0DbIZXnuuQG295zdzYZMOWYbKgohZSXZxztr632tlR1cCI+mGohXo1y6NyilECKPOD1v3wMBEXkIYf5uj6OyAiU4EuqZUChnz0PauxvNfv/mQlIUEs7pAOFOAwTvEV7dug3YXf89B6e5gITpMRtR3dyAvIpOtLS2IiwrEW2pf3EBCBve+hW8vDzh7e2FESNGYMQIb4wY4a0DBN10023ARimFUl0CuSTSsZ7SAAAgAElEQVSXpc5tPATCJgn2xZwflPOX5toDYdxJiBdPu0+ZU5sk8s3vxx48CdSOZnAB6xnPwBEcEBVS6kUI8WfsGYJuwMAm+SyEBzi9hz2fDj7iiD2AyxL7l7CxzkppjtaloB2rqhDTLkIuzmaBnhAQUdBel0tzIUQds051tH8GYukCF7hFawslnW1QreUiOw+hBOq5CKjnIsCvec+JsNgy+QdonvQfEC+FOZVUhosNa4BgKzF072T46SI/F4Bg858EzMB/fv13zNjzvAs4UFInwdvbLo70XeEg6KabbrfPKKGQrsdCaapzCoRKbZk1YNzGc1uzFTa+gxAbBPHiqdsCEDRyHyHgjn/N5lCojgGXQm1ugGXvZyy17+Yun1IKKrHALWYksGyHjX9g7mBzFRQZRFFAJAGW/asgF2XBfGC1NZuggHS1w7LnE+0calM9uCNfsutACFRjNbgDqyCX5oE7sc1ZH+HUdk03Qjh/iI2Jtgo28Wd2s3ZISYRlzwpt4iUlFGpFFZQz4eA3rHBWUpz0H2h++idQm+ph2bdaO9dt/aEPog1/gNBdSdEa0H+8+UX3IOHANNyz4a+gWU+6AIS/THoAXt5e8Pb2gpeX9V9vLx0g6KabbjdtlFJwp3eCP7PLKbVPBA5iZuJtTT3bgq5kYOx9If4MxMsRPZcYbgIgON6piykREFPOa5MTteDe2Qbu+FaoptoegYHa3AD+zC4odeXgz+6G0lDJOBzh/uBDD7CWR0pBFAVCmD/kwnQtsFNKGeEwOhBEFkEogZR7GXzUMajN9SxodLWDO70TaotRyxBQQiBeiWJ7tt7hq60myHnXNUAhXomCkBLhUmJQTTXgz+0BtWaGqCBCOROG9pmPoW3SD9A26ftomPj/wNdVaPuUslMgxAah+3Cpb6vdfQDB5iO98Z9fdQMJB6fhR7v+joCwF52AAUmfhJefexje3t7w9vbWsgfeI7zveqEk3XTT7fYaIQRCxGFw53Y7AwRCYNm7QhNRuh2mlRaijlkBwFlIV6PcAwRC2DCnfgYsLcCpKtSGKnBB2+2kPweuBR/u7yKC5Hg8EQVwJ7dDbax3eo9iqoaUk+IENoiqgDu1o8fSBPusR+3AQWtbJODP7XWZzqitQ1SYt3/gIsFMiQrhcoRzicTRFRliRhJEQcDiaf+Aei4S6rkIPPfU03jWdwIe9/XFtJkz7eDC+i8fdhBS7hWHGRPfTpBwdwIELy+re8Ljhd/jnoMMIPxo/7/ww6/+Cpo5RQMH+afHYezDI5zLCm5cBwi66abbzRglBEp1Eevtt9a9ASuBMPTAbZ32ZwtkfOg+KwfhFCP3Ke7bHPl+tjk61vY5/3VQ2xpd7orFq9HWYUvWMgNcA6xwKQxSzmWnQGkDNHJBqv3aUAdA0dUO845lTgFX+5xB26FUFWnHqc0Ndq5AbZmWxXHiJ1DKgJrAsX0ostZOSSmF2tkG7uhGl/NJqXEQMxLAdXbg9alP429+40CCo0DOReDJyZMxwccX43198Oj48RAEwennQSgF4S2MvNrV/q0FCcMbIHSXWu5WZrD/3wtej/0cHjMfx44Nk3Fs/e/w3uxfYPTokfAeMQIjRoywd0E4rMnWZ6qKdytA+ODVGdi4cSOWrdiJsov+uJlkp7k+FzsPncTpfXtQn/gl2omAnZdab2Ilux38crnTY9KYDb7b70/sxqVoubQTrpPrCXKqOntdn28q7/GzUqkeJtn6R1wowsWKgd3hlV0KA0Dw2e6kAR2n291p7C6Zh2xI14IXe55ANXeAWAlwt+vclFLwp9gUQzEpBFJRVg9CSVKfAMHxTl5IDoWUkYDuQV811cBydKOTnoGTExVycRZUYzWk7Ets/oMssaxB5Q1wp7ZbJzgSyOUF4E59A9mQBi7wK+v8FSuISAyGlH0JRBKhlOSCD/paW18pyWXgyyrDLBdlwkZk5E5/A6W6GETkIcafgZSZZFdmvHgGUt41UErAndgK1VhtBwTXYyBejYFSdQPckY0gnBkCx+HdZ3wxa+Jj+JvfOEx75kn8/Zmn4efni/G+vpjg64vHfHxwo7DQbfaEUiYaxZ/Z6TSDAt8SsDC8AYKHB8sU9AAQvLw8NU6Bo3t5ezm/VzvWHeDwuKszCJ+u3QxQipRNL6P0oj8IJfj8zZl4Y80hUKpi9vNP49NtG9Asqljwj+fw5oZQiI05+OtfXkBpJ/sjM2fSY5jyp6cw8YW3XADCB2t2A6CY9dJaGOICMOWpv8JoUbDq3W0AgP0xBXj/+Vfx8oKvAQB8SyGefPIZfPTJMlAiYubfp+JwSjWmPfkHPDnrE9SnHsOTz03HJ+9/jbDXfs0AAuEx8/lnsGzneQDA6U/n4w8TpkBRRcx64WmsCYhnv2+U4J2X/4o5H+7H238ehz9P/Qcac0Iw5dl/4Jmn1+LsF2vwxtxFmP/PSfB9ai67QIoBIVUc3tx9CjP+NQ0d7TW4WNoMKlZjf5HicK14vPjnp7Hz3CWM+6+fY8mmk3jqk1i8uWQtFs+biZhaCa2FMXji6b/hpckf3NpvrW7Dzggl4AK+gHAhyEUPQSpMh02G+Pacm6kTUkIgJodCqSt3ymTYjEktH3YLEDRgYAvaxzZ1C/oERFHAHf6Ckfcc5JEd6/1qUx0sB9ay/3e0gDu4DlQSwYcegGXvpyACxzIOigzL/lXObYyEQL6RASHisFMJQbwWC6qqjDNg7oDlwFoWJLTjVFBZgnnnRyCWTo0oKBem29ctzQXnMApaK510tII7ulHjI9hfY48/mz4VL04cj5l+j+NFv3F4xnc8nvCdgIm+DCCM9/PF476++OTFp6Gqqku2yH5dVUiF6RBiAl1UIIfShj9AcAjm3YO+7f82oODl5dVLGcHDBSB4fgcAwkfvvYv4+HgU1rah7KI/+M48LF+3Fes+fhed8Z+ilQA1WYfRLAhYvmw5IjKNePvll7F9+3ZMnO0PAGjIi0ALT/HN52tdAEJ94m40NZcita4LazadAaiCd3bGOQGEFbPe0fazfdafQQHsXfcBMtdPxrbt2/Hu4oWQktegjQDPzGXn/PSdbRpAEKQ2fLx8GeKyq6yrKNgRW4OWyGXoIkBO1E6IKgWojE8+XI6ghBswXT8JBRSvrzoIAHj22bU4v/kTAABtj0G2LV2hGBBSJWH67gKA1GN3rowlCzfg4pFtEB2uFZXrsGz5CuQ28Di64FkAFE99Eov3X2Fr/vfMQLy3eicA4JWnlg3456Tb8DZKKYSYExDOH0L3u0hbj/1tOzchkIuyQBUFYnIIUyC0Shw7vU9VIUQfcxvAKCFQ6qvYyGNzh0tNXYg9yQYldZMo1sADZwYXtB1qU52TnDHpaAUXuJmtp9rLDPyp7U66CY57IbIIy/6VDtLN9sDNBX7lElwdwY3tddv5bJ+D76Zz4Lh3VqLZ71RWIYQg8MgR+Pn6wtfPB5N9ffA3v3F4xm8Cpvj5YKKvDyZYMwiP+/jgzUl/wMK5s3ssJzlmZsTEYEipsd8KkDCsAYKjHLKXTbdgpLVkYNUv8PZm/44YOULrSOgLDHTPJtzNOgifrt2s/b/soj9URcAXOwMRcz4CqlSJHYHnsf3DWWjm6hBxMQmfLVyC1MAvEZOQhJMptQB6BwgAwZ+efhkqBfw3r0PChVBcMJiwa8W7SIwJwu6YAnw2+31tD5UXv8bFlGt4ZcYiqE0JOBYWi4jzMVCrzuFYfBaOfbQQCYmxmPOWPYNgbq9FbEISVq3fpZ3zvbX7IZlLcPhcDDatWccyCKQVIbFJ+HLpUljKkxB0IQlBG1cgPiEWjz6xCuc3W2c3yEXYciKR/d8KEGbuvwGQeuzKkSEVB+GzXdGgDteKmC4hPikZn64+ies7FuBqQSUDCLM/AwD894xjiNj1OWIvxmLKuLcG/HPSbXgbIQRKVRGkbqp8lBBGILzNPAS1qR5U5CEmh7CSRmebK0Ag1nHP3TIchOtiRMOqIqegRSmBnHeNsfJtrYJugrJSXw4pI8FZm0BVIUQdg1RwXVtLupEJpdxgvVbFEM4HgCiyU+Am7c1sIqW1bk/am5nGhBVcEIGDEHkEal2503FqUz34kANQ25sYH8FUAzHmOIhVmlltbQR/Zjdb1wEUyQVpEOPPagqLcmYyxNggnD4ZhEm+DAj4+vpgkq8PXtAyCHaAMN4KEJZM/AOm+Pliz969PYJBp2wMbwEfcRhKbemQAoVhDRA8rGqHNjlkL29rpsDbyznoe3m60Uuw8Qtcn/fw9LCu6QnvEV4YMfLuBQi329rKkrHzavNQb+NbYcbiPIBI+Mu7J4d6K7rdYSOUgsgSpOsXtDo6YAUOpXlQ3QTswTJKKagoQG2shZQcCipwUKy19e7vs5UibIFKvBxhr9HbnldVpgVwcA3jDvRw500EHmJKBFs34Syk1DhWUsm5DDEhWJNCJpwZ3KEvQBUJxNLJZJElkbUzXjgBKSuZ3cWH7LMLHVECPmg75IobWiukWl+hZSHUzhZYjm4AEThwh76AXF2iZTe4Y5u0OQ5yeQH40AMamJHyrkGIPsb0GgLWgygSiCJDbW2EZf8qKCKP00En8Cc/Hzzh64NJvr7w8fXBjInWEoPfBDzh54OJPix7MM7XF+N8fLF00h8wxc8HE3x8YDAYev1ZOwIFtaMFlv0rXQDYnbJhDRCcSwMe6P7Yw6V80EtbpEMmwnuEN0aM9MZIzUfoAEE33XS7aaOUMdeFqGMQLpxwuksnigIp79rtKzNYg7qYEQ8xOQRUUaAUZbkFCGJ6PCilbHBSyH4XkiFRCfiTX7O2xV5aBvlwf8g3MkFlEULwPqtmgQox4RyIyGvv5Y5vhlJ1w7k1khCmaXBqBwMDkgg5/7rW6SBnXYIQedSlG4F0tcMS8DmIYF9fNVVr75OyklnqvluNnxLCpjmW5tlBizWTQAgBH7gJijUjcTrwKJ72m4An/XwwxW8Cpvj6YsnERzF74mNWgDCeAQQ/xwyCL95/4o+YbH1u1rx5UBSlz2DvuD8xPV4jkN5JoDCsAQIjHXo7qR46Zw+6kRcd+QrdWiS9vBgwsJUmRliBwciRIzBqlA4QdNNNt1szoioQoo7AfHiDUy2aEMImB95GHgIhBHzoATYgSpK0AUSAczlAykhggkbd5hkQVYV4NQrCpVC3KW+nO/CwA90CsAoxO8Vau7cHZ7W1EUpTvftOB0qgNNYxUaNuQIAP93caHe34GlVkCCH7XESN2EyML0FE0c25KIgioWvLUtd5C0SFEHEYRFVwMTICf/Ubhz9PHI+n/XzwpN8EbJ38a7w58VG8MvExvOg3Hs/6TcAUP19M9PXFBF8fjPfxwR8efxyXQs9gsq8PfHx9MW7CBG08dX/MiQtxdifkoixnvsRtBAvDGiD0mg1w485Awc5f0DocRnhpsxdGjLSDBB0g6KabbrdqlBAoxdmsHi8JmlgRUVUIofsZQLiNZQY+eA/ElHBQWQYXcgB2MSB218yf+BpKucElICuluRAunGCKgTZg0y2YE6Iytj9ndlpXqa9kAZ0zs7t8WYJ4JZJxC1QViqkGwrk9dq0Ea5Dnz+yEXFkIQlh3Ah9xCHzwXnZ3z5vBn94BtbWxmy7BRYiJwSAKa5mU0i+CDzuoXWtKCMTrFyBZyx4awfJSuNMQJzEpFHy4P8vqUEaKzD28A/+YOA4v+I3DX/zG4c8TJ+Dw5LFYNfl3eHPio5g18TG86GslKfr6YKKfLyb4+GC8ry/+OH48Ojs6MHHCePj4+uKxCRMgy/KAswBaVsTSCS5oG9S6clBye7kJwxwg9FwycOxqsGULbLoG9lJCN0DgBhzce+/Iu5qkqJtuut0Zo5SCCByU6hKojbXOPITqYjbU6DYCBCExGGJiMKiqgDu4hgVfapUavhTuknpXjNUQYk44SBO7ulyUBeHiKciGNChNdRAunIDa1gi1vRlCVCDjOhCV3YnHnYKYnsC4GDmXtXHXTM44GlJKOITkMPa8qrKsRUoEpGt2YqeQGAIpNRaEUsgluRBijkPKSIQQeRSE62LXsqyAZWQsnUzeOD0eQlKIvRTBdTGC5JUoCDHHQQSeSTPnXGblH2v2RO1sY0RBUw0WP/80/jlxHP7mNx5/9xuH0MmP4NDkX2DVpN9aAcLj+NvE8XjG197FMN5aYvCbMgVtra2YOH4cfHx88Mfx429aHMvp51NfyQiZXe0aKBtsG9YAoVepZauPGTMG+/btg9rVAlp5HTTrNGj+edDWalRXlGHy5ElaKWHkKJYtGHXvSIy6dyS8R3hZAcXdK5Skm2663TmjhIA7+hUbX0zsKX4icJBLct1KIA+GEUKgmGrBRx0FIQTmdQug1FeCO7LJPqxIKycobGaBA4Petk/NBQ7c4S9BLF3sLpszw7xnBagkQK4wQNaklQnUxlrwp7Y73bVTQkAoBXdyO+TqEudOBUKse3CWVNaOU2SYdy93HgRlvZPmjn1lH6LkWHqgFPy53VCbG9yUH1RwJ7aCypLb0sT1kJOYPflxvOw3Dn+f8Adcnf0EEic/gJ2Tf+UAEB6ztzn6+sDP2uI4wdcXzzz3HKLDwzDFzxc+Pj6Y4OfnUqIZqGn7o5RNvYw45NIWOhh2VwAEDw8POP7fBg42bdqE9vRwdOx4ER2bn3LjT6MjaBny8/Pws589ooGDETZg4Gkb+3z3ZhBKS0sRFRWl+zBxs9nc689TEAQYjca73nmev9m/eUNqhBBwp3bAsmu50wwGSgn4kP0g6u2Zy6CR8c4HgEgiutbOh9rR6pIREJPDrOl212Bje8wHfQ2lutg5ABMC7tB6qG2NDkGWiRWZD6xyOod9LStICNrmwiUgkgg+5oRza6TjPi+Fg3BdLs9zhzc4n8txzc42SLlX3fMMoo6ykkW39QghWDnjH5g/8Y94ZdJjWLPkVZQvmIKQyT/Drsm/wqrJv8OSSY9ilt9jLINg00GY6Muklv38MHPOHKxYMAtP+PnCx88PS95666ZKDD3+XK2gTrwSDelazKCChLsSIHh4eOBwgD9ubHkFNz71w41PJ6KoN18xCTdSovD73/9OAxfe3p5OZYe7FSD0FXB0+3ZZUVFRr69zHIeqqqq73ofr95YSArmiEPyFE6AOYMAGHOggD25y4glIIrq+eJV1BKjO0xblcgO7i3YYtuR8PCMq8ie/ts4sINa0NoGcfQli/FkNKKjGKvBhB1mWxCpvLCScZUJKDoBCLs0Df2aXpnWglOZBCPeHUprLgIGqgD+zE0p9pXaMUnkDfMg+UJs0c1kB+LO7wZ/5Bmob0zgQ4s9Czr+m7ZHwZvDn9kCpZ50IxNwJ7twe8Od2QS4vgKby2GIEf24PiFVlUu1sA3/qGyyd9ChenfhHzJ30GPLTr6Nk/hMInvwz7Jr0SztAcMggPOHnCz8fRlKc4OuLZ//8LBZNfBRPWEmL2dnZg14OcAJJJ7cNGki4KwCCIwHRw9MTq9esRuK7U5C4ZFyvnvTmOCQFbETiiT1IeONxXAw7hVGjRmHkCGvJwdbJoJMUdfuWWENDQ6+v6wDh/7f35e9RXNe2/0QstVrC2ImNb5zk+hpjG1ujiePkfXnxs5PcxDbOcJMb49zY17OTeMAMxsaMthmFEKPmWUhCgJAECDQghCaEkGi1BGhWd2vorvmcWu+HU1Vd1d1yMINBcu/vOx/qqjo1qdFeZ++11779jfI+yM4OKP0OY5uqqpAvtkAVhRt2HbPTkBoqwB/Jhsp2mFbqErjdn5icfkDEQCsz5LK/ZJUPAMTKPEi15SBDvfClrvDX6APgcjYxtUQwMOTb8RHohNsAQ779ayB3NYPbsZzJKms6CL69q9k1AaaFsGcVqMiDEgXEMwpu/1rwGRtBxsdYBECWWHpEEjXuBHPwwoFd7NoAfCnLIBzNgXii2IhECFX5kM5UssZRlAkScRkbQXmvn7RYmQs+dzOkjgYokoTXEubjfxIW4L8TH8H42Cgu/unHKEyahy1PsAjCK4kL8LtELYKQ8JifpBgXj8fj45AUF4uXEh9mEYS4OJCbFCXSf2fk8kWoshgGCKE4CN+753tI/+hlZLz4IBuLH0T6i2xkLGbbMl98EBkvzkf6S0lI27sb6V+sQsYrP0fGHx7B+nVrTfoHfsJiGCCE7XawMECYBQCBKBDPVLFwPzWpFlIKufXUdZc7WiIDvZ2saZHIW/P/hEA4nAn5/JnpJYYVGUJlntaWmIKKAoSS3VAuXwSVJRD3kBEhkDvPQGo6HlyySCmUy92aGJG2T7sXSpn+gNzVHHKe1HEa4qkyI3pgdFcc7Yd8rj5keSQlBGJlrrXtNKWgsgwuf1uQsJP5Wkp/j/ValIIoCt5OnI9XE+djSeIjcA0NwrHkpyhMvBdbku7HR4kaQEgISDHExyE2Lh6PxcchIS4WLyUwgLBl69abVs6qPwtfkAzqmwoDBL0iQecJ2GyRWLlyBdY9/UOs+8UPtPFDrHv6B1j/9A+x/ukfYd3TP8TaX/wAa5+Lw9rFT2DdZ59i3Tt/xfpfP8zmvfZ73HvvPUYEwWZjOgthgBC228HCAGHmAwSVUng/fwt85ud+Z6EywSSWZrh2B2I4xKlxcNmbQLzjVodIKaTWWohHsoJ4AcZ8VYXUVgu+IiuIAyC317P8v5Fi0PQPzp4AGegJ6XypLAU3QtLD4ZkbWUvmEGkN6p0Al7pKI99R492pIg/fzmWs6iPgesQ3CT7rC/jbR/tBgm/P6mACo/68dYdDqllSSrH0qcfxRuKD+FviAjRWHELv279B4RPzGElRiyC8mPAonol/FE/FaWWOsSyC8FhcHBLiHseSxIfxRNzjGHON3VCAYH7PZMoD365PIPd0gHgnwwDhDlO3RpstEjFzovHWH/8TbyXNM8bbT8zDO4vuw9tJ8/Bmwr14M+EevPnH3+Ctl/6At998A289eT/efoLt18dPf/YUAwaa6NJ3vhOuYgjb7WFhgDDzAQKlFHJbLeRzDdaVO2ViRtdSAmcm1XGZn4MM9QU4cQI64WKSxiJvbEeAo6SKDKm9XutRoPEUCAHxjLGqBZGHSgmIaxjedf8L7+evG/oIlJuCb8s/LeQ/8UgWpAtntZJKFXzRTvCFOzC14XU/N2LcBV/yUitwSFsH5YrDWMn7dn0Mvnw/+AM7Nc6ACrnzDNM90OSVudQVbI6eTji4D77N//BrMGjRB4PISBQofd0QSvawkHyI904pRcpf/4C/J87Ha4kP4Z/P/BS97z6Pg4nfxZZErYohcQF+l/gonol/zM9BiNOllmMRHxeLlxMfxi9+9pRRaXDdFvB78+1cATLu0so82wxgd702owGCOXJgs0Vi3rx78cLC+/DCgu9i8SPfxYuPfA8vLLgbz82/C8/Nn4vn59+FF579ORY/+3Msfv63WPyLp/DCw9/F4oe/i8UL2L8vLLgbT//fnwdJMIcBQthuBwsDhJkPEFRVharIEOsOMeeqmvQQTA7uqs+lr4Lb61gr5MAVPDfFWPqDfdPyDKgkQqwqAF+wDcrIFSidTRAqskA8o+BLdkO54gAlBHRqHELpHiiDvRYJY7G6wPjDLJ4qg3i8mAkb6amOrmZWpaGLLRHCNAx0MiGl4DM3QDxWDL5kt1F6KTWfgHAwDTqRkCoy+LK9kC80GdEJvmAb+JLdRh8GuauZkR9lCapKIXechlCR4782peCLd4LP3WKJKIQySin6WpvwQeIDeDtpPl6Nn4+iX8fhmF7mmPSAP8WgkxTjYhEfzzQQFsbGIjYuFksSFiA/J/uGRA8sEZ0zxyCYokGUEghVeV/rO/RVNrMBgi0Cd9sjEf9dG/59rg33zrsHP/7hXfjxD+fiie/PQeJ9diTOsyPpvhg88f05WPT4w1gU/xgWPZGARbGPYNG/34Mnvj/HGIn3RSNhXjQSH1/ol2COjIQ9xo7tGWGAELZbb2GAMEsAgkrBZW4EV5RiEPhUVYUqSwb7/1+fQ3PuE274tn4QlF+nigyp/oilg2RQGJ9SyJ1NEA7uMz4r/T1GHwY9L08pBRkfY6AmRIheVVX40tcFlBCyeXzGBkYCVAPSCBrPwbdnVdC5KCHgMz/3Hxc4jxDwJXv85ZiUgvqm4EtZBuqdCHmPwsH9UIzIihr0TqZ9z5Riyx9/hfcSH8SbCfPxt8QFqEq6CzuTvo+liZqSYuIjeDb+Mfw0PhaL4h5nvRhi2YiLi8UrTzz6lUDk6r83WjrBPQLfro+t74xSSOcbIZ2pvmFpjJkNECIjYLdFYo7dhrlz7IiZE4059khER0YgOjICMVERuNMeibnRNsyNsWPunGjMnTsHc++MwZ13xmBuTBTujLZhTlQkom13IDqSDbvdjoiICNijoxA9x47IWVzmGLaZZbMJIJyuPoj27p5vHUAAAJUoEMrT4Nu+1KJ9QCmFb9+aacsdLcBAFMClr4cy4AziGcjt9ax1syKHdIKqFq3gC5KtuXwdIBSlGAqIeqqBigK43M0Wp238LEvgdvn5AmbHpTjPQ6guDAYBlJUtCuVpBqAwrkUJxFMHIbectAgAGc+nERhZeoGAz9/uT0mEAELseS9C7jwT0nlOBxb0++zvbMfSxAfw94T5eD1xPt5MfAh5SfdgadID+FviAryY+CiLICSwCEJCrN6sKRax8XHY+97r1wUQjN+5wIHP/MLKpaBMiZPP3+pvVHUj0hiY4QDBbrchOsaO6Bg7Io0mTaxVc1RAsyW73f+zXp0QGRmhNXryd3qMiLiDAYMYO2xRNtwRwc77bQEIqiKi6EwPZFmGrHzdchwV3c4RNOesw81rO/PttusBCL0X25GdW4gTNTUoLylCd28v8rMz0PsVjri3txcnDxego9e/LTcrExd6v75T10dxZgbO9/Shx3ERzt7ebydAUFUojnZIZ48bTlzfzhftDElUNK+exao8SM0nApyuppaYvQl0yuN3SIGrb42bwKWvN/RC9UYAAB3uSURBVDH2CYh3AnzeNpDRflZ+KEvgD+wGl/m5P5JACMSaEkhttcZcoboAUstJFuJXFIhVeRDPHgdfsANyzzm2ypdEcAXJUC6ztst00gM+byvI+Ci7tmcU3K6VUC62gsv+EtQ9zI7zTYHL+sJo2qQM9oEv3AHinWAr5tpyiA0VQcDA/7wEdHwMfPYmkJH+IH6HGeAol7pCtlXWQcL2//oVPkj8D7yTOB+vJj6ET5J+hBVJD+BvmtSywUGIe5w1a4qPw2PxTA/Bcbr2msin/hSQxCo+Os/4vyuUiT9xWV+AjPTjZvRlmNEAwQoM9KZLjI+gg4Fo09BBgg4MIiK0DpARdyDSFonoGDti5thht0cxYBDh5yF8mwDCgeZLIff9fekXoPIkXn1/C2SPE0cHBVTu3YDLLg9WvfsaJlQV7205FgYIN9GuByA4z9Uht6gcvZpT7myqQVZmBiqOHsfZykLkFBQjJysLmeUNOFyUjZzsPFTX16MwNxNlFUfR1dNrAgjdyMjIREXVMWRlZMNxrgYVDe3o6+tBRkY2GqrKUFR2BNmZGXA4O5GRmY2yAwUoPXIMmRkZKD9cgfrDeei42IPMzCwcPHoM2ZkZuNjnRFZGBg4cOIDs7Cy0dTtmJUAAADLpBhnpBxm+bAIIrMER0doNs20amZBqzY8Kd1hLE1UVKoCpz/5q9E1AwCpa/8znbIJ307uG0BB/KBNy5xlwe1ZDdnYY5xQbjkI8XuwPaU96MPXpS0xjQFNA5HO3QChPM/4gK85zEI5kGseoqgoi8pj6+M+G/gJxj4DL+QJkwMnODTByYX+PBciQsQFwu1b6gc9QH/isjf7ujqIALusL7VrBwEB/Xt/WfzJQEhghMI6hEEr3sv4OkgjhWCHE05Xacf7jKaXwedxYnvQA3kucj7cS5+PVpAXYnPB9vJr4EGvWlLAQT2kchASNg/B4XBzik5KueVXPSl9rWQ8N87MB4Patgdx3wfp7vsE2owGCXubIAEEk7HrEIMoKDKLtbJvNFuFvDW1wDCIQHa0Bg+goRET4AYdZnfHbBBAKGx2QJAmSQjHk7EBtbR14mWJ7xnGoqoK9h9oBOontpybwRUoeAGCkenMYIHwDdr0pBkf3BTQ3nUZBXg7aHHoEoReZGVno6e3DxY6zyCxvwJHibFzU5oSOIHQjK7cIvX19qC7NRk+vE7nZeWg/cwLHWh3Iz8xCXV0d6urqcL6rCwU5OSg7eBidjl4jgqADhKzMIvT19eFYaQEazjYhs6QWfX19qD+SP6sBAqUUXNo6iPVHLH/kqSRC6W61SBaTSQ+4XR8z0aGAUL14vBjSmWMWdUT9XPqQW2ogVhcaOXvS3wMu63Nt9WxtgexL+chP6AsM7bedgtzRyO5NG5RSyBeaQL2TocscCYHUcMSamtD+9SV/GLRqN1IQRIF307uWFAOd9IBLWws66bGkMrSJxmepsQqi3rVxunfS28nKL+UAzQRJAJe+jqVuTMdTSlH62VIceHUJ+rbvhJJfipOv/gmvJDwURFJMiI0zmjUt1HovXI2Zr0dcQ/DtWsW6UZqfraka4rFCqCHksG+0zWiAYLNFsAZL0TZERzMgEBMdFRAxiLRGDHRgEHEH7NE2DRjYLcDALNmsj28TQNiWU4b6+no0tPRZ9oUCCE0H01B9qg6p6z4IA4RvwK4HIDjO1eNEXSNaW1txsCgPzd29KM7NwpmWdhzKy0JdUwtOVZYZAMGhzWuoLsWxxhb0OK0RhKw85tirS7PR09eHxsoSZGTloa+vDxUluWg424rmM7Xo6jqHppZWtLecQllVA47kZaC2sRl1OkDIKjYAwpmOTmRk5KCtrQ2F2RmzGiAwZ7xMIwSaVquqCuFoDqsakCXwJbsgX2wLIY98jqkAEhIUFgc0nsHoALjdq6wERkqhjFwBX7Dd7+hNTpDbvxZ0whUaIJw/A7njdBAZUVUU8OnrWG7czEGgFErvea2iQRc6GgDlvIz4OOkCl7PZouRoiDQdzoRysc2oVhCOZEHubIKZ7Ki/Rz2doAw4weVuDnon5vsh42Pg9q0G9Y4b7zTw96ISBcQzwsCIifRIFBnuNSuh5JWA5JdCySvByv/3U7yYoJMUtRRDfJzGQYjDo7GxV/Vd0N8l5abA521llSLET8JUhi6BS1sfJId9M21GAwS7nbVjZsCAgQMGEKIMkaMgcBDxHQYMYuyIjo5iKYoAcBAKJHxbAELYbm+7vghCL3p6euBwONDjdDKOgdMJh6MHvb29cDgccDqdcPQ40dPjMLgJ+r5eLTWh/+xwMIKhcWyvE46eHsscRw87d0+PQ5vn3+fssZ7H2eOAs7cXvU52jw0V+eiYhsQ4GwACpRTKpW6Ielka9asqcjlfQqwpg3iqXOtaaFrhcl74UpYzTYKvWCFTSuDb/Yk/DK+TCXeuZM6RslSBdPoopObjFpCgXLkIoSjFv5r1jIJLWWZoHpCxIXDp6yFU5bO0gu6gL10Al7aWzZn0wLf1fVDeZ5RIcmnroIo8K0Us2c3q9SmF1FxjvAepqRpCZZ7hHKXGKohV+UHVBzA9F5VE+La/zxpQhSIqUgqqMvATSOoMZcb7ogRK73lD6IlSCml/Bkh+qQEQNv3+t/h94qMGQFikcRAeu0qAYH4mriCZRWMCwJJv1ypDHfFmRw3MNsMBQiSLHBgRBE0e2eYHBWwwMSV7dBRi7oxmpEablWPwnYCmT5Y0Q1gHIWy3ic2mKobpRvmBIhTk56P0UBV6pyFDzgaAoK8YpeYaoyERoAGH0QHmEExpBipL4Mv2Quk5N72eATcFviAZUusp8GV7Gamw/jDEukMQSndDaqszRQMaIVYVsNU874N4rBDyhbMwNAdEAWJtOYSKHEbgo5SpGxbv9Os1aCF5oSoPSneLoVUgt9dBcbQbKQiheKeRLzfmySLEE8WQWmrYH3VJZCJNkx5QQqBc7oJwKBPUNxnkFI3zKAqEwxmm5kyhKxjEmhJITdVfe/Xtv1cJ0ulKiDUlaP3ZPIwnp4AWlmN8XyZeX7RQSzHoQkmxSIiLNZQUH3r00ZDXM98fS4mUgZrTHYQwzYeO0984MNBthgMEBgzs0TbYjVRCIDi4A3Z7FObcGY2YGFayGMhDmHZoMs7hMsew3S72bQAIVzNmD0BQWRXA6YqQUQDdUUjNNRCr86ePGFAC6fRRiMeL/JEAlUI4msuaJ5nTAUSBL3lp0GqbRQYG4dv3mRa1UIOGUL5/2koAKvIMgAScUzxWzEiR08yT2mpZJQdgHEMpBZ+/LfQcLQUgOzvA55mOCfFOyEg/uP1rLOWX1/O7orKEpqRoFCTei22LfoSlCQ/glfiH8GLiI3hG4yCwZk3x0wIE41yEgIyPwpeyDCrvg1m5Uum7AL5k1y0DBrrNcIAQiSi7OWIQYYkalJQcwMmTJxAzx46oqEg8/PBDOHWqBps3f2mAgK1bt+DkyRo8+OCDAeRFPUUxu9s9h21mWRggzB6AAIA1TSpOBV+cam3cpDuRqXH4dq+y6hlYnA1LB3DZX0JVrE5d7m4Bn7OFqRKaz+mdgNxWGxIAqCoF8Y77uyZaUhbUaPAUaq5vx0esvDJgO1NXPBh0Taqq4PasgnLJX2UgFCRDudLD9os8fDuWMg5AwDuZ2vCGJr5kcqCB95P8YdD9XI+pqgrK+xhASLqHSS0n/Qde0asY4h81OAhMajkeCzWAIIpi0O/Wt3OlUXViPBvvgy/1Y8bJCCRh3gKb0QAhMjICEQFRgzsi7oDdbsOcO6Ph8bjg8bgMrYPnn3/O2KZrH+ifn3vuOS1qwM4ZqYED/dxhgBC228HCAGGWAQRK2cr/aI7h4CmloBMu8AXbQFxDRuVBKNNX9YrzHKg2l4yPMRnhcRdUooCKAviCHRArssGX7dO28eDytrCqCL0aQeDA528z1AbJpAd8YTL4oh2gouA/jveBy1gPMuVhzr+2HOLJUq1iQYFYlQ/pTLW2wt+izSUgAg8+fyvIYB975mOFxjnF2kOGmBKZcLF5vklQQiA72sGX7AEZGwBfkAyl74Kx2tbfgRHFIATC4QxIrSdv+OpbVVWQSTeaEu0oSLwHW/RmTQl6N0cWQUh57w3EGUJJcVjw2EJMTk76Iyq15ZAaq6z3zfvA522D0h8s9nQrbUYDBF0USXfidnsU7pzLVBLt9ig0NjbA6XQYUYGFCx9FX58TOTnZBkDIzc1CX58TCxcu1M4TOL5dOghhu70tDBBmF0DQHQSXuwXKQC+TGM7dArnr7FWFxPWQNPVNwrf3M3B5WyA7OxkIoAT8kUxIdYdMq1EK/nAmpDNVjKB4oQlCyR5whcmQ9VJJSsAXpbCKAcOBl/sdunbP8oWzEE8cYGJElELuboNQts8aQaAU8ukKCJW5/lWyb1JLdVAQ9yhLEwRGJDTiolCyy7h36hkJcvrmyIfcXAPhUPpNC8tTSiGPDKApwY6CpHuNCMLfdKnlhMfwVNxj6MlJQXysv4phwcKFmJgYh9LXBb4wxX/vOj+jbB+k00dvG1BgthkOEBhHIDo6CnPnxuCuu+cgOtoesqxRL230f/5O0L7goYGEyDBACNvtYWGAMLsAAjRnSDyj4NLWQqjI1nQJviaRzuQodSfOl+y21NAbx1LWt0A4uM9U5khZx8VJD/jyNC0tEZBiEHjWbdJUemfsFwXIXWf9vRECHDgVOEjt9ZZ5lFIIpw6CukcsvAYzSBD0JkzTAgMVyugA+JxNoFPjNzUsr1IKwdGOpkQ7ChO/xyIIei+GeBZB+MWiBHjKM/HO4v/Eo4/HYlFCHFL/z3wWOXEPW9I28sU2CMWpWlOpW8s1mM5mNECw2224664Y3H33HKNkUQcBoYiIoSobAjtCTjdmK0BwOp034WsVtpthqqqitrb2K48JA4SZZ/5cPYF3w+uW8Pm1n5NCaj0FseZAEOGQKgqkhiOQGis1h05Bx8eYvPKUh2kWyLJljuGwK3P8THuimJw3hdzdAqG6QIs6+Ocoly+Cz9sGqKpWndBtdGNUVZX1YziUbhFeUob6mJCTSYba8r70sHzWl1dVtngjTFUpfA2VLMWQdI8fIGjdHJ+JX4ity/6BsZI0DO9YhZ73/4zxl5+C65f/BoMjQSmIaxjc3k9ATPwI3GbAQLcZDRDuujsGMTFRsNkirTwEDRCMjg7D7R4zPv/617+C2z2GK1cuGY6/v/8y3O4x/OY3v4ZN699giwoECBGzFiAQQiCKYnjMkHE1IefA/yizcdxuK60bYZQS8AXbMPXpEv9K+xrPZQYdvh1LQTlG6CPuYXiTl7IIASFQxgbAZ20EFXl4P3kJqiyz+8j+EvKlbgOsKL2dLLJAiSZ+1AkubR28a/6HrdxNTZa43E0g7mGosgTv2legCpwBUryb3mYVDYoM7/YPtOdk5+TL90M8UYKp9a8FExBhjRrwhcms8dI3tPLWfx8T5ZkaSXEetiT9AB8k/Dv++dTjqHj5Vxh/7Rm4WuvgOpgB985P4Vq+BO4lP4Hrl/cZ31nfuv8FGRsADYjO3K42owFCpM3KEwhMJbhcoxohkX3+7W9/A4/HhdHRYcP5j44OM5Li879l4MAWiSibFShERdlmLUAIW9jCdnuYqrKWxDrrXzxZct1OxAjDX3FArC4AGbrE/oD6psAXpYCMDVrC8nJ3C4SS3aCKDDI2CL50D/jS3SATLkZcHL4EvmgniEmjQblyEXzBdhDe51/dT7iYdoLu0A+kQu5oCEqHKH0XWBdCRbGmLEKAQEq1LpVHslhVxzcAFM33Q4avwL1/Izr+/CTOLnsFjm2r4N61Gp4N78D10Z8xuWUpxppPYqwsA66dq+FevgTuJU/C88v7INaUQqwpMaIktzMoMNuMBgg6SfGreQT+fdOlE/SujxZQYGMdH6NmeYohbGEL2+1hKlHApa8zVukqUcDnbmZyw9cBFPxOTq+zV+Db9t70wkKqCt/+NWyVS6mWRmDyzHLX2dASxqrKUhYCF/L64qmykL0iqMr4F3J3s1HmOZ3pZZasNPAbAgeUiUMJ5ftBRi7D5ezEWGM1XIdz4crbAXfqarjXvwP30j/Dl7wMo2dPwlWaDrcGEFxLfgLX0/do5M+ZAwx0m/EAIRQ4MH+OjIxkZYuR/4JnoLWAZkAh0j9skWGSYtjCFrabbkyoaABSe4BegMDBl7YGdGriuoCCbpRS0CkPuN2rLKt1lRBQngO3+xOj8RJVJEiNjGFPCWHAQeACiIMUxDsBX8oyE+nRFAmgFISbgjf5Q1BuyuIsuYyNkDXFxatJn6kq6+3AZWyYNtJwvWZ+x+KhdEjnGozruC6ew9jpargq8uHKS4E7dTU869+F+4M/QiUKxppPwlWWzlIMK14yUgy3eyphOpvxACEUKNAJiH//+7tYvvwjAwTcf//3sWLFcvzlL/9tgIIlS/6ClSuX4/77/83PPdCAgpn0GAYIYQtb2G6mGYCAmwKfuxlk+LKF9a4MOMEXp1hFk67nOqoKqeUk6/LIeSGU7WciSFRrvlS4Q2sSpTBJ5DOsdl9xtIMvTtFkliVweVuhXL5o9IngC5Oh9HVCrD8MQe8zoacwzjdCOJQGseZAyG6LV3vvqqpCPFnK9BduENHPcp/nGliPCWrlCox1t2O0oRpjFflw56WwSMH6d+BesQQqpRhrqcVYaTrcqZ/Cs2IJXEue9JMUZ6DNGoBgDC2NEBkZaYgg6Y7/hcXPG9t0noH+efHiFwwgwQSSrCWRYYAQtrCF7aabOXIw4YL38zeCyuBk53mIp8pY3v4GAAVVVU1qhRTS+UaI9YcD+AJscLtWgXonQFUVYv1hrXeDppZ4vBjy+UZLZEFVVfh2rwLRek0EchCu7971838MZfCSpVrjmt4DpSDeSfi2/NMSCdGPoSrFaHcbSzFU5MGVl8K4BuvfwcTmDyG1nMRYQyVcZRlwp66GawUjKbqfvS8MEG4NQAjQLAgoW3Q4uuFyjRrkwyef/DHc7jEcP37M4BycOHEMbvcYnvzxIpi7P94RBghhC1vYboFZnCghkBqOaEJDfqdFiQK+PA3yheYbw08w8w92rbJELozjqN/hm/dTSiE7zoHKkmW7fz+B3BlanvnGvCcK6hmFb/uHltbMVxNRMHgGsgQufYOm0mh6dtMzKpKIsa5WLcWQB1e+n4MwmbwSqijA1VoPV1ka3Ds/hXsFIym6np0XBgi3DiBY9QyioqykwyhbpNH6OXi7zQAP/0pDIQwQwha2sH3TZjhmwkL+SlezRc1QVWTweVtBxsduiBaAAT6yv4Qy2Gu5lnyuHnzJHsPpS+114A+kgnhGWJliQbKl0ySbRyC3nIRYkX3T8vBmwCG1nYJgCD2FBiKBAEw8WQqhKt8CgizHUQKx5gC4k6UsgqABBHOKQexqhaqqcLfVsxTDzk/h1jgI7nCK4dYAhIgIPVpgCwAAkSH+jYTdtM2ujUANheDoQRgghC1sYbu1pjsqVVHg2/Y+0wkghO2jFGR0EFzaGsPJXde1wJpIEc8ofNs+gNLvgG/nSiaprCggUxPwbfkHuxYAZbQfXOZGUJVxELxfvAUqy1D6e8DtWR3keG+WGQ4dgHA0B+Lpo4ZOQtBxRIHS7wCXsdESmTGfh1ImJ80XpbBzcl6MdreyFMMRDSCkroZ7zZsgkx6oVIW7/bSWYvgU7uUvw/3yUwZJcSbajAYI/qiBLXiYowk2KzjQR2B76OnaPs/uZk0K+p77ERy/uC9o9L72zxv+hQtb2MJ2bWbOlSv9DvA5my25eJVSyO11EI5kXHe9vfladNJtKBzyJbsZnyAwXaDIkBorIfe0M3Ax4GSRhW+4I2Egr0Io2Q25u8WynbiHwWV+DuIaRqCctMFFGBsEn5/MIjMaWBB4HqNdWgThSD5c+QwguD59jfFENIAwVpoOT6o5ghAGCLcEIJhFjczRAxYdiNSGzfhX32/u1aBHDL4KIMzqCII6BedLvw+xXUDPM/FBm6eGeq5Z3c04dcj/LCoAFf0e8TrP/nVvRgSRrv2JPIPD1zyXDJ6/5rlh+/aaeUUu1hyA2HDUr51AWUdDLmeTFu4nN8xBU1UFl/WFocoYOMhoP8STpbD0Y7iFjtFw9u4hVk55xQH+4H6tEVbw/auqVkFSvJO1oKbUkEdWRvrhLUzG6IU2jDYwgODO28EiBZ+9AcpzUFUVno4zcJWmw6VxEFwvPQn3L8MchFsIEKwpBD8w0IbdxoaFaxARVBr5VdGDWR1B+JoA4czu964CIEx/BOHH0T3sC9rekrYCgIpNR6dpRqQ0ghsagXS+GIrA/vBIlwb+5Z2YzbNnAxT3CEZWrPNvpIPwjshQfORrnUu3o6kZ2k8cvBcHIbWXQBjnoLjc/oNUBQqvwpWXZ5nr27WY3cLl41cNulTfJYie4PcXymRnEah24pE/Pc5Cx642eByTV3m1r2/qeDuI6WHcH78NbkgKceS1h8Gl/N9d89xZYwGrdz59PZThy5a8OeV98K57Barkb/50vfwElVKIzTWQGist0Qvf9g9A3COGPsLtYuaogCoKQZUOFv5C3SFIbbVG8yqWeiDwbXsfZHQAiiz6IwgV+XDnM4DgWvO61qFSxXhnMxNKSl0N94qX4ApHEG4tQGDOn4GBaLsN0QYgYJ/tUZEWEqK5PfR0qothgIB/CRAktxNdLgGHd23AqKMWLoFg/7YUTA5WY9CnoDC9CKo4DKdrCFW9UziTtR0q/ADhVGkGVJWg9GQnAKB5/3IAKj5KroLPcRjDI124wlGUFhxhF1Ya4S7LweSxSqjntkCRVQy+tBIT+zeA9NWAeo5CnJIxvv5FeHe8AlWlIFPnIY4LcJW3AwA8ye9j8nAOhAEP3Ls2QRVHwfWcg3dkCp6uSXgqm6AKbrg3rIDcVsSctiogt+4KhpsyMMD1obzHi6aMDRjtOI5xiSL1s63am+HAjxEAFEMFLfDkZGFgzX6o3g5MXPTA00cwlp0NqSUDVKEY3bo2CCCM13VCOPElSPuXINIIJhzDGMtKh3v3p+BTn4E0MgjV1wfR44Nr52eg7lYILhHu5B0YfvkZ+GqywDlbIYwLGN+7GbIjz3DWo6+9B+/5y5jKWwNP7xTcRYdBrtRA9Pjgrr0Eqfgv4LI+gqoq6Fu6B659W6GKI/C092Fo/TpMlSyFcPhDUFXAYPEFeDPXQ6xagalTR+A6UIMr+5pAaj+B6mkxrqly/eCGJ+HJSYXqGwR/ZRLe7BXAeDYknmDgww/hPfwxxHPZmDx1BIM7C+D6ciXgK4M4RTC8KQ9Xlq2Ct3gtlLF6SBMyxnd/DCn7N1//ez6LzVjBT7jAZW4E8YyaHJ8mZ3wgFcRULnmtK3uzw+ULkyEcTIN4suwbaZZ0I838fuTuVtY1MqACQzxWpIlEUSM6M9rVhrEGTShJSzG4174JOskaL413tWNM4yDoZY6uZ8MkxVsCEKJsEQbZ0AwQou1+EmJgOmE6YaWIiAjoVRGhOj+GAQIzHSBwg+cxLhCcztuBgY5KcETFgbQ0TA3VYEoFsvcfBlQVROxFy4QCIrNVJOEncGHQi6qidAAqCiubAQCt6cuhqhSbjg5CnTgDR18LOEWFLCvswkojRFFD/R1boQIYfGkloPRiOGUNQLrhc1zB6HvPQix5B7JrCApVMfrxc8bq3LNvi/Ec4/vXQBlsgTDUYwAEV24x5P5zAOnB8L5d7EA6iYoeHtJwJQb4PpxXAEfJRlw5WwGiqijYrB1niiCIEzw8OVkYXrYMiuOAHyDsTYbUdQjS8DCG1q4KAghT7QMQ63dAVYGBv78JEA7jxxsg9nZCOlcPxVEEheuHt7sHnuxk0HEnpCkK947N8Kz4Lyjufihj7SCCjIm9m6D0lRnRhtE3PsLknk/gG/NhvHcKrrR9EFsyIHp8mDjvhXL0dYiVqyG7B+D8YDc8e9dD7m+Fp70Prr3pUAY7IB35CICCkXoPfHkbILfvhzQ6ArF/BEMVLtDmz6F6O8GNjAAAfEXLoaoAvVwBxefBZNM5jG9+FZjIgUKB0Q2fQxnpBO2vhjA8At45CM/OTYByErICjKxPw+C6bVCGOkHGGiELKsb3LYd8aAkIL3ztr/psNgs/YegSuMyNWtto0wq5sQpidYG/XfP1RhOMqMTMkRA2AwM66QG3dzVThjRXa3S3gM/dbEnl6GO0qx1jjce0CEIKXKmr4Vn3NoibgbJJRwdcZRlwpWplji//JCyUdIsAwv8Hnfr7VkzgWFYAAAAASUVORK5CYII=;" parent="1" vertex="1">
          <mxGeometry x="130" y="-250" width="520" height="292" as="geometry" />
        </mxCell>
        <mxCell id="KzMME8AJnO-x6P3zgn9o-77" style="edgeStyle=orthogonalEdgeStyle;rounded=0;orthogonalLoop=1;jettySize=auto;html=1;fontSize=14;fontColor=#000000;" parent="1" source="KzMME8AJnO-x6P3zgn9o-34" edge="1">
          <mxGeometry relative="1" as="geometry">
            <mxPoint x="1170" y="-520" as="targetPoint" />
          </mxGeometry>
        </mxCell>
        <mxCell id="KzMME8AJnO-x6P3zgn9o-34" value="&lt;div&gt;&lt;font color=&quot;#FF3333&quot;&gt;&lt;b&gt;Backend endpoint&lt;/b&gt;&lt;/font&gt;&lt;/div&gt;&lt;div&gt;localhost:portNumber/account/get-started-register/&lt;/div&gt;" style="text;html=1;strokeColor=none;fillColor=none;align=center;verticalAlign=middle;whiteSpace=wrap;rounded=0;" parent="1" vertex="1">
          <mxGeometry x="950" y="-599" width="440" height="20" as="geometry" />
        </mxCell>
        <mxCell id="KzMME8AJnO-x6P3zgn9o-78" style="edgeStyle=orthogonalEdgeStyle;rounded=0;orthogonalLoop=1;jettySize=auto;html=1;entryX=0.5;entryY=0;entryDx=0;entryDy=0;fontSize=14;fontColor=#000000;" parent="1" source="KzMME8AJnO-x6P3zgn9o-36" target="KzMME8AJnO-x6P3zgn9o-34" edge="1">
          <mxGeometry relative="1" as="geometry" />
        </mxCell>
        <mxCell id="KzMME8AJnO-x6P3zgn9o-36" value="&lt;div&gt;&lt;font color=&quot;#FF3333&quot;&gt;&lt;b&gt;Post Request&lt;font color=&quot;#000000&quot;&gt;&lt;br&gt;&lt;/font&gt;&lt;/b&gt;&lt;/font&gt;&lt;/div&gt;&lt;div&gt;&lt;font color=&quot;#FF3333&quot;&gt;&lt;b&gt;&lt;font color=&quot;#000000&quot;&gt;{email = string, newsletter = Bolean}&lt;/font&gt;&lt;br&gt;&lt;/b&gt;&lt;/font&gt;&lt;/div&gt;" style="text;html=1;strokeColor=none;fillColor=none;align=center;verticalAlign=middle;whiteSpace=wrap;rounded=0;" parent="1" vertex="1">
          <mxGeometry x="690" y="-611" width="290" height="20" as="geometry" />
        </mxCell>
        <mxCell id="KzMME8AJnO-x6P3zgn9o-38" value="&lt;div&gt;Backend: &lt;font color=&quot;#000000&quot;&gt;Serves the registration page&lt;/font&gt;&lt;/div&gt;&lt;div&gt;&lt;font color=&quot;#000000&quot;&gt;&lt;font color=&quot;#FF3333&quot;&gt;Frontend:&lt;/font&gt;&lt;span style=&quot;font-weight: normal&quot;&gt; change the url to &quot;&lt;/span&gt;&lt;/font&gt;&lt;font color=&quot;#000000&quot;&gt;&lt;span style=&quot;font-weight: normal&quot;&gt;localhost:portNumber/account/registeration/&quot;&lt;/span&gt;&lt;br&gt;&lt;/font&gt;&lt;/div&gt;&lt;div&gt;&lt;br&gt;&lt;/div&gt;&lt;div&gt;&lt;br&gt;&lt;/div&gt;" style="text;html=1;strokeColor=none;fillColor=none;align=left;verticalAlign=middle;whiteSpace=wrap;rounded=0;fontSize=14;fontColor=#FF3333;fontStyle=1" parent="1" vertex="1">
          <mxGeometry x="960" y="-240" width="510" height="20" as="geometry" />
        </mxCell>
        <mxCell id="KzMME8AJnO-x6P3zgn9o-39" value="" style="shape=image;verticalLabelPosition=bottom;labelBackgroundColor=#ffffff;verticalAlign=top;aspect=fixed;imageAspect=0;image=data:image/png,iVBORw0KGgoAAAANSUhEUgAABPwAAAJsCAYAAABpi72PAAAgAElEQVR4nOydeZhcdZ2vvc+d55k/Zhz/8P4x99EZ4aK0EQIj4Q4qGhyZUa/QIQmrLAZkkUVBljEwEUQBwbAqOGEQRxYNI0tUAiRCwiRASEMIIQl0Okmv6T291L4vn/vH6Tp1zqlTVaeqq7uqK+/7PO+Dqa7qru4np+x68/v9vh/qbG0RIiIiIiIiIiIizn0TiYw+VO8ngYiIiIiIiIiIiLWR4IeIiIiIiIiIiNhEEvwQERERERERERGbSIIfIiIiIiIiIiJiE0nwQ0REREREREREbCIJfoiIiIiIiIiIiE0kwQ8REREREREREbGJJPghIiIiIiIiIiI2kQQ/RERERERERETEJpLgh4iIiIiIiIiI2EQS/BAREREREREREZtIgh8iIiIiIiIiImITSfBDRERERERERERsIgl+iIiIiIiIiIiITSTBDxERERERERERsYkk+B0C7j/1SEREREREREQ8xKx3j8D6SfCbg9b7BQMRERERERERm8969w6snQS/BrbeFzoiIiIiIiIiYr37CFYuwa+BnL2LtQURERERERERm04CIBoS/OrojMa7VkRERERERETEKWcwEta7r2ChBL86OO2w11poya+HiIiIiIiIiIecFbeCaYbAevcWzEvwmyVrEfcKPiciIiIiIiIi4jQt2RuqjID17jCHugS/GbbiyNfqfsHV++JHRERERERExEPHok2iwvhX7y5zqErwmyGriXy2x8+y+1o/jYiIiIiIiIhzxIYIgBXEv3p3mkNNgt8MWE3om7VgtwgRERERERERm9ZZCoa2luEx/NW71xxKEvxqqKfQ12ov4zUJe1W+COxHRERERERExDlvLeNgtSv/7PGP8FdvCX410uuKPvP+HvUa92wXegMsLUZERERERETExtJTJHQ+xmO/sPUODyv+6t1xml2CXw2sdeizXVxFwl5lF/U8RERERERERDzkrDwGlgqAtQ5/9e45zSzBb5p63b473chXbczbuwgRERERERERD1WrjYLTjX+2FkL0m3UJftOwXOzrbK0g9HlexVeboLcPEREREREREZvG2gVBj6v/Kg1/RL9ZleBXpV628FYT+koFvkoj3t5Fn0FERERERETEQ9xK42CpAFhN+DMbSYktvvXuPM0mwa8Kp7OF11voKx35PEe906qzY9E8RERERERERGwwq32f7zUGVhL/Kg1/tlZC9JtxCX4VOp0tvF5DX6nI5yXqVfyC0QD/2oCIiIiIiIiIlVmTYOj4nN7iX+nwN50tvvXuPs0iwa8Cq419zlV9XkNfucA3rXhX7b8KICIiIiIiImLjOY1IWOrzuMW/suHP62o/ot+MSfDz6LRiX5GJNm6hz3Ul39RF5ynueXwh6CjqUYiIiIiIiIjYsLq/n59OGCwaAMus/HM958/jaj+zpRD9ZkSCn0fLndtXLvbZV/V5CH0ukc9L3HMLd3u9uhgRERERERERG16P7/PdQqGXCFgq/nkJf87VfiUn+RL8ZkSCnwerWd1XaezzFPpc416RqLe4kn8dOBoRERERERER55ze3ve7RUJrCCwWAMuFv+lGP7OpEP1qLsGvjNONfc4tvF5DX9Fz+5yBr2jYs78I7Cli0ReNxYiIiIiIiIjYMBZ5/+79/X7pEJjvDe4r/yoLfy5bfIl+syrBr4yzFftKrebLreRzX5JbeJGXinZ7TOcjIiIiIiIiYtNovN8vFQvdY2DhkWCuK//cwt8sRL96d6G5KsGvhJWe2+ce++xbeMuu6nOs5nNfyee4UAuCnrcXg3ZEREREREREnPNWEgVtDaEgALqv/HOGPy+r/QoGeng5049VfjWT4FfCSlb3lTqzr9JVfUZFd67my0c+6+q9cjFvzxI3jylqvV+kEBEREREREbG4pd7TuzUA83FFtK4CdI1/Zp+ofLVfJWf6ma2FVX41keBXxGKr+zpbS6/uqyr2uWzddQ19RSJf/qK3B72qX0CWICIiIiIiImLDOe1IWDoCWlf+uYW/gq2+1Ua/Ult7WeVXEwl+Rax2dZ/X2Fe4qs+5ddce+pxbdZ2Br1y8K/0vAIiIiIiIiIjYTJaLhMb98gHQbeuvM/zltvratvlaVvt5iX6s8psdCX5FLAh+udtbZy72WVf1uYW+spGvSNhrL+VSp8ciIiIiIiIiYsPqeB9f4j1/0RDoOf45w599td/MRj+C33Qk+LlYzeq+/FZe+5COymKf/Yw+t9BXbvVeYczLvyh8sORYtSMiIiIiIiJi0/rBkmMLA2GRCOi2CtAt/BWe8ec9+rkN8Si1tddsL6zym5YEPxe9nt3neXWfS+wzB3MsLr2qr1jocw98x5YNex/kXPoPiIiIiIiIiNgsLinfA8wI6BIAi4W/Uqv98lt8i0e/qlf5EfymJcHP4XRX9xWLfc4BHdbYt/fMBRp9+DYlh/sEAAAAAAAAANCoJIf7NLrqJ9p75gJb9Cs1yMMt+rHKb2Yl+DksFvwqXd3nupXXuo13KvZ1fvtkJfq76n29AgAAAAAAAAB4JnGgU53fPtnWOJzRr/jW3vKr/Ah+05Pg57DSYR1eVveVOrMvtndnva9RAAAAAAAAAICKiX7wTskz/Wqzyo/gV40EP4fTXd1XaiuvM/aNPHRLva9NAAAAAAAAAICqGX7gJvfoV2Jr73RW+dW7G80VCX4WKx3WUcnqvtyQDuuAjljHe/W+LgEAAAAAAAAAqibW8Z7L9N4arvJjW29VEvwsVrqdt9zqvmLn9uWm8WYiwXpflwAAAAAAAAAAVZOJBC3Te8uf51d0lR/bemsqwc+il+m8tVjd13Ha0dqz+Oh6X5MAAAAAAAAAANNmz+Kjzd5Ry1V+ZpNhW2/FEvwsVnJ+n1vwK7a6z7mVt2Px0dqzeH69r0cAAAAAAAAAgGmzZ/F8yyq/fPQrPrXX+7Zegl91EvymrPT8Pq/beZ2DOnKxj+AHAAAAAAAAAM1ArnN0LHau8juqNtt6OcevYgl+U3o5v69wOm/hdl7nZF7n6r49ueC3hOAHAAAAAAAAAHOfPUvmT0W/Iqv8HL3EbVtvsWm9Zpsh+FUkwW/KSoKf1+28BWf3TcW+doIfAAAAAAAAADQJe5ZMtQ7XVX7T29ZrthmCX0US/Kas5Py+irbzLnZf3dfOll4AAAAAAAAAaAJyC5ucq/xsE3unsa2Xc/wql+A3ZTXn97lt5y02rMO5uo/gBwAAAAAAAADNgLV1uK3yKxjeUbCtt/Jz/OrdkRpdgt+U5YJf5dt58wdUWifz5i4Agh8AAAAAAAAANAPtlgVO9om9pYd3VLStl+BXkQS/1umd31dqO6+5uu+0/GReM/hxhh8AAADUgmx2egIAAABMk/Yl8x3beuebPaSjgmm9nONXOwl+rRVO6PV4fl/x7bzHmP8FAAAAqAprsMtkLKY9ankM8Q8AAACmibV1lNzWW+U5fmajIfh5luDX6h78Kh3YUWw6r+t23iUEPwAAAKgQ18iXltIpw1TSZjaZsOn8uPk4awAk/gEAAEAV7FlyTMEqv8JtvcXP8fM+uIPg51WCX2s1E3o9nN9nm85buJ23neAHAAAAXigW+axhLxFXNhFTNh5VNhZRNhp2NxYx7pOIGY+xhsBi8Q8AAACgDO0uwW/P4vmepvU6z/FjUm9tJPi1egx+iyoLfuW28xL8AAAAoCQFK/ryoc+IfFOBLxpWJhJSJhxQJuRXJuhTJjCpTGBSaf+E0v4J88+ZoM+4TzigTCRkRMBcAMzFP2v4Y8UfAAAAeKB9yTFlt/VWFPwWEfymK8GvtfYTeoud39duDX8EPwAAAChGudCXi3xTgS/tG1d6YlTp8RGlxoaUOjio1OiAUiNTjg4Yt40NKT0+YtzXN54PgLn4Vy78AQAAALhgDX5m+/B4jh+TemdGgl9r9cGv3MCOUuf3tS89tt7XIwAAADQazu27bqEvHLRFvtTYkFIj/UoO9So50K1E334levcq0bNXiZ6OKfcat/XtV3KgW8mhXqVG+o0AaI1/4WCR8Mc2XwAAAChO+9JjPZ3jN+1JvQQ/zxL8WmsT/IoN7NjjCH651X0EPwAAALBRbFVfIq5sLGIJfWNKjQ0rNTKg5GCPEfi69yi+f7fiHe8p1r5dsfe3Kbb7LUV3tSm6q02x3W8Zt7VvV7zjPcX371aie48RAAd7jFWAY8NK+8by4S8WUTYRZ7UfAAAAlKV96bGObb25c/yKD+4g+M2sBL9W78Gv0gm9HbaBHfbz+z5YQvADAACAKZyxL7eqL3dGX8hvrOgbHzFW8w10K9GzV/F9uxVr326EvR1vKLJtk8JtGxV+82WFt6xX+I11hlvWG7e1bVRk2yZFd7xhhMD27Yrv261Ez14lB7qVGuk3tvz6xpUJ+fNn/OVW+xH9AAAAwIUPljiD3zFmD+mo0aReo98Q/LxK8Gt1BL/cba3VBr/8hN5c8HMb2NFO8AMAAACpZOzLRELGqr6JUaVGByyhb5di728zIt/bryq8Zb1Cm9cquPEPCrz8jALr/kuBl1bL/+Lv5H/xdwq8tNq47eVnFNz4B4U2r1V4y3pF3n5V0R1vKPb+NsX37cqHv9EBpSdGjdV+kRDRDwAAAErS7hL82m3Br8ik3kqDXyvBz6sEv9bqg18lE3ptAzuWEvzg0CWdTikaDSsY9MnvG9fE+IhNv29cwaBP0WhY6XSq3k8XAGDmccY+yxbetH/CWNU3fECJvv2K79+t2AfvKLrjDYXbNii0+QUFNzynwEur5Xv6YR38xb9pcMUy9V11SsHvO31XnaLBFct08Bf/Jt/TDyvw0moFNzyn0OYXFG7bYIS/D94xtvv27Vdq+ICx2s8/UbjF1xr9AACaHH5/BShP+5Jj1b60/OCOUpN6CX61leDXWnnwKzWh1y34uQ3sIPjBoUQmk1YkHJRvcqzgF6Ry+ibHFAkHlcmk6/1tAADUHreVfbGIMuGA0r5xpcaGjXP6ejoU69ih6M6tiry1UaHXXlTw5WflX/Nrjdx9rXov+nLFv//0XvRljdx9rfxrfq3gy88q9NqLiry1UdGdWxXr2KFET4dxvt/YsLHFNxwwop/bSj8AgCaD318BKsMIfsUHd3gJfkb0I/jVykM++NnP7zvS9pfJPfjNKxn89pYJfu0EPziEyGazCocCtl+Axve/r/EXf6uhldeq+1tfLLgmu7/1RQ3dc4PGX/ytxve/b3tsOBRQljeWANAsWLfyplOW2Becin1DxhbernbjnL53X1d4y3oFN6yR//nHNHT7FfbXz7MXaPT+5QpvfUXRXW1KdLWbXyrR1a7orjaFt76i0fuXq/vsBbbHDt1+hfzPP6bghjUKb1mv6LuvK9a+XYmudmOL79jQVPQL5qNfbnovW3sBoIlw+/11cmJU4ZBfiURcqWTCtoovnU4plUwokYgrHPJrcmKU31/hkCQX/NrLBL9ik3r3Orf1ugQ/U0fHqXdXalQJfjMU/Pa4BD/rhF6CHzQ7iUTc/IVnfM+7GvzFCvVe9tWKr9Hey76qwYdu0di+3eYvXIlEvN7fHgDA9LHEPqWSxpl9U9t4c7Ev3vWBYh+8o8g7mxV67UUF/vy0Jh6/V93nHG++Tg7ffoWiu9oq/vLhra9o2BINu885XhOP36vAn582Vvu9s9nY4tv1QT765bb3xqOW6b2s8gOA5sD6++vE+IiCQZ9SyURVnycY9NmCIb+/QrNjDX7OSb0djkm9BL/ZkeBXh+BnTK8h+EHzYv6r6FCvhn51Z02u1a7Tj9Hwb1ZqYqjX/NdSAIA5S8G5fTFjGm/Qp/T4iLGNt6tdsfe3KbJtk0Kb1yrw0mrbqr6Bm86vKvQ5ie5q08BN55ufd+j2KxR4abVCm9cqsm2TYu9vM1b6DfYoPT6iTNBnTO9NxNjaCwBNg3VVX8A/UVXoc5JKJhTwT9hW+wE0K+1LjnWZ1Evwq6cEPy/Bb1F1wW9PsRV+UxcCQLORzWbNf80c3bhGPRcurPk123PhQo1uXGP+qytbJABgTuLcyhsNKxPyKz0xquRQn3FmX/t2Y2Xf5rUKPP+EBlcsM18L/X98rOZPyf/Hx8zPP7himQLPP2FEv3c2G9t7ezqUHOozpveG/Eb0c27tBQCYY1h/f50YH1EsFqn514jFIrZVg/z+Cs1IbmGTW/DbU23wW0Twm44EP9tfFJe/SK21CH7HEPzgkCAY9Gm8d68O3Pm9Gb92D9x5tcZ79yoY9NX72wYAqAzn6r7cVl7fuFKjA0r07VOsY4ci218ztvG+tNqMfd1nL6jJqr5iRHe1mef7Da5YZqz0e+1FRba/Zgzy6Nun1OhA/jy/3NZeVvkBwBwlF/smJ0ZrsqqvGKlkwtwuzO+v0Iy4B79jZij4MbjDiwS/KoPfPmfwO+0z6igIfvOLB7+l/1Dv6xGgpoRDAY33dKjne4tm7frt+d4ijfd0KBIO1vvbBwDwjnV1XyJubuVNjQ0b5/bt263oe28qvGW9Aut/b27j7T57gW0Qx0yR6Go3o9/IymsVWP97Y5DHe28qvm/31Hl+w5atvXFW+QHAnCS3jXdyYtQ2iGOmSKdTZvTj91doNj5Y+g8lgt98W/Az2ok9+O0j+NVcgp/H4Le/yuDXTvCDQ4BEIq6J4T71fH/JrF/Dvd9fqomRfg5CBoC5gTmZ17m6b0yp4QPGVt73tyny1kYFN6zRxOP3mq93M7myz0l0V5v5dScev1fBDWsUeWujcZ5fT4dSwweU9o0VrvJjYi8AzBESibi5zXYmV/Y5SSUT5tfl91doJooFv/Yqg99+gt+0JfjNUPDrKBb8lhL8oLnIZrOanBhV348urtt1fOCu72tyYpTzUACg8XE7uy+3uq+/S/G9OxV993WFNr8g//OPmdN4gxuem/WnmjvTr/uc4+V//jGFNr+g6LuvK753p5L9XfZVfpzlBwBziNzvrxPjI4rHo7P+9XNn+vH7KzQTZvBb6h78Ogh+sy7BrwbBzwx/ZvA7muAHhwzhkF/Df/pN3a/l4T/9hq0RAND45ILf1GTeTCRknN030m+s7tv9tsJtGxR4+RkN3Xa5OluNabz1Ije9d2TltQq8/IzCbRsU2/22scpvpN84yy8SskzsJfgBQOMTDvnNabz1Ije9l99foVnwFvyOtgU/a1Mh+NVegl+Z4JfbO07wAygkk0lrvHevOs/8bN2v5c4zP6vxng5lMul6/1gAAIpj3c4bi+Qn8w50K75vl6I73lBo8wvyrXnUfH2bza28Tqxbe31rHjVW+e14Q/F9u5Qc6M5P7I1F7Nt6AQAalEwmXZetvE6sW3v5/RWagZkKfvtaXaIfwc+TBL9aB7/FBD84dIiEgzpw7w11v45zHrj3Bv6VFAAaF7ftvIFJpQ4OGpN527cbZ/e98qxGVl6rztYWDd9+Rb2ftYanhoaMrLxWwVeeNc7ya99uTOw9OKhMYJJtvQAwZ4iEgw0zKTc3IZjfX6EZ8Bz8FhP8ZkuCX02D31Guwa/dGv6WHkvwg6ZhsnuPOpfOr/t1bLp0via799T7xwIA4I5jOq+5nXf4gBJd7YrubFP4jXUKvLRavRd9WZ2t9V3dlyO89RV1trao96IvK/DSaoXfWKfozjYlutqnhnfktvUyrRcAGh/f5FjdV/flyA0O8U2O1fupAEybfPA71gx9ZgspCH5HEfxmQYLfNINfh3V4R6ngt4TgB81FOp1S/89X1P0adtq/6lal06l6/3gAAApxnt8XDhjbeQd7FN+32xjWsel5+Z5+WJ2tLeo+e0FVXyYTDsr37CPqv+4MdZ11nLrPOV4DN5yt8Bvrqn7q3WcvUGdri3xPP6zQpueN4R37dis52GNs6w0HOMcPABqedDplDsuohmAopHUb/1v3P/yIVvz0Lt1850r9/JFHtW3He6r2VS83PITfX2GuUxD8lngLfrmmQvCrvQS/mQp+iwl+0NxEgz51ffP/zuw1uvgojf3Hbeo64x88P6b7opMUC/nr/eMBACjEen5fPGqc3zc+omR/l2IdOxTZtknBDWs0+sCN6mxt0ej9yyv+ErH3t6n73BM0eMvFCr/5slIHB5UaGVDg5WfUffYC+Z59pKqnPnr/cnW2tmhs1a0KblijyLZNinXsULK/S+nxEeMcv3iUc/wAoKGJRkKaGB9RuIrfFfd39+jmO1fqiaefVfveffIFApr0+/XOezv1o5X3aO2fX6nqOeUGiMRikaoeD9AolA1+iwl+sy3Bj+AHUBUTb22Y0Wuz99J/VnzfLklSrH27ubrEixPvvl7nnw4AgAvOgR1Bn1JjQ0r07VesfbvCbRsVePkZDa5Yps7WFoW3Vv7mMdHVrvCW9a4fC7y0Wl1nHWdsu62Q3LbewRXLpqb15s7x26/U2JAyQR+DOwCg4cmdmZdIxCt+7NjEhLr7+lw/9u6u3brxtjuUTFX++prb1tsIZwoCTAeCX+NJ8CP4AVTF4K/vmrHrcuSeG5SNhs2vFd+3W93nHO/98U/9ex1/MgAARZgKfgUDO3r3Kvb+NoXffFmBdU+p76pT1Nla+/P7Et171NnaonQVW9ly03r7rjpFgXVPKfzmy4q9v02J3r2FgzsIfgDQoPh94zNyft/A8LD+9dbbFI5UvkovN63X7xuv6XMCmG0Ifo0nwY/gB1AVfbd8u+bXY9eZn1Vw4x9sX6fS2NfZ2qIDP7m8Tj8VAIASuAW/0QElejoU2/2WwlvWK/Di6vwvaV3tNf3ykXdeU+dpnzFW4VVIoqvdfF6BF1crvGW9YrvfUqKnQ6nRAYIfAMwJJsZHZuS8vNfb3tId9/+iqsfmzhWcGB+p6XMCmG0Ifo0nwY/gB1AV3Zf+c2XX22nzNHz7lepc9GnXj/d/f6mSgz22r1FN7OtsbVHPFd+ozw8FAKAUjuCX9k8oNWIEv+guY0Kv/8Xfma9ltWb4zqs1dNsVVT8+97z8L/7OmNS7q80IfiMDSvsnCH4A0PDUOqxFolG9ue0d3XznSrXv3dcwzwugHhD8Gk+CH8EPoCq6zvuc92tt8VEKvW5Mh4zv363+686wfXz813cVrDipNvZ1trZU9twQERvUWhJ5a6M6T/uMEj0dVX+O3PPKvTFFRJyrTpf7H35E/3bHnfrXW2/TD358m7bteG9an69WzwugnhD8Gk+CH8EPoCr2Lz7K83XWe9FJSlvPJclkFFj/e/Vd+Q1Ftr9W8LmnE/s6W1sqem6IiI1qrbb0Jvr2GxN61zxa/eewbOmt9xt1RMTpOt0tvf5gUBM+n3oO9Ou/t7ypH628R6++saWqz8WWXmgWCH6NJ8GP4AdQFZ1LKotq/defqWwiVvbzTjf2dba2qHPJUbPwEwAAqBCvQzuu/IY6W2sztCM1NqSeCxfq4IM/nNbnMYd2XPkNhnYAwJxlpoZ29Bw4oOU/uV0Tvson7TK0A5oFgl/jSfAj+AFURff5lW+bHb79SimTKfo5axL7WlvUff7nZvEnAQDgkangp1RS2VhEmaBPqbEhJfr2K9a+XeG2jQq8/IwGVyxTZ2uLwltfmdaXywQm1Xf51zXys2tKvvZ6Ibz1FXW2tmhwxTIFXn5G4baNirVvV6Jvv1JjQ8oEfcrGIsbxDAQ/AGhQgkGfJsZHlEjEa/65f3LPfXp31+6KH5dIxDUxPqJgsPJYCNBIEPwaT4IfwQ+gKnqvOrWqa27sP253/Xy1in2drS3qverUWf5pAAB4wBr84lFlQn6lx0eU7O9SrGOHIts2KbhhjUYfuFGdrS0avX959V8qGlb/dadr6NZLq5rK62T0/uXGa/iqWxXcsEaRbZsU69ihZH+X0uMjyoT8ysajBD8AaGiikZAmxkcUDvlr/rl/cs/92vbezoofFw75NTE+olgsUvPnBDCbEPwaT4IfwQ+gKoZu+07V153/j4/ZPlctY19na4uG77q6Tj8VAIASZLPGSrtUUtlETJlwQOmJUSUHexTft1vRd19XaNPz8j39sDpbW9R9zvHVfZ1UUoM/vFADN53v6SgFL+Reo31PP6zQpucVffd1xfftVnKwR+mJUWXCAeNrpZLG90jwA4AGJHde3uTEaMWP3b5zl/oGBlw/dmBgUP966206OF75ttzJidGanCsIUG8Ifo0nwY/gB1AVk8/8R/XX3qJPK7zlz5JqH/s6WwuDIgBAQ5ALfumUsom4MpGQ0r5xpYYPKNHVrujONoXfWKfAS6vVe+FJ6myt4hy/TEbDd12jA99tVXpi1DhXz2mFW9ly23l7LzxJgZdWK/zGOkV3tinR1a7U8AGlfePKRELG502nCH4A0ND4Jg9WdY7fW9vf1U2336mn//S89nf3KBAManxyUtt2vKfb7r1ff1r354qfS247r2/yYMWPBWg0CH6NJ8GP4AdQFbkD3Ku16/RjFHhpdc1jX2dr7SZbAgDUFGvwcw7u6NunWPt2Rd7aqOArz2pk5bXqbJ06+7QCYu3by75GDq5YVtHnHL79SnW2tmhk5bUKvvKsIm/lzu/bVziwg+AHAA1OJBys+sy88clJ/fGl9Vr50L/rptvv1E2336mfP/Ko3np3R1XPJXemYCQcrOrxAI0Ewa/xJPgR/ACqI5VU7yX/VPdr2GnvRV823nACADQizsEdIb+xrXegW/F9uxTd8YZCm1+Qf82vzde1WkzrrRbrP+741/xaoc0vKLrjDcX37VJyoNvYzhvyM7ADAOYMmUxaE+MjMzKttxJy03knxkeUyaTr9jwAagXBr/Ek+BH8AKpm4skH6n4NO5148oF6/1gAAIrjPMcvt613pF+Jng7Fdr+tcNsGBV5+RkO3Xa7O1hYN3nRB3Z7u4E0XqLPVWN1nTOfdoNjut5Xo6VBqpN+ynZfz+wBg7pAblBEITNbtOQQCk6zug6aC4Nd4EvwIfgBVk54YVdfpx9T9Os7ZdfoxSldxCDMAwKzhtq036FNqbFjJ/i7F9+40hndsfkH+5x9X9ypXVJEAACAASURBVNkL1Nlan7NJ/X98TJ2tLeo+e4H8zz9urO5793XF9+5Usr9LqbFhZYI+tvMCwJwjm82awzLqMR03FouYw0OyvGZCk0DwazwJfgQ/gGkxturHdb+Oc449cke9fxwAAKXJZu3beuNRZcJBpX1jxvCOng7F3t9mnOW3YY0mnrjXfI2bza291q28E0/cq+CGNcbZfe9vM1b3DR9Q2jemTDiobDxq387Lm1cAmAPkBmbM9tZe61beRIVDlAAaGYJf40nwI/gBTIu0f0JdZx1X92u5+9wTlKnjtgwAAM84pvXaVvkNdCu+b7ei772p8Jb1Cqz/vbm1t/uc42dlKFGiq90cqDSy8loF1v9e4S3rFX3vTcX37VZyoNu+uo/pvAAwR8lt7Z2cGFV6Fs6ATqdT5spCtvJCs0HwazwJfgQ/gGkT3LCm7tdy8NU/1vvHAADgjVzwK1jlN67U6IAxsbdjhyLbX1PotRcVeGm1BlcsU2erEf1mcqVfdFebGfuGfnK5Ai+tVui1FxXZ/ppiHTuMybyjA8bZfc7VfQQ/AJiD5CblTk6MzuhKv1QyYca+cMg/Y18HoF4Q/BpPgh/BD6AmjP783+p2HY/+/N/q/e0DAFSG21l+uYm9Q33G1t727Yq8s1mhzWsVWPukGf06W1vk/9PjNX9K/j89bn7+wRXLFFj7pEKb1yryzmbF2rcr0dOh5FBffjIvZ/cBQBOQzWbN6DdTZ/rlzuybGB9RMOjj3D5oSgh+jSfBj+AHUBtSSQ3ccPasX8P9N5xlrC4BAJhLOFf5JWLm1t70+IiSgz1KdLUb5/lt22REv5dWa+i2K8zXv8GbLqjJar/orjZzGm9na4tGVl5nrOzbvFaRbZuMc/u62pUc7FF6fMSylTfG6j4AaBpy23tz03trsdovlUyY03jZxgvNDsGv8ST4EfwAakYm5Ff/tafP2vXbf+3pyrAlAgDmKpZVfratvf4JpcaGjPP8uj5Q7IN3jJV+r72owJ+f1sQT95rTeztbWzR8+5UKt22o+MuH2zZo+PYrzc/TffYCTTxxrwJ/ftrYxvvOZsU+eEfxrg+mzu0bUto/Yd/Ky+o+AGgiEom4ue02txovWcVgjWQibls1ODkxyoAOaHoIfo0nwY/gB1BTsvGoRu6+bsav3ZF7bzDecAIAzFXMib2Wrb2xSP48v6nol+hqV6x9u6Lvvq7wlvUKblgj//OPa2Sl/bW2+5zjNfrAjQq3bVBs91u2AR+JrnbFdr+lcNsGjT5wo3lOn/mauvI6+Z9/XMENa4wBHe++bmzj7WrPx77cuX2xSOFWXoIfADQJ2WxWkXDQjHW5YBcOBZRMxJVKJW0DPtLplFKppJKJuMKhgC0Y5lb1sYUXDgUIfo0nwY/gBzAjRLZtUs+FC2t+zfZcuFCRbZvq/e0BANQG59ZeM/oFpqLfsLG9t6dDsY4diu7cqshbGxV67UUFX35W/jX/qZGV16r3wpMqfj3tvfAkjay8Vv41/6ngy88aq/re2qjozq3GgI6eDiUHe5QaG56KfYF87GMrLwA0OZlMWpFwUL7Jg7aA50Xf5EFFwkFlMul6fxsAswbBr/Ek+BH8AGaMbDyqiSfvr8m12nX6MZpc/SCr+gCg+Sg4zy+eX+nnn1B6fESp4QNK9O1XfP9uxT54R9EdbyjctkGhzS8ouOE5BV5aLd8zD2ts1Y81+MNl6rvyGwWvo31XfkODP1ymsVU/lu+ZhxV4abWCG55TaPMLCrdtUHTHG8YW3v27lejbr9TwAaXHR/LbeGMRZRNxYh8AHHKk0ynFYhEFgz75feMFgc/vG1cw6FMsFrGt/gM4lCD4NZ4EP4IfwIyTGj6gsYd/or7vfK3ia7TvO1/T2H/crtTYcL2/DQCAmcG6tde60i8eVSYSMgZ5TIwqNTpgbPHt2av4vl2Kvb9N0R1vKPL2qwpvWa/Q5rUKbvyDAi8/o8C6/1LgpdXyv/g7+V/8nQIvrTZue/kZBTf+QaHNaxXesl6Rt181Qt/72xTft0uJnr3GFt7RAWMab9CnTCSkbDzqvrKP4AcAAAAi+DWiBD+CH8CskhobVuDPT2v0/uXqWfalgmuy99v/pNH7lyu44TkiHwAcOpSIftloWJmQX2nfuLHab6TfEv52G+f77Woz4t+2TQq3bVT4zZcV3rJe4TfWGW5Zb9zWtlGRbZsU3fGGorvaFGvfrvi+3fnQN9JvrOrzjSsT8hvTeIl9AAAAUAaCX+NJ8CP4AQAAQCPgjH656b2WLb6ZoE9p35hSY8NKjQwY5/v17Veie4/i+3cr3vGeYu3bFXt/m2K73zJC4K42xXa/ZdzWvl3xjveMbbvde5To22+c0zcyMHVW35ixqs+5hTedIvYBAABAUQh+jSfBj+AHAAAAjYIt+mXy0S+ZUDYRM1b7meFv3NjqOzZkrPob6jVW/vXtV6J3rxI9e5Xo6Zhyr3Fb334lB7qVHOpVaqTfmL47MWqs6MuFvmjY+Fq5VX25abzEPgAAACgCwa/xJPgR/AAAAKDRKLbazxr+IiFlQn5b/EuPjxgB8OCgUqMDxsq9kQHjfx8cNALf+Ig98oX8xjl9rqGPVX0AAABQHoJf40nwI/gBAABAI5KLbKXCX+6Mv0hImXDADICZwKQygUljyq9/wvyzGfjCgXzki0fLhz5iHwAAAJSA4Nd4EvwIfgAAANDIOLf5WsJfPv7F8wEwFjFCnpuxSD7wJeL5yOcMfazqAwAAgAog+DWeBD+CHwAAAMwFClb8WeKfJQDaQqBF58fNx7lFPkIfAAAAVADBr/FMJDL6UDyR1aFqLJ6xmFXMcVs0llHU/N9pRWMZRWJpRWNpRaJphaMp87+hSMr8byiSVDCcVCCUMAwb//WHEvIH4/IF4/W+HgEAAGCu4hr/pgKgJzNEPgAAAKgZvmBc/mBcfkcDCYQSCoaTCkWStmZibSmR6FRjmWou0VjaaDBTTcbWbRJZo91Ybqt3V2pUCX4EPwAAAJjLWINdNQIAAABME4Jf40nwI/gBAAAAAAAAAFQNwa/xJPgR/AAAAAAAAAAAqobg13gS/Ah+AAAAAAAAAABVQ/BrPAl+BD8AAAAAAAAAgKoh+DWeBD+CHwAAAAAAAABA1RD8Gk+CH8EPZpBYLKb/8T/+h4466iibxxxzjO644w4lk8l6P8Wa8uCDD2r58uVFP758+XLdeeedFX/eVatW6bDDDlNLS4u6u7un8xRnnM2bN9v+7PP59KEPfUivv/56nZ4RAETeeU1dZx2nA1edYrP/2tMVWPdUTb9WJhxQZ2uLYh+8U/J+oc0vaPT+4q+XjULkndfUdcY/qO/yr+e97F80dOulCm99parPmfaNKTlQ+Wt5eOsr6jxtnvln/9onNf7Y3VU9BwAAK+vWrdPXvva1gtvb29s1b948Pffcc/r85z+vJ554wvXxmUxGn/vc5/SHP/xBkpRMJnXvvfdqwYIFamlp0RFHHKEFCxbo7rvvViwWm9HvBaBeEPwaT4IfwQ9mkFgspr/8y78suD0YDOpb3/qWrr766jo8q5ljJoJfOp3WX//1X2tgYGC6T2/GicVi+shHPmK7LZ1Oa+vWrQoGg3V6VgAQeec1Df34soLb075xDd78bflf+G3tvlgmrVjHDmWj4ZJ3m0vBb/CWi+03ZrOK79ulwRXf0sFf3lLx5xx/7G75//hYxY/LhPyKd7xn/pngBwC1wi34bdq0SUceeaTa2tokSfv27dPHPvYxDQ0NFTz+Zz/7mc4//3xJUjwe14knnqgrrrhCIyMj5n0GBwd13XXX6ZJLLpnB7wSgfhD8Gk+C30wFvzDBD4oHP0mamJjQ//pf/2uWn9HMMhPBLxQK6aMf/eh0n9qs4Bb8AKD+FAt+khTb864Gbjxvlp/RHA9+OdIp9V9/pkKbnq/oc1Yb/JwQ/ACgVjiD3+rVq3X00Uers7PTdr8HH3xQp556qu229vZ2HXHEEfL5fJKkFStW6LLL3P8/RzKCIEAzUjb4hQl+sy3Bb5rBL2IJfyWDX4jgdyhSKviNjIzob//2b80/DwwM6JxzztFxxx2nz3/+8zr99NPV399vfvyWW27RQw89pOXLl+uII47QBRdcIElqa2vTwoULNX/+fP393/+9zjjjDHV1dZmP6+np0dKlS/XJT35Sn/zkJ7V06VL19fWZH3/11Vd11llnae3atfrHf/xHzZs3T0cffbSefPJJ2/MNh8O68sor9YlPfEKf/vSn9Y1vfENtbW36xCc+Yd6n0uC3cOFCtbW16ZJLLtFnPvMZtbS06PTTT9fo6Kgk6Y477tDnP/95/cVf/IVOPPFEnXTSSeZjN27cqBNPPFFHHnmkPvnJT+q6665TNBot+/NauHChXnvtNS1dulTz5s3T4Ycfrp/+9KeanJzU+eefr09/+tM68sgjdd111ymbzXr+/u+44w594Qtf0P/8n/9TJ554ok488US99tprkqSPfvSjtu0bXp77L3/5S/3sZz/T0UcfrXnz5ukLX/iCtm3bVvRnCwDFKRX8orvaCoJfrH27BlcsU/+1p2vghrM1/uidyiby13B68qCG77pGB646Vb0Xf0UDy89VdOdW8+Pd556gbCL///PJ/i4N3nKxer/9T+q7/OsaW/VjBV95tiD4BV95Vv3XnaH+68/UwA1nK/Dnp/PPc2ebRn52jSJvv6r+685Q3xX/TweuOlXBV/9k+xzZZELjj92j3kv/WX2XfVUHvtuqwIurJUkDN52vyDv2YwckKbxlvUZWXlv0Z1c0+EkKt23UwA++6en7SE8e1MAPvqmeCxeq95KvaOAH39ToAzeaj/P/6XH1fedr6rv86+q/7gxFd25V3+VfV2rEWOGd6N2r/uvPzN/fEfziHe9p4MbzdOC7req96MsavvNqpYYPFH3uAAA5rMHvrrvu0he/+EWNj48X3C+bzerkk0/W448/LsnYyfGP//iPWrdunSRja+///t//2/a7NsChQkHwC3kLfrmmQvCrvQS/mga/pGvws4Y/fyhO8DuEKBb8hoeHtWTJEt18882SjC2+LS0teuGFF8z7vPrqqzruuOOUTqclSffdd5+OOOIIPfVU/rypdDqtv/3bv9X27dslGb+E/OlPf9If//hHSdLk5KQOO+wwPfvss+Zj/vCHP+j//J//I7/fL0l69913ddhhh+miiy5SKBSSJB04cEAf+9jHtHfvXvNxp556qq6++mqlUilJ0vvvv68vfvGL0wp+ixYt0vHHH69NmzaZt61YscKMc5L7Cr+tW7fq8MMP165du8yfw4033qjW1lbzPm4/r9zXPOGEE7R7925J0tjYmA477DB99rOf1SuvGOdRxWIxnXjiiXr66fybbS/ff7EVftbg5/W5f+pTn9LPf/5zMzr++c9/1uGHH27+fQAA7xQLfsmBbvVff6bCb6wzb4t3faC+73xNycEe44ZsVpO//3cd/PdbzfsM336l/Gvz5zglevbaVqxZg18mMKmeZV9S6PWXzI+H33xZvZecbAt+/hd+q6FbL1EmbGz/z8ajGrrtCvNx8a4P1HvxVzT6wE3mduHU2JB6ln3Jdh7e8J3f08EHf2h+/bR/QhNPPiClkgpvfUVDt15a8HMYuOl8xTp2FP3ZlQp+mcCkupbO9/x9SO4r/Hxrfq2BG89TJjBpfN6QX0O3XaHuc0/wFvwyafVccKLine8bf85mFW7bqHDbhqLPHQAgx7p16/TP//zPuvzyy3XGGWeUPGfvwIEDOuywwzQ4OKg77rjDtpqvv79fH//4x2fjKQM0HPngF7eFPvfglyT4zYIEv1oHvwjBD/LkhnYce+yxNhcuXKhHHnlEmUxGkvSLX/xCl15a+CbszDPPNGPYgw8+qFNOOcX2cb/fr4985CNFtwbcd999uvDCCwtuv/jii/WLX/xCkrR79279zd/8jW2FmSRdeuml+s///E9J0nvvvadPfOITZuzK8Zvf/GZawe/000/XHXfcYbvP4OCg/v7v/978s1vwW7RokR57zP5mMZPJ6MgjjzRDmtvPK/c1777bvgXs6quvNs9dsX4v115rrHjx+v17CX5en/u//Mu/FHyeT33qUw0/tASgETGHdnxvkWn3eZ9T99kLFHn7v233Hf7pdwu3qGaz6rlwoZQ2XgMOXLNYsT3vFv161uDne+5XGr3vBwX3Gb3vB/ngl0mr54IvKDU2bLtPom+/Bm8y/gEk0btXXWcdZ1tpKEkHH/yhgq88a96n96IvS6kiA6EyGfVd9lUlh/IrTxI99ojmpFzwUzqlztYWZZMJT9+H5BL80il1n/e5fGSdIjXSr87WFk/BLxMOqvvsBcbzAACokHXr1umv/uqv9NGPflQHDx4se//f/OY3+vznP6+WlhbbOc07d+7U0UcfPZNPFaBh8Rz8IgS/2ZLgVyb45f6SEfygGkpt6bVywQUX6Oijj9bXvvY1m8cff7yeeeYZSUYEuuGGGwoee/PNN+uzn/2s7rrrLrW1tZkRUZLOP/98rVq1quAxv/rVr8wQuHv3bi1YsKDgPsuXL9c999wjSXr00Ud15pmFbwg/+OCDaQe/tWvX2u4Ti8X013/91+af3YLfxz/+ce3Zs6fg85933nlmTCv283L7mj/60Y9022232W578sknzZ+R1+/fS/Dz+tyvv/76gvuccMIJeued0pM/AaAQ12iVycj//OMavPki2829F52kgRvP0+AtF9s8cNUpSo0ZB7VH3n5VfZf9i8Yfu0eRd14riHDW4Ddyzw3mllor/hd/Zwa/1PABdS2dX/A1B2/+tgaWnytpKnZ9f2nB5xl/7G751vxakhR8+VkN33VNyZ+F/0+Pa/zR/OvwwQd/qNDmF4rev1zwS/vG1XX6MZ6/j9xztga/5FCfus/7nOvn7z7vc5639E789gEduGaxfM8+Ygz3sPz/IQBAKXJbeletWqV58+Zp//79ZR+zYMEC/f73v7fdNjAwoI997GMz9TQBGpqZCn7OPkPw8y7BrwbBLxxNOYJfkuAHkrwHv3POOUcPPfRQyfuUimnd3d1atWqVzj33XM2bN087dhhbs8477zzX4PfII4/ooouMN7m7d+/WCSecUHCf5cuXmyvhfvWrX+ncc88tuM/evXunHfxyZ57kiMVi+qu/+ivzz27B72Mf+5hrNDv33HPNM1WKPRe3r/mjH/2oYJjIk08+qWXLlkny/v17CX7Tee4nnHAC5/gBVEGpaNV3+dcV7/rA/HPPBScq0bev7OfMhPwKbV6rsYd/or7L/sV2lp4t+N17gwLrnip4fGDdf5nBLznQre5zC1+HrThjVw4j+D1qfM6Xn9HIz0oHv2w0rN6Lv6JsPKpMyK++73zNXLnoRtkz/N58WQM3ne/5+8g9Z3vw61XPsi+53rfnW1/0HPwkY1Vg4KXVGrn7evVd8f+U6Gov+3wAAKxn+K1bt06HH364tmzZUvIxJ598snkcTI7cGX69vb0z9lwBGhVvwS9pC37haIrgN4MS/GYo+AWLBb8gwe9QwmvwW7lypb75zW+WvE+5mJbjt7/9rU477TRJxpbeb3/72wX3ufjii/Xggw9K8hb83n77bc2bN882xEKSnnrqqboEv0WLFumJJ56w3ZbbFps7m6+Wwc/r959IJGyrE3M4t/RW+9wJfgDVUSpaTT7zHxr7Vf5ogaFbL1Vg3X9V9PnT4yPqPju/Utoa/PzPP66Dv1hR8JiDv7wlv6U3nVL32QtsZ/E58RL8El3t6r34KyUDniSNPfpTBdb/Xr41j2ry6YdL3rdk8Esl1X/t6Qq9vs7z9yFJE0/cZ65KzH2e7nP+r9ITo7b7pSdGPW/pdSP0389r+PYrSj4XAACpcErvzp079alPfcp2nrMTt+AnGedRux3Vk4MpvdCsmMEv6B78ggS/WZfg5zH4RasMftbwR/A79PAa/CYmJvR3f/d3evTRR82oNDIyou9973saGRmR5B6Bdu3apV/+8pfmLw7ZbFY//OEPddVVV0nKD+1Ys2aN+Zg1a9bYhnZ4CX6S9JWvfEUrV640/9zf368vfelLdQl+b775po444ggzkKVSKS1fvtw2+KKWwU/y9v1LxpbdnTt32m6zBr/pPHeCH0B1lIpW6fER9Xzri2Yki7VvV8+FCxVr327eJ9HTobH/uF2SMQV34skHlPZPmB+P7nhDB67KnxlqG9oRDqr3kpNtU3xj729T70Vftg3t8D37iAb+9Rxz27AyGUXe2miuhPMS/CRp6LYrdPCXP8oP7fCNafw/V9rO9UuNDOjANYt14KpTlAn6Sv3o3H922azi+3Zp4KbzzZ+L1+9DMlYiDv/0u5LlH1Emn3pIwz/9rrk9OpuIa+Tu69V99gJPwS/Rs1f+F3+XP8Mvm9XEkw9obNWPS35/AABSYfCTpKGhIR1//PH62c9+5vqYYsEvHo/rxBNP1He/+12Njub/IWNwcFDXX3+9Lrnkkto+eYAGoVjws1pJ8IsS/KYtwa/K4BdxBr+paTP24JcoHvwCxSc/QfPgNfhJUk9Pj8466yx9/OMf12GHHab58+frvvvuM6eyukWgcDisH/zgB/rUpz6lI488UvPnz9dll11mTtuVpK6uLp122mk67LDDdNhhh2nx4sXq6ekxP+41+AUCAV1yySU67rjjdNJJJ+nUU0/Vpk2b6hL8JOmVV17R5z73OR1xxBE6/PDDdc011ygSiZR9LtUGPy/fvyStXbtWRx55pFpaWsytINbgN53nTvADqI5y21IHb7lYkbdfNf8c3dWmgRvPU+9FJ6nnwoUauOl828cD6/5LB65ZrN5LvqID32vV0K2X2la1WYOfZJxRN/STy9V/w1kaWH6uDv5ihW1Lb/7zPqUDV52i3ou/op4LF2r4rmvM7cVeg182EdP4o3eq99v/pN5LTtaBq0+zTcjNMXz7FTr40M2lfmySpgaenPEP6rv863kv+6qGfnyZ7Wfi9fswnmNcw3d+T72XnKyRu6fOK81m5Xv2V+q/ZokGbjpfgzddoMhbG9V3+dc9Bb9sLKLx39ytvsu+qr7vfE0Hvtuqgw/dbE40BgAohVvwk4zftRctWqTLL7/c/J08R7HgJ0nJZFL33HOPFixYoJaWFh1xxBFasGCB7r777pITgAHmMr5ArETwS9iCn7WhWNsKwa+2Evxc//LUOvglCH4AAADQGGQyOvDdViUPdNb7mQAAAECT4B78EjMU/DIEPw8S/LwEv1h1wc8a/qzBL7fUFQAAAGC2mXz6YR385S31fhoAAADQRFhbhzP4WRtJRcEvRvCbjgS/OgQ//9R/AQAAAGaL6I4tGrzpAh188Ie2M/0AAAAApou1dRD8GkOC3wwFv5Bja28glJA/FCf4AQAAQF1IDvUVTMIFAAAAqAXW1uEPxQuCX66REPxmz0M++MUT2YK/PM7b7MEvXTL4hUoEv4AZ/gh+AAAAAAAAANAc5IKftX24Bb9Q2eCXLhr84onCQav17kmNLMEvUXnwM1f5WYJfJJouGvxyy1nNbb0hzvADAAAAAAAAgObAurLParHgl2so1rZiru4j+NVEgl+i+uAXnfqL6Qx+ZvgL54OfNfz5GdoBAAAAAAAAAE1C4YTefAsJhZO2VmILftH8TkqCX20l+CWc+78Lb6ss+CXz5/iFc1t6kwXBz0fwAwAAAAAAAIAmoHBCb76FhCwDO0KR5PSCX5zg51WCX8J78Is5BndErXvNXYJf7vy+YpN6AQAAAAAAAADmOsUm9FrP8XMGv1xLcQa/WDxD8KuBBL9EbYKf26Re6/hp66Te3OAOAAAAAAAAAIC5jj9kbx7W0GcNfm4DOwh+MyPBL1F98Cs2qTfsZXAHW3oBAAAAAAAAoAmwru4rNrCjWPCLEPxmRIJfojD4OQ+BNP+yeQx+xSb1Os/xAwAAAAAAAACY6xQd2OEyobdc8Mv1F2eXMVoNwc+rBL+Ex+AXKx/83Cb1Bm2DO/JLXAl+AAAAAAAAANAMGLMK4o7z+3LbeYtM6C0V/GIEv+lK8EsUxr3ywc/7pF63c/wCU/8FAAAAAAAAAJjrWFtHsfP7pjOht1irqXdPamQJfgn34Oe8vVzw83qOn3VbLwAAAAAAAADAXKfcdl6vAzuKBb94wn03Zr17UiNL8EtUFvy8Tuq1neNXZFsvAAAAAAAAAMBcx207byhc/vy+iib0uvSbevekRpbgN2WtJvXazvErta2XFX4AAAAAAAAA0ATkV/gV287r7fw+JvTWToLflOWCn9u23vxfzMJz/Epv6yX4AQAAAAAAAEBzYG0dRbfzFjm/L9dVSp3fZzQagl8lEvymrHxSr7dtvfZpvQnbKj8AAAAAAAAAgLmOfTtvLvrZ20i15/cxobc6CX5TTuccv+LbepMlV/kBAAAAAAAAAMx1Sq3uK5jOW812XpduU++O1OgS/KasaFKvS/CzbustNq3XucoPAAAAAAAAAGCu47a6z206r/t23kx+dR/Br2YS/KYsCH4ez/HztK3XZZVfMJys9/UIAAAAAAAAADBtzMm8Bav7pr+d12gzBL9KJfhZrOQcP6/bet1W+eWiHwAAAAAAAADAXMc+mbfEsI4Kt/Nyfl/1EvwsugU/5+2lgl/xVX6Os/zY0gsAAAAAAAAATUIwnFAo7H52X7HVfZWd30fwq1SCn0Uv5/hVsq3XusovZIl/ufINAAAAAAAAADDXsbYO22Rel9V9FW/ndeky9e5Hc0GCn8VKz/Gbziq/YDipTCZb72sSAAAAAAAAAKBqMplswVbeWqzu4/y+6Unwc1jJOX6ehneUGOCRSBL8AAAAAAAAAGDukkhmSg7q8LS6j/P7ai7Bz2Gl23q9rPIr2NpriX6s8gMAAAAAAACAuUgmk3WPfSW28la0us+lx9S7G80VCX4O3bb1VrrKz5w647K113meXziaVpbmBwAAAAAAAABziGxWRZXtrAAAIABJREFUCkfTruf2Obfyuk3mrWZ1H8HPuwQ/h8WCn9vHKjrLzxH9rGf7hSIpJZPZGQt/2WwWEREREREREQ8xZ6YxSMmkZWVfkd5Rm9V9BL9qJfi5WOnwjmKr/Fy39jqGeFijX26iTTCcUDCcnDKhYDihQCivLxiTPxiXPxiXLxDLG4zLF4xr0nqbw0l/1DAQQ0RERERERMRmcer9ftEeEMh3A+vtZl8IxmztIdcjrH0iP43XHvus/9vLVt5yq/uMBkPsm44EPxenu8qv1NZea/RzO9MvGE4qNBX+cheZPxhXIGSYuxD9wbj8obgt/hUGQMvFXCYEIiIiIiIiIuLc1xb2pkKe9eO2hhCMye9oDdb+kOsSoYjRKgqn8dpX9jljX+FWXlb3zZYEvyJWOryj7Co/D9HPWs9zNd240ArDX+7PBReq47aCCBiIyReI5w06TSAiIiIiIiJiw+p4H299jx8oHvdKtQOjOxSGvkAobu46tO5C9Br7ql7d59Jf6t2J5poEvyJWs8qv0uiXW8lnLol12dLrFv7s8S+hQCgpfzBhNzRlOCFfKJ7/MyIiIiIiIiI2vb5QXP6w5TZHNwiEkmbUs0c+t9CX39KbX+mXNP9c+9hH8JuuBL8iFga/4mf5uW/tLR798uf2JR3RL2GGP+de+UAomf/fDv0h9/311jhYkSFEREREREREbDgrfH+fP4+vcE6AP5Qo6AtuDSL3mJAz/DmaRm5xU6nYV2orb6mz+wh+lUvwK2G1q/zcop/xF39qWo1tWMfUvveC1X4phcIpBSPJKVMFZ/w5h3k4VwDatwDbtwOXexwiIiIiIiIiNp6l3tO7NYByjytcuZdSMJLvEWafcKzqy88jsEzqjUy1j6nVfq6xj9V9syLBr4TFVvm57SUvtrXXuqrPLfpZp/SGwimFohYj+fvmVwAWruDL31649Ze4h4iIiIiIiNjceu0Aua261pV+bisAc4uTcmf12VpFOGWf0usS+5yr/cpt5c3NTmB1X+0k+JWxklV+1uhn7FtPWcxHv3z4SxvG0gpZLghrJXdu9bVv97VelJYAmDNcaLFVfgVnACIiIiIiIiJiw1psdZ9bC8h1gsLAZ28M+e7g2Lo7FQDNY8qiKYVjabNrWENfPvZZmkgu+JXayptgdV8tJfiVsdQqv2Ift46ddo9+aYXNAR72FYAF23ytS2Yj+QsyVHZrb9Km+aLgOMSzaPUPIyIiIiIiImLDWGz3nlMzCCYd2h9n3cobsgRAa4PIfaxg+67ZOPJtIxxNF419uWEelcY+gl/1Evw86DX65c/tS9uiX9QMf2lFYpkp00XP9rMN9XCc8Ve4os9+sKZpJFn2xcJtlSAiIiIiIiIizhWndvOVe/8fKXxsIJwPgdbb3c7oK7V91wx6ud4xFfysgztsW3tjaWLfLEjw82i58/ysf3ELo1/GHN5hDvJw2eLrFv5sF104P7gjGE5aBnrYt/86t+wGvRpGRERERERExIbX4/t8t/P7zH5g1Yx9+QEdOd1Cn9sW3tyAjtywDnOxU7Swl5jRL0HsmykJfh6tJvgZYS+jiGUSjXOLr/vZfilzCo71cExn2DOX3ZaNdi4lv+h2XueSX0RERERERERsHN3fz5daAVgsFlpnBVhDoHWYaK5POIdyWAdzWFuH2T/iRhOxTuol+M2eBL8KLDWkozD62cdNu2/xtZztF0lPTbnJB76wZVKv+3l+hRe0GQqn5Iw+RERERERExEPAIu//nZ3ALQoWP7cvZQ7pMANgJDU1qMMR+gq28Nq7iDP2lRvigdOT4Feh9thnj3v529wjoG2Yx9Rt9i28+UMuC8/xMyy4UJ3LcD2c3RcI2+u+GRMRERERERERcc5ofW/vqQW4NARnZzD7g9v5fdZuMdUzbKGvyHl91ujn/LP1TD9iX+0k+FWh+xbejKLxrKJezvWLWibYFAzvSOYjYCRfz0ORVMF5fc4hHoUXfnUW3+6LiIiIiIiIiPWy2vf5pXqBrTGY3cG6ms9q0jasI2yZ0JvrHaW27+a6ids2X2JfbSX4VSHBDxERERERERFnW4IfepXgV6Fs6UVERERERETERpAtvVhMgl8FMrQDERERERERERvSIu//GdpxaErw86jbX8BYme27RugzRlGbY6kdoS9iWdGX39ZruRgtATDoiH1m0Q9ZxmqH3axk2269x4sjIiIiIiIiYnHd38+7b+d1aQSWhmBdKWjd1msLfObKv5S5nTffMFzCX65/xI0m4rZ917rNNxZ3by717kBzXYKfR6sJfvlVfVOr/GwhsDD05WJffotvqnD1XsRym21/fT4EBkJx+0XvVddYiIiIiIiIiIgNpcf3+fYoGFcwnCg4ry9omQ+QC3zWFmG2i0g++rmFv1zYi+S6x1QHKXeuH8FvZiT4ebBU7LN+vNh5ffktvOmpv/AZ82PhIqHPfn5fytzOW7hKL6mAW8X3cJZf/sWi+gEfiIiIiIiIiFgvjff1Zd//RwofGwjnVwxab89t6zW29Lqc4xexr/bLn9831TumVvwVbvF1xL6pqEf0mxkJfmX0Gvus2oZzOM/qsxxyGYnlJ9k4Q1/xc/umLkDLx4Lh8ltz/cGEYcguZ/whIiIiIiIizgGLvH93vs/Pvf8vtxXYXO0Xzm3rtQQ/1/P87OEv4mgbuWEezi2+1uhXLOoR/Wovwa+Mlca+3KGUxWOf9aw+Y1hHOJY2h3QYAzxSjsiXsEU++1JeS513buENF2ps940XvkAEEREREREREXGuWBj/4ua23WJbgN3P+8vfzx7/EgW7D3NtIxRNKRxLm13D/Ww/e/QrN6SjWPSrdxeaqxL8Slju3L5isS9q2d7rHMxRfPvu1EGYjuk3ufvmw1+iMPAVBL3i5d8e+eKIiIiIiIiIOMf12gGcQbAwAOZX/uV7hKNV5AaMltjmax3oYW7lLTOZl1V+tZXgV8JKVvdZY5/9PL9M0bP63M7oy23bNcdlm4do5gd2lN7Ka495+RV9VomAiIiIiIiIiHPRckHPabnHWbf2Glt6UwpG8j3C7BNh+1bfgm2+Lmf7WSf0xuKZktEvnmCVXy0l+BWx2Oq+Yh/LBT+32BdxWe1n2w/vsnW3cDWf42BNi37LReq2ArDiF5AQIiIiIiIiIjacVcbBgiEfuXP9HX3BrUFYt/sWbPW1NA3nqr58D3GJfqW29rLKryYS/IpY7eq+crEvv9ov7bKqzx7+ctHObauuceHmbrMM5ciZO6wznJAvFFfBIZ6IiIiIiIiI2LT6QnH5w5bbCs4ATJqrAgtXAMbNMBh0hj7ncI9w0lzcFLH0j2LRj1V+syPBr4hue8ndbq829tnP8DOWvVpX6LmFvnzki7uu3PMFY65F3xeIOYznDTpNICIiIiIiImLD6ngfb32P73j/79oIXNqBdTuwPf45w5/RKnJn+1nP8Kt99CP4TUeCn4vVrO7Lb+XN2IKf19iXG9xhXennFvqcW2+dF6rt4g7GbC8CkwXhDxERERERERGbyclAzBEF7R8viH8hZ/wrDH/OM/7MeQQeop89+GXKbu2NJ1jlVwsJfi56PbvP8+o+l9hnTryJOmKfY0uvc3JOIJSwRT7bhe0h7E36o4ZTLwKIiIiIiIiI2AROvd/3FAIDhQHQF4wVDPNw9gnzSDLrlF7H/3ZGv6pX+RH8piXBz+F0V/cVi33mxBrH/87FvmQyq2xWAAAAAAAAAAANSzYrJZPZgujn1j5KRT9W+c2sBD+HxYJfpav7nFt5C7bxTsW+SCxN6AMAAAAAAACAOUU2K4WjaTP6Obf3lt7aW36VH8FvehL8HFY6rMPL6r7ccla3M/syGWofAAAAAAAAAMw9Mpls0TP9vGzt9bbKj+BXjQQ/h9Nd3VdqK68z9iWSxD4AAAAAAAAAmLvEkxn36Fdia+90VvnVuxvNFQl+Fisd1uHp7D7HkA7rgI5Mpt6XJQAAAAAAAABA9WQyWZfpvUnXrb1VrfJjW29VEvwsVrqdt9zqvoKtvFPhLzeNFwAAAAAAAABgrmNtHc7z/Ipt7S1Y5ce23ppK8LPoZTpvLVb3habGWQMAAAAAAAAAzHWC4YRCM7DKL55wn9Zb7340FyT4Wazk/D634FdsdZ9zK2+ufAMAAAAAAAAAzHWsrcMa/Yqt8qtkWy/BrzoJflNWen5f2WEdRQZ15C4Agh8AAAAAAAAANAO5zmFtH24DPKre1ss5fhVL8JvSy/l9hdN5C7fzOifzOlf3BcMJ878AAAAAAAAAAHMda+twXeXnWO3ntq232LTeeIJz/KqR4DdlJcHP63begrP7plb3BUIJgh8AAAAAAAAANAXBcGKqdbit8ktOa1tvPEHwq0aC35SVnN9X0Xbeqf86V/cFQgQ/AAAAAAAAAJj75BY2OVf52Sb2TmNbL+f4VS7Bb8pqzu9z285bbFiHc3UfwQ8AAAAAAAAAmgFr63Bb5VcwvKNgW2/l5/jVuyM1ugS/KcsFv8q38+aDn3VaTe4CIPgBAAAAAAAAQDOQ6xz51X35FmId3jGtbb0Ev4ok+CWmd35fqe28ZtEO5yfz5oKfPxSv9/UIAAAAAAAAADBt/KG4Y1tvUiHL8A6v23o5x692EvwSFU7o9Xh+X/HtvElW+AEAAAAAAABA05Bf4Zcsva23ynP84gmCX6US/BLuwa/SgR3FpvO6buflDD8AAAAAAAAAaBKsraP4tt5k0XP8vA/uIPh5leCXqGZCr4fz+2zTeQu38/qDbOkFAAAAAAAAgLmPPxh33dbrNq233Dl+TOqtjQS/hMfgFy8f/FzP7yuynZfgBwAAAAAAAADNgD8YL7utt9g5fq7Bzxn7CH4VS/BL1G5Cb7nz+6wS/AAAAAAAAACgGbAGP2v483KOH5N6Z0aCX6L64FduYIfb+X25Ja5+zvADAAAAAAAAgCbAH7I3j2Ln+E17Ui/Bz7MEv0Rtgl+xgR35vev21X0EPwAAAAAAAABoBvxTrSO/ui9hayJugzsIfjMrwS/hPfhVOqE3ZBvYYT+/z8eWXgAAAAAAAABoAnzBeME5fubQjhpN6jVaDcHPqwS/hCP4udxWWfCzDO4IFx/YwRl+AAAAAAAAANAM+F2Cn3mOX6lJvZUGvwTBz6sEv0T1wc96fp81+JUd2BEi+AEAAAAAAABAc2AcXVZ+cEdB8LO0FYJfbSX4JSoPfqUm9LoFP/P8PnNwB1N6AQAAAAAAAKA5yM0qsLYP6/l9zuBXfFIvwa9WHvLBz35+X6bgL09h8MuUDH7hEsEvt7KP4AcAAAAAAAAAzYK1dbhN6s01kmKTeiPObb0uwa9Ys6l3V2pUCX4zFPys46fdJvQS/AAAAAAAAACgGbC2DuekXmsjIfjNngS/OgQ/H0M7AAAAAAAAAKBJsLYOgl9jSPDzEvzi1QW/3F/ughV+wbh8gVi9r0cAAAAAAAAAgGnjC8RcJvUmbG2k4uDn7DUEv4ok+Nn+ohQeAFmb4Jck+AEAAAAAAABAU+Ie/JIzFPwY3OFFgl+VwS/qDH7R/AGU+eCXLB78ZmlL7/Lly/Wtb32r5MdXrVpV8efdvHmz7c8+n08f+tCH9Prrr1f8uWrB6aefrnXr1hV9Ls7nCwAAAJXx3HPP6eSTT1ZLS4s++clPat68efr+97+voaGhuj2nev//eyaT0SWXXKKPf/zjWrhwoet91q1bpw9/+MM66qijbB5//PF6+OGHa/6cjj32WN12220l7/PUU09p2bJlNf/aAABw6JLbzuse/OxbekORpNlRcsEvSvCruQQ/j8EvVmXwy/0lr2fw+/CHP1z0F8pqgl8sFtNHPvIR223pdFpbt25VMBis+rlOB2vwcz4Xt+cLAAAA3rnhhhv05S9/Wbt27TJvC4VCWrVqlY4//nhls9lZf06N8P/vW7Zs0fz585VMJoveZ926dTrllFMKbh8dHdVXv/pVPfTQQzV9Trt27dLAwEDJ+xD8AACg1hQLftbwV0nwixH8pi3Bb4aCX6hY8AvNfvC76667dNT/Z+/Oo6Oq87yPP3Pmj+lzZjyMjUqrCAEiAYILyoiQZhEHaZFGW0Rt7O7pmdam7XZFbXpmdNxQ2XckQAg7yBIgAdn3fQfZZAlbyEYCIftC3bqf5490LqlUBUJVll+q3q9zvufpqnurblWe6a4f76pbFRmp/fv3+9xeHcGvrpUPfhWZ+HgBAKgv1q1bp4ceekjFxb7XLpVdX9NMeH1fvny5+vbte9N9Kgt+krRz585KPxlYkwh+AIDq5gS/PN/BL4/gV+tD8KuG4FdQaFUIfi6jgt+kSZN0+PBhtW7dWllZWT63l8nPz9ef//xnNW3aVK1atVKvXr20e/duNW3aVJL01VdfqVOnTvrHf/xHRUVFKSoqSlu3bpUkNWzYUEVFN76bcMOGDYqKilLLli0VHh6ugQMHqrCw0Nn+f//3f5o4caKGDh2qtm3bqnXr1urUqZP27dvn8RgTExP13HPPKSwsTK1atdJf/vIXxcbGeixUKwa/ssdS2ePt2rWrVq5c6fX3Wrx4sV599dXb/0MDABCkXn75Zc2aNatK+xYUFOj9999XeHi4IiIiFBUVpc2bN3vs88///M9etxs+fLgGDRrkXO7SpYt2796t119/XW3atFFERIT69u2ry5cvS6p8PbJx40a9/PLLmjNnjnO7nJwcNWrUSFevXvU67ltvvXXT02q//fZbRUZGKiIiQm3btvXY96WXXlKbNm3UsGFDRUVF6b333vN5HzcLfps2bfIKfjt27NDTTz+t9u3bq2PHjl7rp7S0NPXr109t27ZVWFiYOnfurA0bNjjbK66JfvzxR/Xs2dNZ2/laR0lSbGysnnjiCXXo0EEdO3bU1KlTnW2WZenee+/VyZMn1bNnT7Vp00atWrXSRx99JMuyvO7n4YcfVsuWLdWiRQsNHDhQeXl5kkrj8KBBg9SuXTs9+eSTeuqpp7R9+3affxsAQP1SteDn8gh+5ZsKwa/6h+B3i+BXWBQcwU8qXYD16tXL47SbisGvd+/eeuedd+RyuSRJx44d089//nMn+EmVv6NePvjt2rVLzZo1c079sSxLf/vb3/TLX/7S2X/UqFF68MEHNXbsWOcxrVmzRs2aNXMWj9nZ2WratKnmz5/v3C4uLk7NmzevUvCr7PEuXbpUvXr18noOXbt21a5du7yuBwAgVLVo0UKJiYlV2ve5557Thx9+6LGOCA8P1549e5x9qhL8+vTpo/bt23vEwv/93//Vb3/7W+eyr9f3gwcPqmnTpnr//fc9TrN99913NWzYMI99c3Nz1bRpUxUUFPh8LsOGDdPTTz/thMKsrCz16NFDI0eOdPYJ5BN+J0+eVIcOHbRo0SKPx9+yZUudPn1akmTbtgYPHqw333zT2eeFF17QuHHjnMtHjhzR6NGjncvl10SZmZm67777tGDBAmf7kiVLvNZREyZM0LPPPqvs7GxJpeG2T58+Hrf76U9/qhdffFHnz5+XJBUWFurf//3fNW3aNGef8ePH68knn3ROKS4uLtbYsWN14sQJSaWR9JNPPnHWeRcvXlSbNm104cKFm/4NAQDmq6ngV1hE8PN3CH7VHfwKzQ1+kvSHP/xBgwcP9rn98OHDatq0qbNILzN9+vTbDn59+vTRjBkzPLa73W61bNnSiYDjx49Xjx49vO7nwQcf1Llz5yRJY8aM0Wuvvea1z3/8x38EFPzcbrcefPBBj3/AHDlyRB06dPA6FgAAoezOO+/UlStXbrnfwYMH1aJFC69PfM2ePVsvvviic7kqwa9v37766quvPPZJSUlRkyZNnMu+Xt+PHj2qO++8UyUlJR7Xnz17Vi1atJDb7XauGzdunMcxy3O5XGrYsKETt8okJSWpUaNGznOsavC744479Mgjjzhz9913q0GDBlqxYoXHvi+++KLmzp3rcZ1t22rcuLGzPmvXrp127txZ6fHKr4mGDRvm88fbfve73znrKMuy1KhRI126dMljn+PHj6tbt27O5YYNG2rHjh0e+8ydO9e5f8uydM899+jkyZM+H9eRI0fUsmVLr+snTpyozz77rNLnAwCoH6oc/AoJfrU1BL9qDX4un8Gv/GT//Yc76ir4FRUVqX379lq/fr3X9piYGPXr18/rPo4fP37bwa9x48b68ccfvfZ57bXXnBA4fvx4ffDBB177dOjQwfm+wd/85jeaOHGi1z4TJ04MKPhJpTFx4MCBzuU33njD45OEAABACg8P15kzZ265X0xMjF555RWv68+cOaOwsDDnclWD3/Llyz32KSoq0r/8y794XPYV/Nq3b+/z8b3wwgtKSEiQVBrRIiMjvSJXmcTERDVq1Mjntvvvv9/5RFpVg1/Pnj09rnO73Ro7dqzXG58PPPCAunTpop49e3pMZGSkkpKSnGOGh4frb3/7m1atWuVxuq/kuSZ67bXX9O2333o9pvLrqLNnz+onP/mJ1zGfeeYZde7c2blNw4YNnVNzyz+33r17O/dz9913V/p3mDZtmu677z6v43Tu3Fkffvjhzf6EAIB64EbwK/HqIN7Bz0Xwq4Uh+AUY/Mr+j/SWwS/fjOAnlS7IWrZsqeTkZI/tU6dOVf/+/b3u49SpU7cd/O6//36fwa9///6aOXOmpNLg5+ud9Q4dOjjf4/faa69pypQpXvtMnjw54OCXm5ursLAwFRQUKCsrSy1btvT6dCMAAKHulVde8frUvi9Tp071GfxOnz6tZs2aOZfLR7sy33zzjVfwq/hjXEVFRR6xsLLgV9mn9bds2aJnnnlGkrR69Wqfj7XMmTNnKg1+9913ny5evCjJ/+BXplWrVjp48KBz+Wc/+5mOHTt20/uTSk8vnjdvnt566y2Fh4dr9uzZzrbyf7vf/OY3Pr+jsPw66uTJk7rrrrtuecyK39Vc9tzKTldOTEzUPffcU+nto6Oj9dJLL93yOACA+skr+OVXLfiV/b8Ev+ofgl9NBb8Cc4OfJMXHxysqKkoDBw50tu/du1etW7f2+I4/qfSX3MoHv5KSEp+L9Yqn9Fb8gu+yU3qPHj0qqWrBb9iwYfrTn/7ktc+AAQOqHPwqe7yS9P7772vKlCkaPny4vv76a5/7AAAQyqr6K70HDx5UeHi4x2mzUukpveWj2P333+/1SbHf/e53tx38fL2+3yz4SdLjjz+uU6dO6bnnnrvpabEul0t33XWXE/bKXLx40a9TeisLft98843Hj3306tVLkydPvun9VZScnOwRPsv/7caOHavXX3/d6zbl11Eul0sNGjTQqVOnbnqcWwW/sr9ZZZ8G3bt3r5o0aeLx3YoAgOBxy+BXQPCr7SH4hWjwK9t2xx13eGzv3r27x5daX7p0SZ07d/YIflLpKbs//PCDx3XlF4I7d+5UixYtnLjncrk0aNAgjx/tqErwy8zMVJMmTbRlyxZn+7Zt29SkSZMqB7/KHq8knT9/Xu3atVNkZGSVvp8IAIBQ9OGHH+qpp55yXtclKS8vT5MmTVL79u2dNwt79eqlQYMGOZ+YP3r0qFq0aOHxox39+/f3WHts2LBBjRo1uu3gJ3m/vt8q+M2cOVN9+vTRk08+ecvnPGzYMPXo0cP50Y6rV6/6/aMdlQW/5ORk3Xvvvc7fa/v27WrcuLHHL9f+8MMPeueddySVxtWPP/5YGRkZzva1a9cqMjLSuVz+b5edna3mzZt7/Irv1q1bvdZRQ4YMUadOnZzTht1utxISEjx+DORWwU8q/UG2qKgo50c7ioqKNHToUOdHO37xi19owIABzg+lFBYWatSoUVqzZs1N/4YAAPMR/Mwbgl8IBz/LstStWzeP7Tk5OXr99df12GOPqWvXrurdu7c2b97sFfyWL1+uli1bKiIiwvkC54oLwXXr1unJJ59UixYt1KxZM7377rsev4RXleAnSSdOnFCvXr3UoUMHdenSRa+//vptndJb2eMt8/zzz+uPf/yjz78RAAAoFRcXp+7duysiIkLh4eFq3bq13n33XaWmpjr7FBQU6O2331azZs3UvHlzdezY0SM2SVJaWppeeOEFde3aVV26dNGbb76poUOH+hX8Kr6+3yr4lZSU6O6779a8efOq9JzHjx+v1q1bO893woQJXscPJPhJUs+ePT2+r3DTpk3q0qWLHnjgATVu3Fhdu3b12D558mS1a9dOzZo108MPP6xevXp5fDqv4t8uMTFRv/zlL/Xkk0+qc+fOPtdRUukpt5GRkQoLC1Pjxo3Vr18/j9OLqxL8JGnSpElq3bq1mjdvrvDwcA0ePNj5FGhBQYE++OADhYWFqVmzZs76sCyqAgDqL4KfeUPwC/Lgh5tzu9166KGHnHeeAQBA8EpKSlKLFi04rRQAgGpG8DNvCH4Ev5D29ddfa8CAAXX9MAAAQA27fv26nnvuuSp/ug8AAFQdwc+8IfgR/ELSunXr1K1bN73xxhsqKSmp64cDAABq0IQJE/TYY495nZILAACqB8HPvCH4EfxCUmJiosd3DgEAgOB16NAhr18GBgAA1YfgZ94Q/Ah+AAAAAAAAfiP4mTcEP4IfAAAAAACA3wh+5g3Bj+AHAAAAAADgN4KfeUPwI/gBAAAAAAD4jeBn3hD8CH4AAAAAAAB+I/iZNwQ/gh8AAAAAAIDfCH7mDcGP4AcAAAAAAOA3gp95Q/Aj+AEAAAAAAPiN4GfeEPwIfgAAAAAAAH4j+Jk3BD+CHwAAAAAAgN8IfuYNwS9Egl9efqGS0zJ0LimVYRiGYRiDJzktQ3n5hbW6TqgK1hIMwzAMUz+mLtYSBD/zhuAX5MHPbdtKTstQ6uUrysnNU14ewzAMwzAmT05unlLSM5WcliG3bdfKeoG1BMMwDMMEz9TFWoLgZ94Q/II8+CWnZSg7J0/5+fkqLCxUUVGRiouLGYZhGIYxcIqKilRYWKj8/HxlXr2m5LSMWlkvsJZgGIZhmOCYulp9/Uf4AAAgAElEQVRLEPzMG4JfEAe/7Nx8pWVcVUFBgYqLi+VyuWRZlizLktvtZhiGYRjGoCl7jXa5XCouLlZBQYFS0jPr9PRe1hIMwzAMU3+mLtcSBD/zhuAXxMEvOS1DObl5Ki4udhbmtgGnBgEAAN9s23YW7MXFxcrJzavTT/mxlgAAoH6pq7UEwc+8IfgFcfA7l5SqoqIiuVwuud3uGj8eAACoHm63Wy6XS0VFRTqXlFpnj4O1BAAA9VNtryUIfuYNwS8Egp9lWbwbDwBAPWLbtizLMib4sZYAAKB+qe21BMHPvCH4BXnwKzsFBwAA1C9lp+LUdfBjLQEAQP1Um2sJgp95Q/ALgeDHKTgAANQ/brfbmODHWgIAgPqnNtcSBD/zhuBH8AMAAAYi+AEAgEAQ/EJ7CH4EPwAAYCCCHwAACATBL7SH4EfwAwAABiL4AQCAQBD8QnsIfgQ/AABgIIIfAAAIBMEvtIfgR/ADAAAGIvgBAIBAEPxCewh+BD8AAGAggh8AAAgEwS+0h+BH8AMAAAYi+AEAgEAQ/EJ7CH4EPwAAYCCCHwAACATBL7SH4EfwAwAABiL4AQCAQBD8QnsIfgQ/AABgIIIfAAAIBMEvtIfgR/ADAABVVFRUpNjYWKWlpVW6T1pammJjY1VUVBTQsQh+AAAEn2BdSxD8zBuCH8EPAABUQVFRkcaPH6/PP/9cX331lc+Felpamr766it9/vnnGj9+fEALdYIfAADBJZjXEgQ/84bgR/ADAABVtHjxYg0ePFifffaZ10K9bIH+2WefafDgwVq8eHFAxyL4AQAQfIJ1LUHwM28IfgQ/AABwG3wt1Kt7gS4R/AAACFbBuJYg+Jk3BD+C3y1NmLVc42bGa9zMeE2YtTzorwcA4FYqLtSre4EuBVfwM+21nrUEAKCuBdtaguBn3hD8CH4AAMAP5Rfq1b1Al4Ir+AEAAG/BtJYg+Jk3BD+CHwAA8FPZQr26F+gSwQ8AgFAQLGsJgp95Q/Aj+AEAgAAsXry42hfoEsEPAIBQEQxrCYKfeUPwI/gBAAADEfwAAEAgCH6hPQQ/gh8AADAQwQ8AAASC4BfaQ/Aj+AEAAAMR/AAAQCAIfqE9BD+CHwAAMBDBDwAABILgF9pD8CP4AQAAAxH8AABAIAh+oT0EP4IfAAAwEMEPAAAEguAX2kPwI/gBAAADEfwAAEAgCH6hPQQ/gh8AADAQwQ8AAASC4BfaQ/Aj+AEAAAMR/AAAQCAIfqE9BD+CHwAAMBDBDwAABILgF9pD8Avy4FdSUiLLsmr8WAAAoHpZlqWSkpI6D36sJQAAqJ9qcy1B8DNvCH5BHPyS0zKUl18gy7Jk23aNHw8AAFQP27ZlWZZycvOUnJZRZ4+DtQQAAPVTba8lCH7mDcEviINfdm6+0jKuyuVycSoOAAD1iNvtlsvlUkp6pvLyC+vscbCWAACgfqrttQTBz7wh+AVx8JNK35nPys6VZVlyu928Ow8AgMFs25bb7ZZlWcrKzq3TT/eVYS0BAED9UVdrCYKfeUPwC/Lg57ZtJadlKCU9U4VFxbIsy1mwMwzDMAxjzpS9RhcWFSslPVPJaRlyGxDXWEswDMMwTP2YulxLEPzMG4JfkAe/Mnn5hUpOy9C5pFSGYRiGYQye0u/Nq7vTeCvDWoJhGIZh6sfUxVqC4GfeEPxCJPgBAAAAAADUBIKfeUPwI/gBAAAAAAD4jeBn3hD8CH4AAAAAAAB+I/iZNwQ/gh8AAAAAAIDfCH7mDcGP4AcAAAAAAOA3gp95Q/Aj+AEAAAAAAPiN4GfeEPwIfgAAAAAAAH4j+Jk3BD+CHwAAAAAAgN8IfuYNwY/gBwAAAAAA4DeCn3lD8Avi4GfFDpE1YqCsEQPl+rCfrMF/ci7bezZIF8/IPWeM7xsXF8r1evfbOp57wbdyL59VDY+8+rm++KPs00cCv6PrJbKGvhv4/QAAUA+wlriBtQQAAJUj+Jk3BL8gDn7lueeMkX3+pOeVN1ukS1Jezu0dpKRIKjH0k4uF+ZJlBX4/LNIBACGKtQRrCQAAKkPwM28IfgS/Wn0c9R6LdABAiGItUU1YSwAAghDBz7wh+IV48LNmDJc1c4SsER/I+vovsg9tdzZb37zl/Gd751pZw96TNeojWRM/kTLTvI+xdpHsfZtLL+TnyJrwsazRf5U1YqDc6xZ7PyjLJWvEB3Ivny1r6Duyj+yWSopkTR9Werux/116ulCZogJZU76UNfQdWSM+kH1wu6wRH/h8vJLknj9e9tnjpdvG/6+Ul+37mJLcqxeUPr8JH8u9eIpku//+PHJlTfq09JgjP5R9YAuLdABASGItwVoCAIDKEPzMG4JfiAc/17vPSynnSy8XF8n16R+czc6i93qJXF/88cbC9Uq6lJbkfYxyi3T30mmy920q3WDbso/t9fm4XO//6sZ+ktyzR8m9Kf7vt3PLmvSZ8w8Ca8bwG4t225Z7/nhZQ9/xfrxl9+Vrke7jmPbejbImf+E8P/e6xbJ3ri293ZQvZe/deOOYs0exSAcAhCTWEqwlAACoDMHPvCH4hXjwsyZ95nGVNfa/pdxrpf+5bNHrui7Xp3+QcrJufozyi/SV8+ReNe+Wj8v18e9uXLDdcg16VbLtG1cd2yv32oWl2z79L88bp5z3WDBXeZFe/piSrNF/lZLP3biipFjWhI8ly5Lrk//0PGbyORbpAICQxFqCtQQAAJUh+Jk3BL8QD34Vv3fHmvh/UlZG6X8ufxpO4jFZ4/5b1phBcm9YKrnd3scofxqO67rcS2JKT22ZMfzGO/8VeCysC/Lkev9XsqZ9c2OiP5d7zYLS03qGved548J8vxbpFfdzffa6rJivPY8b81WVjgkAQKhgLcFaAgCAyhD8zBuCH8HP46rKFumOvy++3WsXeh+j/CK9vPQkuT57XbJcXpsqHsP65m3fT8Cy5Pq/Cu+QV3xXfojnba2pX1VpkW6N/W+pIM/7mLZbrs9f97wuLYlFOgAgJLGWYC0BAEBlCH7mDcGP4Odxlc9Fek6W7HM/OvvYB7fLvSTG+xjlFun2iQPS9ZK/38CWNfhNqaTI6zZe76TPGSP7h103rshMK/2eH0nW5C88vwNnzhjPRfqIgTcW29cy5XrvhSot0u19m+ReFH3j9J+iAunCqdJ9pw91voxbktwLJ7FIBwCEJNYSrCUAAKgMwc+8IfgR/Dyu8rlIL8iTe9YoWSM/lDVmkKxJn0r5Od7HKL9IP7KrdP9RH8ka+YHsXet8Pi6vd/6Li+SeO9a5nTXlS+nq5dJt+bmyvv1U1td/kTXsvdIvyC63YLbPHi/9Rb7oL2RNHyr3rFFVWqRLknvDElkjBpb+wuCYQbLPHC3dUFRQeorOxE9kfftp6S8MskgHAIQg1hKsJQAAqAzBz7wh+IVI8AtK10tYMAMAAP+xlgAAoFoQ/Mwbgh/Br/5ikQ4AAALBWgIAgGpB8DNvCH4Ev/qLRToAAAgEawkAAKoFwc+8IfgR/AAAAAAAAPxG8DNvCH4EPwAAAAAAAL8R/Mwbgh/BDwAAAAAAwG8EP/OG4EfwAwAAAAAA8BvBz7wh+BH8AAAAAAAA/EbwM28IfgQ/AAAAAAAAvxH8zBuCH8EPAAAAAADAbwQ/84bgR/ADAAAAAADwG8HPvCH4EfwAAAAAAAD8RvAzbwh+BD8AAAAAAAC/EfzMG4IfwQ8AAAAAAMBvBD/zhuBH8AMAAAAAAPAbwc+8IfgR/AAAAAAAAPxG8DNvCH4EPwAAAAAAAL8R/Mwbgh/BDwAAAAAAwG8EP/OG4EfwAwAAAAAA8BvBz7wh+BH8AAAAAAAA/EbwM28IfgQ/AAAAAAAAvxH8zBuCH8EPAAAAAADAbwQ/84bgR/ADAAAAAADwG8HPvCH4EfwAAAAAAAD8RvAzbwh+BD8AAAAAAAC/EfzMG4IfwQ8AAAAAAMBvBD/zhuBH8AMAAAAAAPAbwc+8IfgR/AAAAAAAAPxG8DNvCH4EPwAAAAAAAL8R/Mwbgh/BDwAAAAAAwG8EP/OG4EfwAwAAAAAA8BvBz7wh+BH8AAAAAAAA/EbwM28IfgQ/AAAAAAAAvxH8zBuCH8EPAAAAAADAbwQ/84bgR/ADAAAAAADwG8HPvCH4hUDwmzp1qp544gk1adJELVq00KOPPqovv/xSeXl5zj7p6ek6efKkX/cfyG0BAED9EBcXp6effloREREKDw9X69at9d577yk1NdXZ55FHHtGXX37pXD569KiuXLlSFw8XAADUIoKfeUPwC/Lg98UXX6h79+5KTEx0rktPT9cnn3yivn37OtcNGjRIo0eP9usYgdwWAACY78MPP1S3bt105MgR57q8vDxNmjRJ7du3l23bkqQjR44oOTnZ2adDhw46dOhQrT9eAABQuwh+5g3BL8iD309/+lNdunTJ57bi4huPgeAHAAB8WbdunR566CGPdUN5lV0vEfwAAAgVBD/zhuAX5MGvQYMGSktLq3R7WlqaoqKi1LhxYzVr1kxRUVH6/e9/72xfs2aN/u3f/k3h4eGKjIzU+PHjNWDAAE2fPv2Wt42NjdUTTzyhDh06qGPHjpo6dWqNPlcAAFD9Xn75Zc2aNatK+/bt21erVq3SypUrFRUVpTvuuEOPPvqooqKiNHbsWH366af661//6nW7tLQ0NW/eXC6Xq7ofPgAAqAUEP/OG4Bfkwe/LL79Uhw4dtHnzZlmWVel+vj6lt3v3bjVp0sR5Z96yLH300Udq0qSJpk+fftPbTpgwQc8++6yys7MlSQUFBerTp48WLFhQTc8MAADUhhYtWnh8NcjNlAW/MhU/4Zeenq777rtPRUVFHrf79NNP9c0331TPAwYAALWO4GfeEPyCPPhJ0qpVq9SvXz+1bNlSvXv31siRI5WUlOSxj69o98ILL3h9Ks+yLDVv3vymwc+yLDVq1MjrVOLjx4+rW7du1fSsAABAbbjzzjur/MMbtwp+kvT73/9esbGxzuXr16+refPmunr1avU8YAAAUOsIfuYNwS8Egl95p06d0ogRI3T//fd7LLZ9Bb/GjRvr+PHjXvfRr1+/mwa/s2fP6ic/+Yl69uzpMc8884w6d+5c/U8KAADUmPDwcJ05c6ZK+1Yl+B0+fFiPP/64c3nu3LkaMGBA9TxYAABQJwh+5g3BL8SCX5mkpCTdcccdcrvdknwHv/vvv1+nT5/2uu2vf/3rmwa/kydP6q677qqZBw4AAGrVK6+8ohkzZlRp36oEP0l66qmntHPnTklSx44ddeLEiep5sAAAoE4Q/Mwbgl+QB7/KfjkvKytL//RP/+R8Ofb//M//aMSIER779OrVS999953HdbZtq1WrVh7Br+JtXS6XGjRooFOnTlXTswAAAHXldn6lt2Lw69Spk/bv3+91m/j4ePXv31/79u1Tz549q/9BAwCAWkXwM28IfkEc/HJzcxUZGalZs2apoKDAuT4lJUW/+tWv9M477zjXxcTE6MUXX5Rt2851mzZtUuvWrT2+72/48OG65557PIKfr9sOGTJEnTp1cm7rdruVkJDg9SlCAABgvg8//FBPPfWUjh496lyXl5enSZMmqX379s4aoGLw+81vfqOxY8d63Z/b7VabNm307LPPauXKlTX/BAAAQI0i+Jk3BL8gDn6SdP78ef35z39W69at1aJFC4WFhaldu3YaPXq0czqvJBUVFalv375q3ry5+vfv71yfkJCgTp066ec//7k6d+6sr7/+WgMGDPAIfpXdNjo6WpGRkQoLC1Pjxo3Vr18/HTt2rFaeNwAAqF5xcXHq3r27IiIiFB4ertatW+vdd99Vamqqs0/F4HfmzBk98cQTatmypcaMGeNxf6NHj1ZERITHG4YAAKB+IviZNwS/IA9+AAAAJhowYICio6Pr+mEAAIBqQPAzbwh+BD8AAIBatWXLFj366KPOdwkDAID6jeBn3hD8CH4AAAC14uzZs3rllVfUvXt3JScn1/XDAQAA1YTgZ94Q/Ah+AAAAtSIrK8vjhz8AAEBwIPiZNwQ/gh8AAAAAAIDfCH7mDcGP4AcAAAAAAOA3gp95Q/Aj+AEAAAAAAPiN4GfeEPwIfgAAAAAAAH4j+Jk3BD+CHwAAAAAAgN8IfuYNwY/gBwAAAAAA4DeCn3lD8CP4AQAAAAAA+I3gZ94Q/Ah+AAAAAAAAfiP4mTcEP4IfAAAAAACA3wh+5g3Bj+AHAAAAAADgN4KfeUPwC/Lg57IspWdmKSnlss4lpTIMwzAMUw8mKeWy0jOz5LKsWlkvsJZgGIZhmOCa2l5LEPzMG4JfEAc/l2XpwqU0ZefmG/EPBgAAUDUuy1JWdq4uXEqr09dw1hIAANRPtb2WIPiZNwS/IA5+6ZlZys7Nr/HjAACAmpGVnav0zKw6Oz5rCQAA6rfaWksQ/Mwbgl8QB78Ll9Lktu0aPw4AAKgZLstSUsrlOjs+awkAAOq32lpLEPzMG4JfEAe/c0mpNX4MAABQs+ry9Zy1BAAA9V9tvJ4T/Mwbgl+QBj/btlmkAwAQBM4lpcqug0/ZsZYAACA41MZaguBn3hD8CH4AAMBgBD8AABAIgl9oDsEvSIOfxGk4AAAEA07pBQAAgeCU3tAcgh/BDwAAGIzgBwAAAkHwC80h+BH8AACAwQh+AAAgEAS/0ByCH8EPAAAYjOAHAAACQfALzSH4EfwAAIDBCH4AACAQBL/QHIIfwQ8AABiM4AcAAAJB8AvNIfgR/AAAgMEIfgAAIBAEv9Acgh/BDwAAGIzgBwAAAkHwC80h+BH8AACAwQh+AAAgEAS/0ByCH8EPAAAYjOAHAAACQfALzSH4EfwAAIDBCH4AACAQBL/QHIIfwQ8AABiM4AcAAAJB8AvNIfgR/LzMXrpBI2OWaMz0Zc7MXrpBSakZVb6PZet2adfBH31u27LnqKLnfV/l+3JZVpX3BQAg2NTH4Dd76QYdOXne5za329aQ6IXKzS/0uX3czHhdSst0Lltut7bvP67J81dq1LQlmjArQd9v2qucvAKP223Zc1TDpyz2WL9Mnr9Sew6f8jr26NilHvuNmb5MF5Iv+/VcAQAwHcEvNIfgR/Dz4muRfupcskbHLvVaXFfmZsEvOzdfKZevVul+Fq/armOnL1RpXwAAglEoBz/btjV/+WYtXLlVV7NzJUnFJde148AJjZsZ77Eu2bLnqFZu3udxX1ev5Wry/JU6dOJslY4NAEAwIviF5hD8CH5eKlukz1++WT/8eK5K93Gz4Hc7Zi5ZT/ADAIS0UA5+R06e18TZy31+2v/7TXu1ZM0O57Kv4CdJ+46c1qKV26p0bAAAghHBLzSH4Efw81LZIn1ewiYdPVV6fW5+oRat3KZR05Zo0twVOnAsUTELVuvMhdJjlg9+luXW4lXbFbd6hyy3WwePJ2rBii3O/e45fErR877XxNnLNSNunU6fT9G1nDx9O2eFhk1ZrLEzlunbOSt08uwlSdKh42c1ae4KjY5dqgUrtmjfkdOavnidc39DJy/SybOX9N2KLZq1dIOmLVyjc5fS/fpbAABQ10I5+C1auU3b9h3zuV9aRpaGT1nsxMDKgt+ew6cIfgCAkEbwC80h+BH8vFRcpLvdbh0/c1Fjpi9TXkHpAnn64nVavWW/XC5LLsvS2m0HNGJqnFfwc7ksfbdiixLW75bbbUuSR/C7lJapCbMSVFhU+ve4ci1XR0/d+ERfxU/4nbmQqrEz4p1TgtMysjRp7gqP4Dc6dqm+W7FFJdddf/87pGncjHi//hYAANS1UA5+MQtW69jpiz73Ky65riHRC3UtJ0+S7+B3+co1TZq7Qj8mJlXp2AAABCOCX2gOwY/g52X20g0aNW2Jxs2M17iZ8ZowK0HfrdiitIwsSaWL55ExcXK5bpxe43JZXsFvy56jmhu/Sau27Jdt286+5YNfcvoVjY5dqsysHJ+PpWLwi1u9Xdv3H/fYZ/v+4x7Bb9zMeOdxSKVf9s3iHgBQXwVr8Bs1bYlGxy71miHRCysEP99f7VFUXPL34JcvqTT4jZga56xfRsbEadiURRXexKz82AAABCuCX2gOwY/g5+Vmi3RJOnMhRVPmr/K6Pnre9x7Bb/zMBI2dEa+i4hKP/Sqe0nvk5HlNX7xOk+Z+r1Vb9ik7N9/ZVjH4TV+8VifOJHnc37HTF7yCX0r6FY99hkQvVFZ23k2eNQAAZgrW4FeVT/gtXrW90lN6Uy9f1fCplZ/Sa9u29hw+qWkL1zhvPPIJPwBAKCL4heYQ/Ah+Xm4V/FIzrmp07FKPT+253bZGxizxCH47D/6oNdsOaNrCNcovKHL2rRj8ypRcd2nnwR81beEa57pZS9Z7nOK7cOVW7Tl8yuN2uw7+SPADAAStUA5+x05fqPRHO5Zv2K1l63Y5l32d0mvbtibMStCZCylVOjYAAMGI4BeaQ/Aj+Hm5VfCzbVsxC1Zr58ETznXb9x/XsCmLfP5ox5Y9RxU9b6Vy8gokeQa/pNQMnT6f4ny/3+nzKfp2zgrnfpeu3anVW/dLKl2k/5iYpElzv3cW6jl5BYqet5LgBwAIWqEc/CTpuxVbtHDlVl3NzpVUeirvtn3HNH5mgrO2kCr/0Y6te4/yox0AgJBG8AvNIfgR/LzcKvhJUnZuvhas2KJJc79X7KK12nXwx0p/pVeS9v5wShNnL9eVa7kewe/KtVzFrd6hibOXa+Ls5ZoZt95jkZ9xNVvTFq7RqGlLnHfn9x05reh5KxWzYLXmL9/MJ/wAAEGtvga/4VMWa2RMnMccO33xtoOf5XZrx4ETmjJ/lUZNW6LxsxK0YuMej9gnVR78cvIKNGzKIuXkFTjHHh27VGOmL/OYC8mX/XquAACYjuAXmkPwI/gBAACD1cfgBwAAzEHwC80h+BH8AACAwQh+AAAgEAS/0ByCH8EPAAAYjOAHAAACQfALzSH4EfwAAIDBCH4AACAQBL/QHIIfwQ8AABiM4AcAAAJB8AvNIfgR/AAAgMEIfgAAIBAEv9Acgh/BDwAAGIzgBwAAAkHwC80h+BH8AACAwQh+AAAgEAS/0ByCH8EPAAAYjOAHAAACQfALzSH4EfwAAIDBCH4AACAQBL/QHIIfwQ8AABiM4AcAAAJB8AvNIfgR/AAAgMEIfgAAIBAEv9Acgh/BDwAAGIzgBwAAAkHwC80h+AVx8Dt/KU1u267x4wAAgJrhsiwlpVyus+OzlgAAoH6rrbUEwc+8IfgFcfBLz8xSVnZujR8HAADUjKzsXKVnZtXZ8VlLAABQv9XWWoLgZ94Q/II4+LksS+cvpelaTp5cllXjxwMAANXDZVm6lpOn85fS6vQ1nLUEAAD1U22vJQh+5g3BL0iDn23bsm1b110upWdmKSnlss4lpTIMwzAMUw8mKeWy0jOzdN3lcl7TaxtrCYZhGIapv1PbawmCn3lD8Avy4FfxMsMwDMMw9WMqe02vLZU9DoZhGIZh6sfU5lqC4GfeEPyCNPhVVNf/Q8MwDMMwzO2Naer678EwDMMwzO1NbSL4mTcEvxAIfuX/y17X/4PDMAzDMMzNp+Jrtwl8PTaGYRiGYcyciq/dtYHgZ94Q/EIg+Emq1f+iAwCAwJj4um3iYwIAAL7V9us2wc+8IfiFSPADAAAAAACoCQQ/84bgR/ADAAAAAADwG8HPvCH4EfwAAAAAAAD8RvAzbwh+BD8AAAAAAAC/EfzMG4IfwQ8AAAAAAMBvBD/zhuBH8AMAAAAAAPAbwc+8IfgR/AAAAAAAAPxG8DNvCH4EPwAAAAAAAL8R/Mwbgh/BDwAAAAAAwG8EP/OG4EfwAwAAAAAA8BvBz7wh+BH8AAAAAAAA/EbwM28IfgQ/AAAAAAAAvxH8zBuCH8EPAAAAAADAbwQ/84bgR/ADAAAAAADwG8HPvCH4EfwAAAAAAAD8RvAzbwh+BD8AAAAAAAC/EfzMG4IfwQ8AAAAAAMBvBD/zhuBH8AMAAAAAAPAbwc+8IfgR/AAAAAAAAPxG8DNvCH4EPwAAAAAAAL8R/Mwbgh/BDwAAAAAAwG8EP/OG4EfwAwAAAAAA8BvBz7wh+BH8AAAAAAAA/EbwM28IfgQ/AAAAAAAAvxH8zBuCH8EPAAAAAADAbwQ/84bgR/ADAAAAAADwG8HPvCH4EfwAAAAAAAD8RvAzbwh+QR78Bg0apEaNGikyMtKZtm3bqlevXjpw4EC1HquwsFB79uyp1vu8mYiICJ0/f77WjgcAQKizbVsRERH64osvbut2aWlpatq06S3347UdAID6ieBn3hD8QiD4ffPNN17Xb926VU2aNKnWRfWqVav0/PPPV9v93Qr/KAAAoHYlJCToF7/4hcLDw1VcXPW1DMEPAIDgRvAzbwh+IRr8JOntt9/W+PHjq+1YBD8AAIJb165dtXfvXr333nuKiYmp8u0IfgAABDeCn3lD8Avh4PenP/1J0dHRzuVvv/1WkZGRioiIUNu2bT22SaWL9X79+qlt27YKCwtT586dtWHDBknSSy+9pMjISP30pz9VVFSUoqKilJeXJ0navn27unbtqvDwcDVt2lSvvPKKEhMTq3xc27Y1dOhQhYeHKyIiQk888YQ2bNjg9Y+C5ORkvfrqq3rsscfUsWNH9e3bV5cuXQro7wcAAErt379fXbt2lSRduHBBDz/8sGzb9tovJydHb7zxhpo0aaJWrVrpueee0+7duz2CX1Ve2zdu3KiXX35Zc+bMUZs2bRQREeHcPjY2Vk888YQ6dOigjh07aurUqR6PYffu3erSpYseeughNWnSRC+99JLOnj3rbJ85c6YeffRRtWnTRs2bN9d7772ngoKC6vtjAQAQYgh+5g3BLwSDn9vtVnx8vMLCwpSamipJGjZsmJ5++mldvXpVkpSVlaUePXpo5MiRzu1eeOEFjRs3zrl85MgRjR492rns6xN+Bw4c0AMPPKCdO3dKKl3gr1y5UosWLarycY3oXwQAACAASURBVD///HN169ZNV65ccfbp06ePGjZs6PyjIDc3VxEREVqxYoVzu40bN+qxxx6TZVl+/OUAAEB5r776qpYvX+5x+fvvv/far3v37nr//fflcrkkSceOHdPPf/5zj+BXldf2gwcPqmnTpnr//fd1/fp157YTJkzQs88+q+zsbElSQUGB+vTpowULFkiSLMvSz372M+e7im3bVnx8vJYtWyZJOnTokCIiIpxjl5SUaPjw4R5vRgIAgNtD8DNvCH4hEPzuvfdePfLII860a9dO//mf/6kzZ85Iklwul8cCu0xSUpIaNWrkBLN27do54c4XX8HvxRdf9PrEXpmqHPf69ev613/9V507d85jn3Pnzun//b//59x23LhxeuONN7yO0a9fP23evLnSxwwAAG7t4sWLXp/o279/v7p37+6x3969e9WsWTOvN9tiY2Od4FfV1/ajR4/qzjvvVElJibOPZVlq1KiR1yf4jx8/rm7dukmSsrOz1aBBg0q/YzA+Pl7PPPNM1Z88AAC4JYKfeUPwC4HgV9kpvWUSExPVqFEjn9vuv/9+XbhwQZK0fPlyhYeH629/+5tWrVqlwsJCj319Bb8HHnhAx48f9/u4Z86c0T333ONzn7vvvtv5R8Fvf/tbtW3bVj179vSY9u3bO58mBAAA/hk4cKDP7+zr1q2bDh486FyeOnWqXn75Za/9jh8/7gS/qr62Hz16VO3bt/fYfvbsWf3kJz/xer1/5pln1LlzZ2e/Tz75RO3atdOQIUO0e/duud1uZ1tJSYl69Oih3r17Kzo6WqdPn67y3wEAAPhG8DNvCH4EP505c6bS8Hbffffp4sWLzuWsrCzNmzdPb731lsLDwzV79mxnm6/g17hxY504ccLv4yYmJupnP/uZz33uvfde5x8Fr776qiZMmFDpcwQAAP7JyclRw4YN9eCDDyoiIsJjGjdurNdee83ZNyYmRq+++qrXfZw6dcoJflV9bT969Kg6dOjgsf3kyZO66667qvS4z507p0mTJql///5q3bq1Dh065LF97969Gjp0qHr06KFu3bo5pwgDAIDbR/Azbwh+BD+5XC7dddddHmFPKj19p/wpvRUlJyerQYMGzuW1a9eqd+/eHvs8//zzXl+kfTvHtSxL99xzj9epO6mpqfqHf/gH5x8Fw4YN069//eubPk8AAHD7hg8frk8//dTnNtu21apVK+d1+ocfflDLli29fsxj/vz5TvCr6mu7r+DncrnUoEEDnTp16raew5w5c7zelCzv9ddf9/heYgAAcHsIfuYNwY/gJ6k0mPXo0cP58YyrV696/HhGcXGxPv74Y2VkZDi3Wbt2rSIjI53LiYmJeuCBB5Sfn+9ct2fPHq8f7ViyZIkWLlxYpeNK0ogRI9SnTx/n1/OKiorUv39/NWjQwPlHwdWrV/XAAw8oJibG+UdGenq63n77baWnp9/eHw0AAEgqDWwtWrRwfuTLl5EjR+qjjz5yLvfu3VuDBw92Ll+6dEmdO3f2+NGOqry2+wp+kjRkyBB16tRJSUlJkkp/jCwhIcEJdkeOHNHEiROd7/CzbVsff/yx/vKXv0iSvvvuO61evdpZLxQVFenpp5/mK0AAAAgAwc+8IfgR/Bzjx49X69atFR4ertatW3udIjt58mS1a9dOzZo108MPP6xevXp5vcP+xRdfKCwsTK1atXI+Gbhp0yZFRUUpLCxMTZs21X/9138pLS2tyseVpNGjR+vxxx9Xly5d1K1bNyUkJCgiIsLjBz/Onz+vl19+WY0bN1ZYWJgeeughjRo1il/pBQDAT3Pnzr3lJ+ivXbum++67T7m5uZKk/Px8vfnmm3r88cfVtWtX9e7dW5s3b/YIftKtX9srC36SFB0drcjISIWFhalx48bq16+fjh075hz/r3/9qx588EG1bNlSDz30kP74xz8qLy9PUumpvv3791eTJk3Upk0bPfLIIxoxYkQAfyUAAEDwM28IfkEe/AAAAAAAAGoSwc+8IfgR/AAAAAAAAPxG8DNvCH4EPwAAAAAAAL8R/Mwbgh/BDwAAAAAAwG8EP/OG4EfwAwAAAAAA8BvBz7wh+BH8AAAAAAAA/EbwM28IfgQ/AAAAAAAAvxH8zBuCH8EPAAAAAADAbwQ/84bgR/ADAAAAAADwG8HPvCH4EfwAAAAAAAD8RvAzbwh+BD8AAAAAAAC/EfzMG4IfwQ8AAAAAAMBvBD/zhuBH8AMAAAAAAPAbwc+8IfgR/AAAAAAAAPxG8DNvCH5BHvxclqX0zCwlpVzWuaRUhmEYhmHqwSSlXFZ6ZpZcllUr6wXWEgzDMAwTXFPbawmCn3lD8Avi4OeyLF24lKbs3Hwj/sEAAACqxmVZysrO1YVLaXX6Gs5aAgCA+qm21xIEP/OG4BfEwS89M0vZufk1fhwAAFAzsrJzlZ6ZVWfHZy0BAED9VltrCYKfeUPwC+Lgd+FSmty2XePHAQAANcNlWUpKuVxnx2ctAQBA/VZbawmCn3lD8Avi4HcuKbXGjwEAAGpWXb6es5YAAKD+q43Xc4KfeUPwC9LgZ9s2i3QAAILAuaRU2XXwKTvWEgAABIfaWEsQ/Mwbgh/BDwAAGIzgBwAAAkHwC80h+AVp8JM4DQcAgGDAKb0AACAQnNIbmkPwI/gBAACDEfwAAEAgCH6hOQQ/gh8AADAYwQ8AAASC4BeaQ/Aj+AEAAIMR/AAAQCAIfqE5BD+CHwAAMBjBDwAABILgF5pD8CP4AQAAgxH8AABAIAh+oTkEP4IfAAAwGMEPAAAEguAXmkPwI/gBAACDEfwAAEAgCH6hOQQ/gh8AADAYwQ8AAASC4BeaQ/Aj+AEAAIMR/AAAQCAIfqE5BD+CHwAAMBjBDwAABILgF5pD8CP4AQAAgxH8AABAIAh+oTkEP4Kfl4T1uzViapzGTF/mMafOJUuSsrLzNCR6odf2WUvWO/dRUFispWt3atS0JRodu1QrN+9TyXWXx3Eys3K04PutGjN9mcbOiFf8ul26kpXjbE/LyNKspRs0IiZOE2cv1+5DJ/16PgAA1GfBGPzOX0rXhFkJKijyXg8dO31BC1Zs0eUr1zQiJk6Xr2R77ZNxNVsjY+KUcTXb67axi9b6POa0hWt04NgZr+tT0q9o/MwE2bat85fSFT3ve5+3v3ItV0MnL3Iub9lzVMOnLPZaDy1YscV5jhXXSxNnL9fqrftVXHK9yvcDAECgCH6hOQQ/gp+XhPW7tW3fsUq3lwW/m5mzbKO+37RXRcUlKigq1uJV2xW/bpezPb+wSGNnLNPeH07J7bZVct2lfUdOa86yjZKkwqJijZm+TAePJcplWcrMylH0vJU6dPysX88JAID6KliD35DohfrOR9QqC36StHXvUc2IWyfbtp3ttm1r5pL12r7/uNdtS667NCImTlnZeR7XX8nK0dDJi5x1RnnrdxzSuu0Hncd1O8Fv5eZ9N32OFe+rqLhEcat3KH79jTXRre4HAIBAEfxCcwh+BD8vgQa/tIwsjY5dKstyO9cVFZdo2JTFys0vlCRt3HXY5yK/7DZ7Dp/SwpVbPbadPp+iyfNX3tZzAQCgvgvW4BezYLXmLNuoHQdOeGwrH/wst1sxC1Zr7w+nnO37jpxW7KI1crvd8mXZul1e97l171Gt235Qo2OXOmuRMhNnL1dK+hXncdVk8JOky1eyNWrakirfDwAAgSL4heYQ/Ah+XgINfgeOnfEZ86YtXOOcFjxt4RodOXm+0vtYunandh780eO6ouISDYleqKLikls8AwAAgkd9DH65+YVatHKbRk1boklzV+jAsUTFLFitMxdK7+/8pXTFLlqj3PxCjZsZr6TUDOe25YOfVPpG4qhpS5Sdm6/s3HyNjl2q9MysSo99+nyKpi1c43Hd5PkrdfnKNS3fsEf7jpx2rr+UlqlJc29EudoIfmkZWRoZQ/ADANQegl9oDsGP4OclYf1uLV27U/OXb9bYGcs05btVOngs0dleFvy27z+u6HkrNWb6MsWt3qGcvAJJpe+iJ6zf7XW/85dvdu5n1LQlOnUuWQnrd2vcjHhNnL1cG3f94HzCb86yjTp84pzXfQydvMjje/4AAAh29TH4TV+8Tqu37JfLZcllWVq77YBGTI3zCn6SlHgxVRNmLXe+z69i8JOkzbuP6LsVW/Tdii3asufoTY9tud0aHbvUWS+kZWRpynerJElnL6ZpZrnvHF677aA27zniXK7p4JdXUKgF32/Vmq0Hqnw/AAAEiuAXmkPwI/h5SVi/W4tWbtO1nHzZtq2k1AyNmb5MP569JKk0+I2MidOx0xdlWW4VFZfo+017FbNgtaTKg9+8hM06eLw0+A2dvOjv7/SnyO12Kys7TzPj1mv9jkOSKg9+Q6IX6sq1XL+eFwAA9VF9C36Xr1zTyJg4uVyWc53LZVUa/CRp064fnLMDfAU/y3Jr6nerNHXBalmVnMpb3srN+5yzFTbuOux835/bbWvsjHhl55auccbPSvD44Y+y7xYcHbvUa0ZNW+IV/IZNWey1366/n6Fw/lK6hk5epHEz4zVuZrxGxy7VkOiFWrPtgMfpyLe6HwAAAkXwC80h+BH8vFiW2+PLsSVp275jWrp2p3PZZVletxk2ZZEys3IqPaU3ZsFq55Te8bMStGbbAY/tF1Mua+yMZZLKTun1/P6dwqJiTukFAISc+hb8zlxI0ZT5q7yuj573faXBz+22NXvpBu04cMJn8JOktdsOOG8M3sqF5Mua+vdP9X07Z4XHj3is3rpfuw+d1MWUDOfNyjI1/Qm/S2mZGh27VNm5+VW+HwAAAkXwC80h+BH8qmT7/uMewa8it9utYVMWKzMr58aPdpR797qwqFjDpixSXkHpF2UvW7tTa72CX4bGzYiXJO05fNLHj3Yk+/wHBAAAway+Bb/UjKsaHbvU481Dt9vWyJgllQY/ScrJK9C4GfFatWVfwMHPtm1NmJWgg8cSNSNunce2pNQMTV+8Vqu37vd6c7E2vsNv2dqd2rDzcJXvBwCAQBH8QnMIfgQ/Lwnrd+vQibMqLrkuSUq9fFXjZsbr9PkUSVJK+hXFrd6h9MxrkqTrLpfWbjug2EVrnfuYvXSDVm3Zp+KS6yoqLlHc6u2KX7/L2Z6eWRoFz19Kl1T65d6zl27Qxl2lC+CComKNmb5Mh0+ck9vt1tVruYqet1KHTpz16zkBAFBf1bfgZ9u2Yhas9ohp2/cf17Api24a/CTpzIVUDYleGHDwk6T1Ow5pZEycxy/8lpk4e7lGTVuiazn5HtfXRvC7kHxZY6Yvc763mOAHAKhpBL/QHIIfwc/LlWu5Sli/W+NnJmjUtCWKWbBaR0+dd7bbtq0Dx85o+uK1Gh27VGOmL1P8+l3Op/ckKb+wSEvW7NCoaUs0Onapvt+0VyXXXR7HuZB8WTPi1mnUtCUaPzOh9Ec7yn0qMPXyVc1asl4jY+I0YdZy7TrEd9kAAEJPfQt+kpSdm68FK7Zo0tzvFbtorXYd/NHnr/T6smHn4WoJfqkZVzUkeqHH+qT8Mcr/eEeZ2w1+w6cs1pjpyzym7LHf7L4mz1+pY6cvVOl+AAAIFMEvNIfgR/ADAAAGq4/BDwAAmIPgF5pD8CP4AQAAgxH8AABAIAh+oTkEP4IfAAAwGMEPAAAEguAXmkPwI/gBAACDEfwAAEAgCH6hOQQ/gh8AADAYwQ8AAASC4BeaQ/Aj+AEAAIMR/AAAQCAIfqE5BD+CHwAAMBjBDwAABILgF5pD8CP4AQAAgxH8AABAIAh+oTkEP4IfAAAwGMEPAAAEguAXmkPwI/gBAACDEfwAAEAgCH6hOQQ/gh8AADAYwQ8AAASC4BeaQ/Aj+AEAAIMR/AAAQCAIfqE5BD+CHwAAMBjBDwAABILgF5pD8Avi4Hf+Uprctl3jxwEAADXDZVlKSrlcZ8dnLQEAQP1WW2sJgp95Q/AL4uCXnpmlrOzcGj8OAACoGVnZuUrPzKqz47OWAACgfquttQTBz7wh+AVx8HNZls5fStO1nDy5LKvGjwcAAKqHy7J0LSdP5y+l1elrOGsJAADqp9peSxD8zBuCX5AGP9u2Zdu2rrtcSs/MUlLKZZ1LSmUYhmEYph5MUsplpWdm6brL5bym1zbWEgzDMAxTf6e21xIEP/OG4Bfkwa/iZYZhGIZh6sdU9ppeWyp7HAzDMAzD1I+pzbUEwc+8IfgFafCrqK7/h4ZhGIZhmNsb09T134NhGIZhmNub2kTwM28IfiEQ/Mr/l72u/weHYRiGYZibT8XXbhP4emwMwzAMw5g5FV+7awPBz7wh+IVA8JNUq/9FBwAAgTHxddvExwQAAHyr7ddtgp95Q/ALkeAHAAAAAABQEwh+5g3Bj+AHAAAAAADgN4KfeUPwI/gBAAAAAAD4jeBn3hD8CH4AAAAAAAB+I/iZNwQ/gh8AAAAAAIDfCH7mDcGP4AcAAAAAAOA3gp95Q/Aj+AEAAAAAAPiN4GfeEPwIfgAAAAAAAH4j+Jk3BD+CHwAAAAAAgN8IfuYNwY/gBwAAAAAA4DeCn3lD8CP4AQAAAAAA+I3gZ94Q/Ah+AAAAAAAAfiP4mTcEP4IfAAAAAACA3wh+5g3Bj+AHAAAAAADgN4KfeUPwI/gBAAAAAAD4jeBn3hD8CH4AAAAAAAB+I/iZNwQ/gh8AAAAAAIDfCH7mDcGP4AcAAAAAAOA3gp95Q/Aj+AEAgHrMtm1n3G43UwdT/v8PAAAIRQQ/84bgR/ADAAD1UFngsyxLLpdLLpdLJSUlTB1M2d/fsiwnAAL4/+3d/XdcdYHH8T8jq67uHleb9kRABISyh3Jc4Ai7nZSHFYILfUCe5JQHhVURVl3MKi3isggqq0ARefBUEcvzUmB5EkRQ2SoKTZqmzcO0SSbzcO/MvXcePvvD5E7uzNyZzE0m85D7fp3zOUIIpA2t5/A+33u/AMKE4Nd5I/gR/AAAaJnRsag2XTmoY0/7nHr6Iqxix572OW26clCjY9G630c39Jnv/E4jF5yoof41Gor0snauf41GLjhR5p/eKoU/AADCguDXeSP4EfwAAGiJ0bGoPnrCgO6679EFg1ZYjY5Ftf2OB/TREwZqfo/y+byy2azS7/1RQ/2rNby+V8PrOyB4hXzD63u1d/0qDfWvVvrdPcpms0Q/AEBoEPw6bwQ/gh8AAC2xceug7rrv0Xb/MLrC9jse0Matg1UfLxQKyuVysixb+7esI/R14PauX6X9W9bJsmzlcjke7wUAhALBr/NG8CP4AQDQEh89YUDxhNHuH0ZXGB2L6tjTPlf2MfedfY6TVTqd0VD/6rbHLVa94fW9GtqwRul0Ro6T5Z1+AIBQIPh13gh+BD8AAFqipy/S7h9CV6n8fnlP95lmuu1hi9WfaaY55QcACA2CX+eN4EfwAwCgJQh+wXi/X+7pvmw2p0zGUjKZanvQYvWXTKaUyVjKZrm5FwCw8hH8Om8EP4IfAAAtQfALxi/4uY/zJhIEv05fIpHisV4AQGgQ/DpvBD+CHwAALUHwC6Y6+BXkOFmZZlrxeLLtQYvVXzyelGmm54JfgeAHAFjRCH6dN4IfwQ8AgJYg+AVTGfxyubxs25FppjU7m2h70GL1NzubkGmmZduOcjlO+AEAVjaCX+eN4EfwAwCgJQh+wbjfL/dx3lyu+EivYZgEvy7Y7GxChmHKcbLK5fI81gsAWNEIfp03gh/BDwCAliD4BVM7+HHCrxtWDH5pgh8AIBQIfp03gh/BDwCAliD4BeMX/GzbkWGkFYvF2x60WP3FYnEZxvwjvQQ/AMBKRvDrvBH8CH4AALQEwS+YWsEvlTIJfl2wWCyuVMok+AEAQoHg13kj+BH8AABoCYJfMAS/7h7BDwAQJgS/zhvBj+AHAEBLEPyCIfh19wh+AIAwIfh13gh+BD8AAFqC4BcMwa+7R/ADAIQJwa/zRvAj+AEA0BIEv2AIft09gh8AIEwIfp03gh/BDwCAlliu4Lf6xM+qpy9S2geOOlN/v/5y3fvQE039Ol/ffrd6+iLa8+fhpv5za2ln8Bu5YK3iu+5TNjomZR3lZqeVevlJHbz6rOZ/vQ1rtG/guNKfj15+uiTJ+ssf2h7tCH4AADSG4Nd5I/gR/AAAaInlDH5HnLxRO3c9r527nteOh5/UGQPXqqcvol88/r9N+zphCX4jm9cpN3NIKhSUeukJTe/4juK77pMzsV/We//X1K819qXzlYvPaOqHN81//U0nKfXSE4o9/P22RzuCHwAAjSH4dd4IfgQ/AABaYjmD34n/dHnZx6Zm4urpi2jzVf/RtK8TluBnvPasJCn6nevK/9qZfRr9/BlN/VqT375KksqC30oZwQ8AECYEv84bwY/gBwBAS7Qy+NlOVu87YoM2bh0sfWzf6ITOuegG/c0nztFxn75Yjzzxonr6Ijrv0q+VPmdmNqkvfu129Z10gT583Lk6Y+BaPfY/r0qqDn4PPvKsevoiGrj067KdbNN/Xu0IfvsGjpNyWTkHhxf83LF/HVBmzxsqZEzljYSMV57S/os+Vfrryed+KUma/PZVskffU8G2ZO3dowNXn1kMi6/vrvo5T9x0mYY/c7QkyXh9t4Yivdp/8T9IkuKP/1TJZ3+uvJFUPhHT7C/vKX2t6PYvSJIO337D/Nff/YgkafTS00ofO3TbV+QcGFLBSsvau0djX/kXgh8AAE1A8Ou8EfwIfgAAtMRyBr/jT79U07GEpmMJHRg/pBtv/pF6+iJ6cvdrkiTLdnTcpy/WXx91lrZ97wHdv/NpnRS5oiz45XJ5nfrPV+v9R27QjTf/SD/d+Yyu/Op/6qZb75VUHvx+9fTLet8RG3TmpuuVztjL8vNqR/A7eM3ZkiTjlafqft7o5aerYGeUnTygw7ffoOm7b1beTCk7eUDD5xypoUiv4o/9RJJkj7yr8X/bosnBK1Rw7NJjwQeujCj20B2SpPhj92v8xs3a99njq4LfvvM/WfyG5POaeeB2Hbz2MzJefVqSNPGNSxoOftFbrpUkpV58TOM3blby+V+pYFsa2byO4AcAwBIR/DpvBD+CHwAALdGqSzvcbbn6W3KyxZN3z7zwhnr6Ivr69rtLf99bb/+lLPi98Mrv1NMX0fWDP/T9Om7wu+2un+kDR52pMwaulWGml+XnJLUp+F19liTJePXpup83+8iPJUnjN2wsfWz6nm2SpMmbr577nOL3euIbF5c+J7PnN1LW0VD/ag1F/B/prQx+7p9b775d+pzx6y+UJM3cf1vDwc96920V0oaGzvpY8Z97zpFS1tH0ju8Q/AAAWCKCX+eN4EfwAwCgJZYz+B19yha9+Ovf68Vf/17Pvfymvn/vI/rgx8/SZddtlyTd+9AT6umLaOeu50t/n2Gmy4Kf+zn373za9+u4we+DHz9LPX0R7X7pzWX5+bja80jvscVHesf21f281MtPSpJGNp1U+tjETZdJkqbv2VYW/A5ctaH0OeZbL0mShs8+InDwc/98KNKrg9edK0ma/fl/Nxz8crHDUi6r3OxUaYW0ofhj9xP8AABYIoJf543gR/ADAKAlWvkOP0nasPEr+tDRxUdUn3rudfX0RXTrDx4q/fV33h0pC37PvPAb9fRFdMO37vL9Om7w+9mjz2nV2gGtWjugP/1lpPk/oTltv7Tj1tqXdsyf8Ns0f8Lv7pslVZ/wqxf8Jr75eUnS9I+/vaTg58ZGbzhMv/26pPngl3nnLeWmo6XThcs9gh8AIEwIfp03gh/BDwCAlljO4HfEyRu1c9fz2rnreT386G5987s79P4jN2j9BV+SJJlpS0d9apNWrR3Qg488q90vvakzzr+uLPhlLFufPP0SfeCoM/XN7+7Qw4/u1nXfuFOD390hqfwdfr/b854+fNy56lt3oYb3jy/Lz6tdwW9k8zrlpqNSoaDUi49resctiv/qPjkT+0vv3yt7h9+dX9P0PduVNxJl7/BrJPjtv+RUKZ+XMzGqqbsGNXrpaYsKfvu3nCzlsrL3/VkTN12m2IPfk+biWukdftuuKf5zXnlK0W3X6NBt18t45Skd/MI5BD8AAJaI4Nd5I/gR/AAAaIlWvcPvrz7Wr4+tu1BXfPlWTUSnS5/3zrsj6r/wy/rQ0Wfr6FO2aMfDT1bd0ntw4rAu+eI2rVo7oL/75Ln6x89ep8dr3NL72pt/1N8ec44+ccoWjU1ONf3n1a7gNxTp1cgFaxV/7CfKRsekrKNcfEbGq8/o4DVnlz5n7EvnF2/ptdLFW3pffbrslt5Ggt9QpFdTP/h35WYOqZA2NP7VjYsKfkORXh36r68qe3hcBduS8dqzSu7+haTyW3qj266RtXePCmlDuemoUi/s0v6LTyH4AQCwRAS/zhvBj+AHAEBLLFfwW6naGfwYwQ8AgCAIfp03gt9yBT+D4AcAgBfBLxiCX3eP4AcACJMFg59B8Gv1CH5LDH6mJ/zVDX4pgh8AINwIfsEQ/Lp7BD8AQJhUBb9UY8HPbSoEv+aP4NfU4Of4Bj9v+IunLIIfACCUCH7BEPy6ewQ/AECYzAc/qyz0+Qc/h+DXghH8mh38TIIfAAB+CH7BEPy6ewQ/AECYNBz8TIJfq0bwWyD4ub/ICH4AACwNwS8Ygl93j+AHAAiT5Qp+lX2G4Nf4CH5NCH5GOlsR/ByCHwAAFQh+wRD8unsEPwBAmDQW/Jyy4GekswS/ZRzBb5mCX7JW8EsS/AAA4UTwC4bg190j+AEAwqQU/JL+wS9J8Gv5CH4NBr/0IoOfN/wR/AAAYUbwC4bg190j+AEAwqRW8PMuSPBLE/yWPILfIoOfWRn85m6bKQ9+du3gl8i0+/cjAAAtRfALhuDX3SP4AQDCZDaRqRP87LLg520o3rZC8GvuCH6+v3iaHfxsgh8AIPQIfsEQ/Lp7BD8AQJj4Bz97mYJfnuDXwAh+jQS/zOKCnzf8eYOfe9QVobXFvAAACWxJREFUAIAwIfgFQ/Dr7hH8AABh4m0dlcHP20gCBb8MwW8pI/i1IfjF5/4XAIAw+cjx5ymeMNr9w+gKo2NRHXPqRZKqg59pZgh+Hbzh9b0a6l+jWCwu08wQ/AAAoeBtHQS/zhjBb5mCX6ri0d5EylY8ZRH8AAChtXHroLbf8UC7fxhdYfsdD2jj1kFJ5cHPcbIyzYzi8aRGNp2kvetXtT1wsfLtXb9KI5vXKR5PyjQzcpwswQ8AsOJ5W0c8ZVUFP7eREPxat9AHP8suVP3iqfxYefDL1Q1+qTrBL1EKfwQ/AED4jI5F9ZHjz9Mtdz6o0bFou384HWl0LKpb7nxQHzn+vNL3qDL4pdMZJRIpTf321xrqX61h91RZB8SuMG94fa+GI70a6l+tqT/8VolESuk0wQ8AEA5u8PO2D7/gl1ow+OVqBj/Lrr5otd09qZNH8LODB7/SKT9P8DPTuZrBzz3OWnqsN8U7/AAA4TQ6FtXGrYM65tSL1NMXYRU75tSLtHHrYFUQLRQKpeBnWbaSSUOxWFyH33hF+y5cq6H+NW0PXqFf/xrtu3CtDr/xqmKxuJJJQ5Zll4IfsQ8AsJJ5T/Z5Vyv4uQ3F21ZKp/sIfk0Zwc9efPBLz/3CrAx+pfBnzAc/b/iLc2kHAAAIoHjKr6BsNifLsmWaxVN+09OzOnRoWuPjh3TgwIQOHpzU6Oi4RkfHtX//GFvGud/ngwcndeDAhMbHD+nQoWlNT88qkUjJNDOyLFvZbE75fIHgBwBY0apv6J1vISnDKWslZcEvPf8kJcGvuSP42ZXPf1d/LFjwc+bf42e4j/Q6VcFvluAHAAAa5D7Wm83m5DhZZTK2DCOteDypmZm4pqZiikanNDk5pYmJw6yFm5ycUjQ6pampmGZm4orHkzKMtDKZ4um+YvDjhB8AYGWrvqF3voWkPBd2pExnacHPIvg1OoKf3Xjwy1Rc3JH2PmvuE/zc9/fVuqkXAACgEZXv8bNtR+m0JdPMKJk0NDubVCyW0MxMXNPTs6yFm5mJKxZLaHY2qWTSkGlmlE5bsm2H9/cBAEKj1g293vf4VQY/t6VUBr+MlSf4NWEEP7s5wc/vpl7v9dPem3rdizsAAAAa5T3ll83mZNuOMpni472GkVYqZSqZNJVIGKyFSyZNpVKmDCMt08wok7Fl207p3xOxDwAQBvFUefPwhj5v8PO7sIPgtzwj+NmLD361buo1Grm4g0d6AQBAAIVCoXR5hzf6WVYx/KXTVmmmmWEtmPd7nsnYsiynLPa5l3UQ/AAAK533dF+tCztqBT+T4LcsI/jZ1cGv8iWQpV9sDQa/Wjf1Vr7HDwAAIAjvo73u+/zcR3yL8a8YndwIyJZv7vfZsuzS99/99+HGPk73AQDCouaFHT439C4U/Nz+Utlliq2G4NfoCH52g8Evs3Dw87upN1l2ccf8EVeCHwAAWAw3+nnDnxv/vH/Mln9+33s39BH7AABhUryrwKp4f5/7OG+NG3rrBb8MwW+pI/jZ1XFv4eDX+E29fu/xS8z9LwAAwGK4j4m6YSmfLz7qy9q3fL5QFvqIfQCAMPG2jlrv71vKDb21Wk27e1Inj+Bn+we/yo8vFPwafY+f97FeAACApXDDUnUAZK1c5b8HAADCZqHHeRu9sKNW8LNs/6cx292TOnkEPztY8Gv0pt6y9/jVeKwXAACgmSrDE2vNAAAIO7/HeVPGwu/vC3RDr0+/aXdP6uQR/ObWrJt6y97jV++xXk74AQAAAACAFWD+hF+tx3kbe38fN/Q2bwS/uS0U/Pwe653/hVn9Hr/6j/US/AAAAAAAwMrgbR01H+et8f4+t6vUe39fsdEQ/IKM4De34Df1NvZYb/ltvXbZKT8AAAAAAIBuV/44rxv9ytvIYt/fxw29ixvBb25LeY9f7cd6nbqn/AAAAAAAALpdvdN9VbfzLuZxXp9u0+6O1Okj+M0t0E29PsHP+1hvrdt6K0/5AQAAAAAAdDu/031+t/P6P86bnz/dR/Br2gh+c6sKfg2+x6+hx3p9TvklDafdvx8BAAAAAACWrHQzb9XpvqU/zltsMwS/oCP4eRbkPX6NPtbrd8rPjX4AAAAAAADdrvxm3jqXdQR8nJf39y1+BD/P/IJf5cfrBb/ap/wq3uXHI70AAAAAAGCFSBq2Uob/u/tqne4L9v4+gl/QEfw8a+Q9fkEe6/We8kt54p9bvgEAAAAAALqdt3WU3czrc7ov8OO8Pl2m3f2oG0bw8yzoe/yWcsovaTjK5wvt/j0JAAAAAACwaPl8oepR3mac7uP9fUsbwa9iQd7j19DlHXUu8LAdgh8AAAAAAOhetpOve1FHQ6f7eH9f00fwq1jQx3obOeVX9WivJ/pxyg8AAAAAAHSjfL7gH/vqPMob6HSfT49pdzfqlhH8Kub3WG/QU36lW2d8Hu2tfJ+fmcmpQPMDAAAAAABdpFCQjHTO9719lY/y+t3Mu5jTfQS/xkfwq1it4Of31wK9y68i+pW92y+dle3kCX8AAAAAAKCjFQqS43hO9tXoHc053UfwW+wIfj4LenlHrVN+vo/2Vlzi4f6xe5FH8WYbW0nDmZutpGErkZpfPGXN/3HSml/KVjxla9b7sYrNJjLFJS3GGGOMMcYYY4ytlM39937NHpCc7wbej/u1hkTKLvUIb5+Yv423PPZ5/7iRR3kXOt1XbDDEvqWM4OezpZ7yq/dorzf6+b3TL2k4SpXCX3He32je33wJo/o3ZHkA9PxmXiAEMsYYY4wxxhhjrPtXFvbmQp73r1cdKKpoDd7+4HaJlFlsFdW38Zaf7KuMfdWP8nK6r1Uj+NVY0Ms7Fjzl13D0q33ar7Kwl8U/nxrvGwErl6qczRhjjDHGGGOMsY5dxX/H1/lvft9G4NMOKp8wrHeqL0jsW/TpPp/+0u5O1G0j+NXYYk75NSP6eR/xrf2Y78Lxr94pQMYYY4wxxhhjjK3s+Z3e86525PMLfZWP8C537CP4LXUEvxqrDn613+Xn/2jvwtGv+vZex/e0nzf8eR/19ca/4m/O8ufrF/1/DAZjjDHGGGOMMcY6bov87/xa9wRU9gVvd/CGPu+pvlL4q3FBR73YV+9R3nrv7iP4BR/Br84We8ovaPSrPu03d6FHrfBXJ/7VjoB+L9ys/fcxxhhjjDHGGGOs81bvv+n9GsBCf1+pOxi1Q5/hE/rcU32BYx+n+1oy287r/wGyZbl79APz+AAAAABJRU5ErkJggg==;" parent="1" vertex="1">
          <mxGeometry x="850" y="-210" width="658.58" height="320" as="geometry" />
        </mxCell>
        <mxCell id="KzMME8AJnO-x6P3zgn9o-54" style="edgeStyle=orthogonalEdgeStyle;rounded=0;orthogonalLoop=1;jettySize=auto;html=1;exitX=1;exitY=0.5;exitDx=0;exitDy=0;fontSize=14;fontColor=#000000;" parent="1" source="KzMME8AJnO-x6P3zgn9o-42" edge="1">
          <mxGeometry relative="1" as="geometry">
            <mxPoint x="1360" y="-469.66666666666674" as="targetPoint" />
          </mxGeometry>
        </mxCell>
        <mxCell id="KzMME8AJnO-x6P3zgn9o-75" style="edgeStyle=orthogonalEdgeStyle;rounded=0;orthogonalLoop=1;jettySize=auto;html=1;fontSize=14;fontColor=#000000;" parent="1" source="KzMME8AJnO-x6P3zgn9o-42" edge="1">
          <mxGeometry relative="1" as="geometry">
            <mxPoint x="1010" y="-470" as="targetPoint" />
          </mxGeometry>
        </mxCell>
        <mxCell id="KzMME8AJnO-x6P3zgn9o-42" value="" style="rhombus;whiteSpace=wrap;html=1;fontSize=14;fontColor=#FF3333;verticalAlign=middle;" parent="1" vertex="1">
          <mxGeometry x="1060" y="-510" width="205.5" height="80" as="geometry" />
        </mxCell>
        <mxCell id="KzMME8AJnO-x6P3zgn9o-43" value="Response Status" style="text;html=1;strokeColor=none;fillColor=none;align=center;verticalAlign=middle;whiteSpace=wrap;rounded=0;fontSize=14;fontColor=#FF3333;" parent="1" vertex="1">
          <mxGeometry x="1085" y="-485" width="150" height="20" as="geometry" />
        </mxCell>
        <mxCell id="KzMME8AJnO-x6P3zgn9o-52" style="edgeStyle=orthogonalEdgeStyle;rounded=0;orthogonalLoop=1;jettySize=auto;html=1;fontSize=14;fontColor=#000000;" parent="1" source="KzMME8AJnO-x6P3zgn9o-44" edge="1">
          <mxGeometry relative="1" as="geometry">
            <mxPoint x="1160" y="-360" as="targetPoint" />
          </mxGeometry>
        </mxCell>
        <mxCell id="KzMME8AJnO-x6P3zgn9o-44" value="status == ?" style="text;html=1;strokeColor=none;fillColor=none;align=center;verticalAlign=middle;whiteSpace=wrap;rounded=0;fontSize=14;" parent="1" vertex="1">
          <mxGeometry x="1075" y="-465" width="170" height="20" as="geometry" />
        </mxCell>
        <mxCell id="KzMME8AJnO-x6P3zgn9o-57" value="" style="edgeStyle=orthogonalEdgeStyle;rounded=0;orthogonalLoop=1;jettySize=auto;html=1;fontSize=14;fontColor=#000000;" parent="1" source="KzMME8AJnO-x6P3zgn9o-45" edge="1">
          <mxGeometry relative="1" as="geometry">
            <mxPoint x="1460" y="-470" as="targetPoint" />
          </mxGeometry>
        </mxCell>
        <mxCell id="KzMME8AJnO-x6P3zgn9o-45" value="created" style="text;html=1;strokeColor=none;fillColor=none;align=center;verticalAlign=middle;whiteSpace=wrap;rounded=0;fontSize=14;fontColor=#000000;" parent="1" vertex="1">
          <mxGeometry x="1380" y="-480" width="40" height="20" as="geometry" />
        </mxCell>
        <mxCell id="KzMME8AJnO-x6P3zgn9o-53" style="edgeStyle=orthogonalEdgeStyle;rounded=0;orthogonalLoop=1;jettySize=auto;html=1;fontSize=14;fontColor=#000000;" parent="1" source="KzMME8AJnO-x6P3zgn9o-46" edge="1">
          <mxGeometry relative="1" as="geometry">
            <mxPoint x="1160" y="-280" as="targetPoint" />
          </mxGeometry>
        </mxCell>
        <mxCell id="KzMME8AJnO-x6P3zgn9o-46" value="no_profile" style="text;html=1;strokeColor=none;fillColor=none;align=center;verticalAlign=middle;whiteSpace=wrap;rounded=0;fontSize=14;fontColor=#000000;" parent="1" vertex="1">
          <mxGeometry x="1140" y="-350" width="40" height="20" as="geometry" />
        </mxCell>
        <mxCell id="KzMME8AJnO-x6P3zgn9o-59" value="&lt;font color=&quot;#FF3333&quot;&gt;&lt;b&gt;Frontend: &lt;font color=&quot;#000000&quot;&gt;Update variable &lt;/font&gt;&lt;br&gt;&lt;/b&gt;&lt;/font&gt;" style="text;html=1;strokeColor=none;fillColor=none;align=center;verticalAlign=middle;whiteSpace=wrap;rounded=0;fontSize=14;fontColor=#000000;" parent="1" vertex="1">
          <mxGeometry x="1470" y="-480" width="220" height="20" as="geometry" />
        </mxCell>
        <mxCell id="KzMME8AJnO-x6P3zgn9o-62" value="userCreated = true" style="text;html=1;strokeColor=none;fillColor=none;align=center;verticalAlign=middle;whiteSpace=wrap;rounded=0;fontSize=14;fontColor=#000000;" parent="1" vertex="1">
          <mxGeometry x="1490" y="-460" width="130" height="20" as="geometry" />
        </mxCell>
        <mxCell id="KzMME8AJnO-x6P3zgn9o-76" style="edgeStyle=orthogonalEdgeStyle;rounded=0;orthogonalLoop=1;jettySize=auto;html=1;fontSize=14;fontColor=#000000;" parent="1" source="KzMME8AJnO-x6P3zgn9o-67" edge="1">
          <mxGeometry relative="1" as="geometry">
            <mxPoint x="920" y="-470" as="targetPoint" />
          </mxGeometry>
        </mxCell>
        <mxCell id="KzMME8AJnO-x6P3zgn9o-67" value="exists" style="text;html=1;strokeColor=none;fillColor=none;align=center;verticalAlign=middle;whiteSpace=wrap;rounded=0;fontSize=14;fontColor=#000000;" parent="1" vertex="1">
          <mxGeometry x="960" y="-485" width="40" height="30" as="geometry" />
        </mxCell>
        <mxCell id="KzMME8AJnO-x6P3zgn9o-70" value="duplicateEmail = true" style="text;html=1;strokeColor=none;fillColor=none;align=center;verticalAlign=middle;whiteSpace=wrap;rounded=0;fontSize=14;fontColor=#000000;" parent="1" vertex="1">
          <mxGeometry x="733" y="-470" width="150" height="20" as="geometry" />
        </mxCell>
        <mxCell id="KzMME8AJnO-x6P3zgn9o-69" value="&lt;font color=&quot;#FF3333&quot;&gt;&lt;b&gt;Frontend: &lt;font color=&quot;#000000&quot;&gt;Update variable &lt;/font&gt;&lt;br&gt;&lt;/b&gt;&lt;/font&gt;" style="text;html=1;strokeColor=none;fillColor=none;align=center;verticalAlign=middle;whiteSpace=wrap;rounded=0;fontSize=14;fontColor=#000000;" parent="1" vertex="1">
          <mxGeometry x="698" y="-495" width="220" height="20" as="geometry" />
        </mxCell>
        <mxCell id="KzMME8AJnO-x6P3zgn9o-73" value="&lt;font color=&quot;#FF3333&quot;&gt;&lt;b&gt;*Fronend relevent file &lt;/b&gt;&lt;/font&gt;" style="text;html=1;strokeColor=none;fillColor=none;align=center;verticalAlign=middle;whiteSpace=wrap;rounded=0;fontSize=14;fontColor=#000000;" parent="1" vertex="1">
          <mxGeometry x="1371" y="-380" width="170" height="20" as="geometry" />
        </mxCell>
        <mxCell id="KzMME8AJnO-x6P3zgn9o-74" value="&lt;font color=&quot;#FF3333&quot;&gt;&lt;b&gt;File:&lt;/b&gt;&lt;/font&gt; components/getstarted/getstarted.vue" style="text;html=1;strokeColor=none;fillColor=none;align=center;verticalAlign=middle;whiteSpace=wrap;rounded=0;" parent="1" vertex="1">
          <mxGeometry x="1341" y="-360" width="230" height="20" as="geometry" />
        </mxCell>
      </root>
    </mxGraphModel>
  </diagram>
</mxfile>
